<svg version="1.1" xmlns="http://www.w3.org/2000/svg" xmlns:xlink="http://www.w3.org/1999/xlink" width="600" height="400"><defs><clipPath id="XfwAFprIiKTC"><path fill="none" stroke="none" d="M 50.5 31.5 L 570.5 31.5 L 570.5 355.5 L 50.5 355.5 L 50.5 31.5"/></clipPath><clipPath id="JGmyyQGVNsFl"><path fill="none" stroke="none" d="M 50.5 31.5 L 570.5 31.5 L 570.5 355.5 L 50.5 355.5 L 50.5 31.5"/></clipPath><clipPath id="ZIPwQrKUAJdI"><path fill="none" stroke="none" d="M 50.5 31.5 L 570.5 31.5 L 570.5 355.5 L 50.5 355.5 L 50.5 31.5"/></clipPath><clipPath id="ufsGONcqUGWJ"><path fill="none" stroke="none" d="M 50.5 31.5 L 570.5 31.5 L 570.5 355.5 L 50.5 355.5 L 50.5 31.5"/></clipPath><clipPath id="hsxnJrJTzmpp"><path fill="none" stroke="none" d="M 50.5 31.5 L 570.5 31.5 L 570.5 355.5 L 50.5 355.5 L 50.5 31.5"/></clipPath><clipPath id="XDLfVOTrboHK"><path fill="none" stroke="none" d="M 50.5 31.5 L 570.5 31.5 L 570.5 355.5 L 50.5 355.5 L 50.5 31.5"/></clipPath></defs><path fill="rgb(255,255,255)" stroke="none" paint-order="stroke" d="M 0.5 0.5 L 600.5 0.5 L 600.5 400.5 L 0.5 400.5 L 0.5 0.5" fill-opacity="1"/><rect fill="#FFFFFF" stroke="none" x="50" y="31" width="520" height="324" transform="matrix(1, 0, 0, 1, 0.5, 0.5)"/><path fill="rgb(255,255,255)" stroke="none" paint-order="stroke" d="M 50.5 31.5 L 570.5 31.5 L 570.5 355.5 L 50.5 355.5 L 50.5 31.5" fill-opacity="1"/><path fill="none" stroke="rgb(229,229,229)" paint-order="fill" d="M 50.5 31.5 L 570.5 31.5 L 570.5 355.5 L 50.5 355.5 L 50.5 31.5" stroke-opacity="1" stroke-linejoin="bevel" stroke-miterlimit="10" stroke-dasharray=""/><path fill="none" stroke="rgb(229,229,229)" paint-order="fill" d="M 50.5 313.5 L 570.5 313.5 M 50.5 253.5 L 570.5 253.5 M 50.5 193.5 L 570.5 193.5 M 50.5 133.5 L 570.5 133.5 M 50.5 73.5 L 570.5 73.5" stroke-opacity="1" stroke-linejoin="bevel" stroke-miterlimit="10" stroke-dasharray="" clip-path="url(#JGmyyQGVNsFl)"/><path fill="none" stroke="none"/><path fill="none" stroke="rgb(0,0,0)" paint-order="fill" d="M 74.13636016845703 46.227272033691406 L 78.35713958740234 309.097412109375 L 82.57791900634766 312.7735900878906 L 86.79869842529297 317.60595703125 L 91.01947784423828 320.6282043457031 L 95.2402572631836 322.5481872558594 L 99.4610366821289 325.29315185546875 L 103.68181610107422 327.87469482421875 L 107.90259552001953 329.3078918457031 L 112.12337493896484 330.8372497558594 L 116.34415435791016 331.9111328125 L 120.56493377685547 332.79058837890625 L 124.78571319580078 333.38726806640625 L 129.00650024414062 333.8429870605469 L 133.22727966308594 334.19720458984375 L 137.44805908203125 334.5338439941406 L 141.66883850097656 334.81524658203125 L 145.88961791992188 335.0329284667969 L 150.11038208007812 335.2476501464844 L 154.33116149902344 335.5501708984375 L 158.55194091796875 335.821044921875 L 162.77272033691406 335.9510192871094 L 166.99349975585938 336.1040344238281 L 171.2142791748047 336.2444763183594 L 175.43505859375 336.3704528808594 L 179.6558380126953 336.4516906738281 L 183.87661743164062 336.5863952636719 L 188.09739685058594 336.6672668457031 L 192.31817626953125 336.7978210449219 L 196.53895568847656 336.9442138671875 L 200.75973510742188 337.0618591308594 L 204.9805145263672 337.1685485839844 L 209.2012939453125 337.25732421875 L 213.4220733642578 337.3766784667969 L 217.64285278320312 337.4394836425781 L 221.86363220214844 337.5354919433594 L 226.08441162109375 337.6216735839844 L 230.30519104003906 337.7046203613281 L 234.52597045898438 337.7658386230469 L 238.7467498779297 337.84600830078125 L 242.967529296875 337.9132080078125 L 247.1883087158203 338.0137634277344 L 251.40908813476562 338.0860595703125 L 255.62986755371094 338.2225036621094 L 259.85064697265625 338.3255615234375 L 264.0714416503906 338.4333190917969 L 268.2922058105469 338.5128173828125 L 272.51300048828125 338.6107482910156 L 276.7337646484375 338.6746520996094 L 280.9545593261719 338.7582092285156 L 285.1753234863281 338.81512451171875 L 289.3961181640625 338.8856506347656 L 293.61688232421875 338.9418640136719 L 297.8376770019531 339.0098571777344 L 302.0584411621094 339.0603942871094 L 306.27923583984375 339.122802734375 L 310.5 339.15789794921875 L 314.72076416015625 339.2308349609375 L 318.9415588378906 339.2577819824219 L 323.1623229980469 339.3055419921875 L 327.38311767578125 339.3659973144531 L 331.6038818359375 339.4087829589844 L 335.8246765136719 339.4436340332031 L 340.0454406738281 339.4826965332031 L 344.2662353515625 339.5157470703125 L 348.48699951171875 339.5362854003906 L 352.7077941894531 339.5788269042969 L 356.9285583496094 339.6161193847656 L 361.14935302734375 339.65228271484375 L 365.3701171875 339.6692810058594 L 369.5909118652344 339.7223815917969 L 373.8116760253906 339.7191467285156 L 378.032470703125 339.7612609863281 L 382.25323486328125 339.77734375 L 386.4740295410156 339.7853088378906 L 390.6947937011719 339.8404235839844 L 394.91558837890625 339.8645935058594 L 399.1363525390625 339.88763427734375 L 403.3571472167969 339.89739990234375 L 407.5779113769531 339.9457702636719 L 411.7987060546875 339.9620056152344 L 416.01947021484375 339.9620056152344 L 420.2402648925781 339.9989013671875 L 424.4610290527344 340.0325927734375 L 428.68182373046875 340.0799255371094 L 432.902587890625 340.0976867675781 L 437.1233825683594 340.1825256347656 L 441.3441467285156 340.1783447265625 L 445.56494140625 340.2427062988281 L 449.78570556640625 340.2830810546875 L 454.0065002441406 340.3078918457031 L 458.2272644042969 340.3330383300781 L 462.44805908203125 340.3583068847656 L 466.6688232421875 340.4026794433594 L 470.8896179199219 340.3807067871094 L 475.1103820800781 340.4577331542969 L 479.3311767578125 340.4699401855469 L 483.55194091796875 340.49566650390625 L 487.7727355957031 340.5429382324219 L 491.9934997558594 340.5374755859375 L 496.21429443359375 340.57415771484375 L 500.43505859375 340.6236877441406 L 504.6558532714844 340.5676574707031 L 508.8766174316406 340.6290588378906 L 513.097412109375 340.6072082519531 L 517.3181762695312 340.64862060546875 L 521.5389404296875 340.6908874511719 L 525.759765625 340.71185302734375 L 529.9805297851562 340.65191650390625 L 534.2012939453125 340.73504638671875 L 538.4220581054688 340.7203369140625 L 542.6428833007812 340.7727355957031 L 546.8636474609375 340.7697448730469" stroke-opacity="1" stroke-linejoin="bevel" stroke-miterlimit="10" stroke-dasharray="2,4" clip-path="url(#ZIPwQrKUAJdI)"/><path fill="none" stroke="none"/><path fill="none" stroke="rgb(255,127,80)" paint-order="fill" d="M 74.13636016845703 308.53271484375 L 78.35713958740234 313.24676513671875 L 82.57791900634766 318.13427734375 L 86.79869842529297 321.1441650390625 L 91.01947784423828 323.76129150390625 L 95.2402572631836 325.16912841796875 L 99.4610366821289 327.903076171875 L 103.68181610107422 328.25067138671875 L 107.90259552001953 331.8094177246094 L 112.12337493896484 332.3809509277344 L 116.34415435791016 333.43328857421875 L 120.56493377685547 334.0878601074219 L 124.78571319580078 334.49127197265625 L 129.00650024414062 334.870849609375 L 133.22727966308594 335.26446533203125 L 137.44805908203125 334.1700439453125 L 141.66883850097656 334.61370849609375 L 145.88961791992188 334.0426025390625 L 150.11038208007812 336.0304870605469 L 154.33116149902344 335.2865295410156 L 158.55194091796875 335.0113525390625 L 162.77272033691406 336.07135009765625 L 166.99349975585938 336.762939453125 L 171.2142791748047 335.73712158203125 L 175.43505859375 336.7651062011719 L 179.6558380126953 336.3692626953125 L 183.87661743164062 336.87774658203125 L 188.09739685058594 336.4709777832031 L 192.31817626953125 336.9214172363281 L 196.53895568847656 336.8370666503906 L 200.75973510742188 337.0430908203125 L 204.9805145263672 337.478759765625 L 209.2012939453125 337.6729736328125 L 213.4220733642578 337.6888122558594 L 217.64285278320312 337.53875732421875 L 221.86363220214844 337.66668701171875 L 226.08441162109375 337.7530212402344 L 230.30519104003906 337.6593017578125 L 234.52597045898438 337.7641296386719 L 238.7467498779297 337.97943115234375 L 242.967529296875 337.7712707519531 L 247.1883087158203 338.2307434082031 L 251.40908813476562 338.3225402832031 L 255.62986755371094 338.0758361816406 L 259.85064697265625 338.72515869140625 L 264.0714416503906 338.55694580078125 L 268.2922058105469 338.7890319824219 L 272.51300048828125 338.85687255859375 L 276.7337646484375 337.7403564453125 L 280.9545593261719 338.8213195800781 L 285.1753234863281 338.21881103515625 L 289.3961181640625 338.9286804199219 L 293.61688232421875 339.0218505859375 L 297.8376770019531 338.9040222167969 L 302.0584411621094 338.6156311035156 L 306.27923583984375 339.12353515625 L 310.5 339.0198669433594 L 314.72076416015625 339.1249694824219 L 318.9415588378906 338.8179931640625 L 323.1623229980469 339.4179382324219 L 327.38311767578125 339.3729248046875 L 331.6038818359375 339.61456298828125 L 335.8246765136719 338.8430480957031 L 340.0454406738281 339.53350830078125 L 344.2662353515625 339.230712890625 L 348.48699951171875 339.4247741699219 L 352.7077941894531 339.3977355957031 L 356.9285583496094 339.00384521484375 L 361.14935302734375 339.84039306640625 L 365.3701171875 339.45159912109375 L 369.5909118652344 339.56829833984375 L 373.8116760253906 339.6821594238281 L 378.032470703125 339.86346435546875 L 382.25323486328125 339.51104736328125 L 386.4740295410156 339.548095703125 L 390.6947937011719 339.8186950683594 L 394.91558837890625 339.6863098144531 L 399.1363525390625 339.3671569824219 L 403.3571472167969 339.9022216796875 L 407.5779113769531 339.9412841796875 L 411.7987060546875 339.2742614746094 L 416.01947021484375 338.8943786621094 L 420.2402648925781 339.90545654296875 L 424.4610290527344 340.1177978515625 L 428.68182373046875 340.0981750488281 L 432.902587890625 339.4423828125 L 437.1233825683594 340.1969909667969 L 441.3441467285156 339.84381103515625 L 445.56494140625 340.0311584472656 L 449.78570556640625 340.20660400390625 L 454.0065002441406 339.84576416015625 L 458.2272644042969 340.29180908203125 L 462.44805908203125 340.2229919433594 L 466.6688232421875 340.49737548828125 L 470.8896179199219 340.290771484375 L 475.1103820800781 340.15478515625 L 479.3311767578125 340.29730224609375 L 483.55194091796875 338.8584289550781 L 487.7727355957031 340.2283630371094 L 491.9934997558594 339.815673828125 L 496.21429443359375 338.5496520996094 L 500.43505859375 340.0135498046875 L 504.6558532714844 340.58270263671875 L 508.8766174316406 340.35455322265625 L 513.097412109375 338.212890625 L 517.3181762695312 340.5018615722656 L 521.5389404296875 339.99346923828125 L 525.759765625 340.41021728515625 L 529.9805297851562 340.5398864746094 L 534.2012939453125 340.49383544921875 L 538.4220581054688 340.46685791015625 L 542.6428833007812 340.454345703125 L 546.8636474609375 339.3371276855469" stroke-opacity="1" stroke-linejoin="bevel" stroke-miterlimit="10" stroke-width="1.5" stroke-dasharray="" clip-path="url(#ufsGONcqUGWJ)"/><path fill="none" stroke="rgb(0,0,0)" paint-order="fill" d="M 50.5 355.5 L 570.5 355.5" stroke-opacity="1" stroke-linejoin="bevel" stroke-miterlimit="10" stroke-dasharray=""/><path fill="none" stroke="rgb(0,0,0)" paint-order="fill" d="M 74.5 361.5 L 74.5 353.5 M 158.5 361.5 L 158.5 353.5 M 242.5 361.5 L 242.5 353.5 M 327.5 361.5 L 327.5 353.5 M 411.5 361.5 L 411.5 353.5 M 496.5 361.5 L 496.5 353.5" stroke-opacity="1" stroke-linejoin="bevel" stroke-miterlimit="10" stroke-dasharray=""/><path fill="none" stroke="rgb(0,0,0)" paint-order="fill" d="M 57.5 359.5 L 57.5 355.5 M 74.5 359.5 L 74.5 355.5 M 91.5 359.5 L 91.5 355.5 M 107.5 359.5 L 107.5 355.5 M 124.5 359.5 L 124.5 355.5 M 141.5 359.5 L 141.5 355.5 M 158.5 359.5 L 158.5 355.5 M 175.5 359.5 L 175.5 355.5 M 192.5 359.5 L 192.5 355.5 M 209.5 359.5 L 209.5 355.5 M 226.5 359.5 L 226.5 355.5 M 242.5 359.5 L 242.5 355.5 M 259.5 359.5 L 259.5 355.5 M 276.5 359.5 L 276.5 355.5 M 293.5 359.5 L 293.5 355.5 M 310.5 359.5 L 310.5 355.5 M 327.5 359.5 L 327.5 355.5 M 344.5 359.5 L 344.5 355.5 M 361.5 359.5 L 361.5 355.5 M 378.5 359.5 L 378.5 355.5 M 394.5 359.5 L 394.5 355.5 M 411.5 359.5 L 411.5 355.5 M 428.5 359.5 L 428.5 355.5 M 445.5 359.5 L 445.5 355.5 M 462.5 359.5 L 462.5 355.5 M 479.5 359.5 L 479.5 355.5 M 496.5 359.5 L 496.5 355.5 M 513.5 359.5 L 513.5 355.5 M 529.5 359.5 L 529.5 355.5 M 546.5 359.5 L 546.5 355.5 M 563.5 359.5 L 563.5 355.5" stroke-opacity="1" stroke-linejoin="bevel" stroke-miterlimit="10" stroke-dasharray=""/><text fill="rgb(68,68,68)" stroke="none" font-family="helvetica" font-size="11px" font-style="normal" font-weight="normal" text-decoration="normal" x="70.57802677154541" y="373.89013671875" text-anchor="start" dominant-baseline="alphabetic" transform="matrix(1, 0, 0, 1, 0.5, 0.5)" fill-opacity="1">0</text><text fill="rgb(68,68,68)" stroke="none" font-family="helvetica" font-size="11px" font-style="normal" font-weight="normal" text-decoration="normal" x="151.9352741241455" y="373.89013671875" text-anchor="start" dominant-baseline="alphabetic" transform="matrix(1, 0, 0, 1, 0.5, 0.5)" fill-opacity="1">20</text><text fill="rgb(68,68,68)" stroke="none" font-family="helvetica" font-size="11px" font-style="normal" font-weight="normal" text-decoration="normal" x="236.35086250305176" y="373.89013671875" text-anchor="start" dominant-baseline="alphabetic" transform="matrix(1, 0, 0, 1, 0.5, 0.5)" fill-opacity="1">40</text><text fill="rgb(68,68,68)" stroke="none" font-family="helvetica" font-size="11px" font-style="normal" font-weight="normal" text-decoration="normal" x="320.766450881958" y="373.89013671875" text-anchor="start" dominant-baseline="alphabetic" transform="matrix(1, 0, 0, 1, 0.5, 0.5)" fill-opacity="1">60</text><text fill="rgb(68,68,68)" stroke="none" font-family="helvetica" font-size="11px" font-style="normal" font-weight="normal" text-decoration="normal" x="405.18203926086426" y="373.89013671875" text-anchor="start" dominant-baseline="alphabetic" transform="matrix(1, 0, 0, 1, 0.5, 0.5)" fill-opacity="1">80</text><text fill="rgb(68,68,68)" stroke="none" font-family="helvetica" font-size="11px" font-style="normal" font-weight="normal" text-decoration="normal" x="486.5392942428589" y="373.89013671875" text-anchor="start" dominant-baseline="alphabetic" transform="matrix(1, 0, 0, 1, 0.5, 0.5)" fill-opacity="1">100</text><text fill="rgb(68,68,68)" stroke="none" font-family="helvetica" font-size="13px" font-style="italic" font-weight="normal" text-decoration="normal" x="282.8916664123535" y="394.35693359375" text-anchor="start" dominant-baseline="alphabetic" transform="matrix(1, 0, 0, 1, 0.5, 0.5)" fill-opacity="1"># Epochs</text><path fill="none" stroke="rgb(0,0,0)" paint-order="fill" d="M 50.5 355.5 L 50.5 31.5" stroke-opacity="1" stroke-linejoin="bevel" stroke-miterlimit="10" stroke-dasharray=""/><path fill="none" stroke="rgb(0,0,0)" paint-order="fill" d="M 44.5 313.5 L 52.5 313.5 M 44.5 253.5 L 52.5 253.5 M 44.5 193.5 L 52.5 193.5 M 44.5 133.5 L 52.5 133.5 M 44.5 73.5 L 52.5 73.5" stroke-opacity="1" stroke-linejoin="bevel" stroke-miterlimit="10" stroke-dasharray=""/><path fill="none" stroke="rgb(0,0,0)" paint-order="fill" d="M 46.5 325.5 L 50.5 325.5 M 46.5 337.5 L 50.5 337.5 M 46.5 349.5 L 50.5 349.5 M 46.5 313.5 L 50.5 313.5 M 46.5 301.5 L 50.5 301.5 M 46.5 289.5 L 50.5 289.5 M 46.5 277.5 L 50.5 277.5 M 46.5 265.5 L 50.5 265.5 M 46.5 253.5 L 50.5 253.5 M 46.5 241.5 L 50.5 241.5 M 46.5 229.5 L 50.5 229.5 M 46.5 217.5 L 50.5 217.5 M 46.5 205.5 L 50.5 205.5 M 46.5 193.5 L 50.5 193.5 M 46.5 181.5 L 50.5 181.5 M 46.5 169.5 L 50.5 169.5 M 46.5 157.5 L 50.5 157.5 M 46.5 145.5 L 50.5 145.5 M 46.5 133.5 L 50.5 133.5 M 46.5 121.5 L 50.5 121.5 M 46.5 109.5 L 50.5 109.5 M 46.5 97.5 L 50.5 97.5 M 46.5 85.5 L 50.5 85.5 M 46.5 73.5 L 50.5 73.5 M 46.5 60.5 L 50.5 60.5 M 46.5 48.5 L 50.5 48.5 M 46.5 36.5 L 50.5 36.5" stroke-opacity="1" stroke-linejoin="bevel" stroke-miterlimit="10" stroke-dasharray=""/><text fill="rgb(68,68,68)" stroke="none" font-family="helvetica" font-size="11px" font-style="normal" font-weight="normal" text-decoration="normal" x="32.88333320617676" y="317.2572326660156" text-anchor="start" dominant-baseline="alphabetic" transform="matrix(1, 0, 0, 1, 0.5, 0.5)" fill-opacity="1">4</text><text fill="rgb(68,68,68)" stroke="none" font-family="helvetica" font-size="11px" font-style="normal" font-weight="normal" text-decoration="normal" x="32.88333320617676" y="257.0623321533203" text-anchor="start" dominant-baseline="alphabetic" transform="matrix(1, 0, 0, 1, 0.5, 0.5)" fill-opacity="1">6</text><text fill="rgb(68,68,68)" stroke="none" font-family="helvetica" font-size="11px" font-style="normal" font-weight="normal" text-decoration="normal" x="32.88333320617676" y="196.867431640625" text-anchor="start" dominant-baseline="alphabetic" transform="matrix(1, 0, 0, 1, 0.5, 0.5)" fill-opacity="1">8</text><text fill="rgb(68,68,68)" stroke="none" font-family="helvetica" font-size="11px" font-style="normal" font-weight="normal" text-decoration="normal" x="26.766666412353516" y="136.6725311279297" text-anchor="start" dominant-baseline="alphabetic" transform="matrix(1, 0, 0, 1, 0.5, 0.5)" fill-opacity="1">10</text><text fill="rgb(68,68,68)" stroke="none" font-family="helvetica" font-size="11px" font-style="normal" font-weight="normal" text-decoration="normal" x="26.766666412353516" y="76.4776382446289" text-anchor="start" dominant-baseline="alphabetic" transform="matrix(1, 0, 0, 1, 0.5, 0.5)" fill-opacity="1">12</text><text fill="rgb(68,68,68)" stroke="none" font-family="helvetica" font-size="13px" font-style="italic" font-weight="normal" text-decoration="normal" x="5.033332824707031" y="190.12451171875" text-anchor="start" dominant-baseline="alphabetic" transform="matrix(6.123233995736766e-17, -1, 1, 6.123233995736766e-17, -173.73333358764648, 212.26666641235352)" fill-opacity="1">Loss</text><path fill="rgb(255,255,255)" stroke="rgb(229,229,229)" paint-order="fill" d="M 443.9499969482422 41.5 L 560.5 41.5 L 560.5 104.5 L 443.9499969482422 104.5 L 443.9499969482422 41.5" fill-opacity="0.9490196078431372" clip-path="url(#hsxnJrJTzmpp)" stroke-opacity="0.5019607843137255" stroke-linejoin="bevel" stroke-miterlimit="10" stroke-dasharray=""/><text fill="rgb(68,68,68)" stroke="none" font-family="helvetica" font-size="8pt" font-style="normal" font-weight="normal" text-decoration="normal" x="478.4499969482422" y="61" text-anchor="start" dominant-baseline="central" transform="matrix(1, 0, 0, 1, 0.5, 0.5)" fill-opacity="1">Training Loss</text><path fill="none" stroke="rgb(0,0,0)" paint-order="fill" d="M 453.9499969482422 61.5 L 473.9499969482422 61.5" stroke-opacity="1" stroke-linejoin="bevel" stroke-miterlimit="10" stroke-dasharray="2,4" clip-path="url(#hsxnJrJTzmpp)"/><text fill="rgb(68,68,68)" stroke="none" font-family="helvetica" font-size="8pt" font-style="normal" font-weight="normal" text-decoration="normal" x="478.4499969482422" y="84" text-anchor="start" dominant-baseline="central" transform="matrix(1, 0, 0, 1, 0.5, 0.5)" fill-opacity="1">Validation Loss</text><path fill="none" stroke="rgb(255,127,80)" paint-order="fill" d="M 453.9499969482422 84.5 L 473.9499969482422 84.5" stroke-opacity="1" stroke-linejoin="bevel" stroke-miterlimit="10" stroke-width="1.5" stroke-dasharray="" clip-path="url(#hsxnJrJTzmpp)"/><path fill="none" stroke="none"/><text fill="rgb(68,68,68)" stroke="none" font-family="helvetica" font-size="12pt" font-style="normal" font-weight="bold" text-decoration="normal" x="0" y="0" text-anchor="middle" dominant-baseline="text-after-edge" transform="matrix(1, 0, 0, 1, 310.5, 26.5)" fill-opacity="1">AutoEncoder - Loss per Epoch</text></svg>