<svg version="1.1" xmlns="http://www.w3.org/2000/svg" xmlns:xlink="http://www.w3.org/1999/xlink" width="600" height="400"><defs><clipPath id="WPXTLkRkQqpV"><path fill="none" stroke="none" d="M 65.5 31.5 L 570.5 31.5 L 570.5 350.5 L 65.5 350.5 L 65.5 31.5"/></clipPath><clipPath id="pAPDWcUXFPOe"><path fill="none" stroke="none" d="M 65.5 31.5 L 570.5 31.5 L 570.5 350.5 L 65.5 350.5 L 65.5 31.5"/></clipPath><clipPath id="JrwQmlSpzKLH"><path fill="none" stroke="none" d="M 65.5 31.5 L 570.5 31.5 L 570.5 350.5 L 65.5 350.5 L 65.5 31.5"/></clipPath><clipPath id="QPVhAqFRuNfq"><path fill="none" stroke="none" d="M 65.5 31.5 L 570.5 31.5 L 570.5 350.5 L 65.5 350.5 L 65.5 31.5"/></clipPath><clipPath id="GBpKWtinLJtT"><path fill="none" stroke="none" d="M 65.5 31.5 L 570.5 31.5 L 570.5 350.5 L 65.5 350.5 L 65.5 31.5"/></clipPath><clipPath id="kdOUBCmnKoDE"><path fill="none" stroke="none" d="M 65.5 31.5 L 570.5 31.5 L 570.5 350.5 L 65.5 350.5 L 65.5 31.5"/></clipPath></defs><path fill="rgb(255,255,255)" stroke="none" paint-order="stroke" d="M 0.5 0.5 L 600.5 0.5 L 600.5 400.5 L 0.5 400.5 L 0.5 0.5" fill-opacity="1"/><rect fill="#FFFFFF" stroke="none" x="65" y="31" width="505" height="319" transform="matrix(1, 0, 0, 1, 0.5, 0.5)"/><path fill="rgb(255,255,255)" stroke="none" paint-order="stroke" d="M 65.5 31.5 L 570.5 31.5 L 570.5 350.5 L 65.5 350.5 L 65.5 31.5" fill-opacity="1"/><path fill="none" stroke="rgb(229,229,229)" paint-order="fill" d="M 65.5 31.5 L 570.5 31.5 L 570.5 350.5 L 65.5 350.5 L 65.5 31.5" stroke-opacity="1" stroke-linejoin="bevel" stroke-miterlimit="10" stroke-dasharray=""/><path fill="none" stroke="rgb(229,229,229)" paint-order="fill" d="M 65.5 336.5 L 570.5 336.5 M 65.5 278.5 L 570.5 278.5 M 65.5 220.5 L 570.5 220.5 M 65.5 162.5 L 570.5 162.5 M 65.5 104.5 L 570.5 104.5 M 65.5 46.5 L 570.5 46.5" stroke-opacity="1" stroke-linejoin="bevel" stroke-miterlimit="10" stroke-dasharray="" clip-path="url(#pAPDWcUXFPOe)"/><path fill="none" stroke="none"/><path fill="none" stroke="rgb(255,127,80)" paint-order="fill" d="M 88.45454406738281 336 L 88.45454406738281 335.8033752441406 L 88.45454406738281 319.6813659667969 L 89.0178451538086 319.6813659667969 L 89.0178451538086 316.1423645019531 L 89.58114624023438 316.1423645019531 L 89.58114624023438 301.5932312011719 L 90.14444732666016 301.5932312011719 L 90.14444732666016 299.23388671875 L 90.70775604248047 299.23388671875 L 90.70775604248047 279.1796569824219 L 91.27105712890625 279.1796569824219 L 91.27105712890625 276.2304992675781 L 91.83435821533203 276.2304992675781 L 91.83435821533203 273.0847473144531 L 92.39765930175781 273.0847473144531 L 92.39765930175781 269.5457763671875 L 92.9609603881836 269.5457763671875 L 92.9609603881836 259.12542724609375 L 93.52426147460938 259.12542724609375 L 93.52426147460938 238.87457275390625 L 94.08756256103516 238.87457275390625 L 94.08756256103516 238.48135375976562 L 94.65086364746094 238.48135375976562 L 94.65086364746094 238.2847442626953 L 95.21416473388672 238.2847442626953 L 95.21416473388672 234.5491485595703 L 95.7774658203125 234.5491485595703 L 95.7774658203125 231.79661560058594 L 96.34076690673828 231.79661560058594 L 96.34076690673828 220.98304748535156 L 96.90406799316406 220.98304748535156 L 96.90406799316406 215.87118530273438 L 97.46737670898438 215.87118530273438 L 97.46737670898438 213.11863708496094 L 98.03067779541016 213.11863708496094 L 98.03067779541016 212.3321990966797 L 98.59397888183594 212.3321990966797 L 98.59397888183594 211.54576110839844 L 99.15727996826172 211.54576110839844 L 99.15727996826172 209.77627563476562 L 99.7205810546875 209.77627563476562 L 99.7205810546875 201.12542724609375 L 100.28388214111328 201.12542724609375 L 100.28388214111328 200.5355987548828 L 100.84718322753906 200.5355987548828 L 100.84718322753906 198.56948852539062 L 101.97378540039062 198.56948852539062 L 101.97378540039062 196.21017456054688 L 102.5370864868164 196.21017456054688 L 102.5370864868164 192.8677978515625 L 103.10038757324219 192.8677978515625 L 103.10038757324219 190.705078125 L 103.66368865966797 190.705078125 L 103.66368865966797 188.34576416015625 L 104.22699737548828 188.34576416015625 L 104.22699737548828 185.98643493652344 L 104.79029846191406 185.98643493652344 L 104.79029846191406 184.61016845703125 L 105.35359954833984 184.61016845703125 L 105.35359954833984 183.43051147460938 L 105.91690063476562 183.43051147460938 L 105.91690063476562 183.23390197753906 L 107.04350280761719 183.23390197753906 L 107.04350280761719 179.10508728027344 L 107.60680389404297 179.10508728027344 L 107.60680389404297 175.95932006835938 L 108.17010498046875 175.95932006835938 L 108.17010498046875 173.4033966064453 L 108.73340606689453 173.4033966064453 L 108.73340606689453 171.63389587402344 L 109.29670715332031 171.63389587402344 L 109.29670715332031 170.06101989746094 L 109.8600082397461 170.06101989746094 L 109.8600082397461 168.29151916503906 L 110.42330932617188 168.29151916503906 L 110.42330932617188 165.34237670898438 L 110.98661804199219 165.34237670898438 L 110.98661804199219 162.39321899414062 L 111.54991912841797 162.39321899414062 L 111.54991912841797 161.01695251464844 L 112.11322021484375 161.01695251464844 L 112.11322021484375 159.24745178222656 L 112.67652130126953 159.24745178222656 L 112.67652130126953 158.264404296875 L 113.23982238769531 158.264404296875 L 113.23982238769531 158.0677947998047 L 113.8031234741211 158.0677947998047 L 113.8031234741211 155.3152618408203 L 114.36642456054688 155.3152618408203 L 114.36642456054688 153.74237060546875 L 114.92972564697266 153.74237060546875 L 114.92972564697266 151.77627563476562 L 115.49302673339844 151.77627563476562 L 115.49302673339844 151.5796661376953 L 116.61962890625 151.5796661376953 L 116.61962890625 151.1864471435547 L 117.18292999267578 151.1864471435547 L 117.18292999267578 149.81016540527344 L 117.7462387084961 149.81016540527344 L 117.7462387084961 147.4508514404297 L 118.30953979492188 147.4508514404297 L 118.30953979492188 144.50169372558594 L 118.87284088134766 144.50169372558594 L 118.87284088134766 142.5355987548828 L 119.43614196777344 142.5355987548828 L 119.43614196777344 141.7491455078125 L 120.562744140625 141.7491455078125 L 120.562744140625 134.47457885742188 L 121.12604522705078 134.47457885742188 L 121.12604522705078 132.5084686279297 L 121.68934631347656 132.5084686279297 L 121.68934631347656 131.3288116455078 L 122.25264739990234 131.3288116455078 L 122.25264739990234 130.34576416015625 L 122.81594848632812 130.34576416015625 L 122.81594848632812 130.14915466308594 L 123.3792495727539 130.14915466308594 L 123.3792495727539 128.57627868652344 L 123.94255065917969 128.57627868652344 L 123.94255065917969 127.3966064453125 L 124.505859375 127.3966064453125 L 124.505859375 126.61016845703125 L 125.06916046142578 126.61016845703125 L 125.06916046142578 126.02033996582031 L 125.63246154785156 126.02033996582031 L 125.63246154785156 123.85762786865234 L 126.19576263427734 123.85762786865234 L 126.19576263427734 123.0711898803711 L 126.75906372070312 123.0711898803711 L 126.75906372070312 122.67796325683594 L 127.3223648071289 122.67796325683594 L 127.3223648071289 115.7966079711914 L 127.88566589355469 115.7966079711914 L 127.88566589355469 114.81356048583984 L 128.44896697998047 114.81356048583984 L 128.44896697998047 114.2237319946289 L 129.01226806640625 114.2237319946289 L 129.01226806640625 113.43728637695312 L 129.57557678222656 113.43728637695312 L 129.57557678222656 111.86441040039062 L 130.1388702392578 111.86441040039062 L 130.1388702392578 111.66779327392578 L 130.70217895507812 111.66779327392578 L 130.70217895507812 110.09491729736328 L 131.26547241210938 110.09491729736328 L 131.26547241210938 108.32542419433594 L 131.8287811279297 108.32542419433594 L 131.8287811279297 106.94915008544922 L 132.39207458496094 106.94915008544922 L 132.39207458496094 105.76949310302734 L 132.95538330078125 105.76949310302734 L 132.95538330078125 102.8203353881836 L 133.5186767578125 102.8203353881836 L 133.5186767578125 100.85424041748047 L 134.0819854736328 100.85424041748047 L 134.0819854736328 100.264404296875 L 134.64529418945312 100.264404296875 L 134.64529418945312 99.47796630859375 L 135.20858764648438 99.47796630859375 L 135.20858764648438 97.90508270263672 L 135.7718963623047 97.90508270263672 L 135.7718963623047 97.7084732055664 L 136.33518981933594 97.7084732055664 L 136.33518981933594 96.33220672607422 L 136.89849853515625 96.33220672607422 L 136.89849853515625 94.75932312011719 L 137.4617919921875 94.75932312011719 L 137.4617919921875 93.97288513183594 L 138.0251007080078 93.97288513183594 L 138.0251007080078 92.98983001708984 L 138.58839416503906 92.98983001708984 L 138.58839416503906 92.59661102294922 L 139.15170288085938 92.59661102294922 L 139.15170288085938 92.2033920288086 L 139.71499633789062 92.2033920288086 L 139.71499633789062 92.00678253173828 L 140.27830505371094 92.00678253173828 L 140.27830505371094 90.23728942871094 L 141.4049072265625 90.23728942871094 L 141.4049072265625 89.45084381103516 L 141.9682159423828 89.45084381103516 L 141.9682159423828 88.27118682861328 L 142.53150939941406 88.27118682861328 L 142.53150939941406 87.87796783447266 L 143.09481811523438 87.87796783447266 L 143.09481811523438 87.28813934326172 L 143.65811157226562 87.28813934326172 L 143.65811157226562 85.32203674316406 L 144.22142028808594 85.32203674316406 L 144.22142028808594 85.12542724609375 L 144.7847137451172 85.12542724609375 L 144.7847137451172 84.7322006225586 L 146.47462463378906 84.7322006225586 L 146.47462463378906 84.14237213134766 L 147.0379180908203 84.14237213134766 L 147.0379180908203 83.94576263427734 L 147.60122680664062 83.94576263427734 L 147.60122680664062 82.76609802246094 L 148.16453552246094 82.76609802246094 L 148.16453552246094 82.37287902832031 L 148.7278289794922 82.37287902832031 L 148.7278289794922 81.78305053710938 L 149.2911376953125 81.78305053710938 L 149.2911376953125 81.58644104003906 L 149.85443115234375 81.58644104003906 L 149.85443115234375 81.38983154296875 L 150.41773986816406 81.38983154296875 L 150.41773986816406 79.6203384399414 L 152.10763549804688 79.6203384399414 L 152.10763549804688 78.63729095458984 L 152.6709442138672 78.63729095458984 L 152.6709442138672 76.67118835449219 L 153.23423767089844 76.67118835449219 L 153.23423767089844 76.08135223388672 L 154.9241485595703 76.08135223388672 L 154.9241485595703 75.8847427368164 L 156.05075073242188 75.8847427368164 L 156.05075073242188 75.49152374267578 L 157.17735290527344 75.49152374267578 L 157.17735290527344 75.09830474853516 L 158.303955078125 75.09830474853516 L 158.303955078125 73.91864776611328 L 158.8672637939453 73.91864776611328 L 158.8672637939453 73.52542114257812 L 159.99386596679688 73.52542114257812 L 159.99386596679688 73.1322021484375 L 161.12046813964844 73.1322021484375 L 161.12046813964844 72.93559265136719 L 161.68377685546875 72.93559265136719 L 161.68377685546875 72.73898315429688 L 163.37367248535156 72.73898315429688 L 163.37367248535156 72.14915466308594 L 163.93698120117188 72.14915466308594 L 163.93698120117188 71.95254516601562 L 164.50027465820312 71.95254516601562 L 164.50027465820312 71.75593566894531 L 165.6268768310547 71.75593566894531 L 165.6268768310547 71.55931854248047 L 166.190185546875 71.55931854248047 L 166.190185546875 69.98644256591797 L 169.5699920654297 69.98644256591797 L 169.5699920654297 69.59322357177734 L 170.13330078125 69.59322357177734 L 170.13330078125 69.19999694824219 L 170.69659423828125 69.19999694824219 L 170.69659423828125 69.00338745117188 L 171.25990295410156 69.00338745117188 L 171.25990295410156 68.61016845703125 L 171.8231964111328 68.61016845703125 L 171.8231964111328 67.82373046875 L 172.38650512695312 67.82373046875 L 172.38650512695312 67.23390197753906 L 172.94979858398438 67.23390197753906 L 172.94979858398438 66.44745635986328 L 174.07640075683594 66.44745635986328 L 174.07640075683594 65.66101837158203 L 175.20301818847656 65.66101837158203 L 175.20301818847656 65.46440887451172 L 175.7663116455078 65.46440887451172 L 175.7663116455078 65.2677993774414 L 176.89291381835938 65.2677993774414 L 176.89291381835938 65.0711898803711 L 178.01951599121094 65.0711898803711 L 178.01951599121094 64.67796325683594 L 179.1461181640625 64.67796325683594 L 179.1461181640625 64.28474426269531 L 179.7094268798828 64.28474426269531 L 179.7094268798828 64.088134765625 L 180.27272033691406 64.088134765625 L 180.27272033691406 63.89152526855469 L 181.96263122558594 63.89152526855469 L 181.96263122558594 63.694915771484375 L 182.52593994140625 63.694915771484375 L 182.52593994140625 63.30169677734375 L 184.21583557128906 63.30169677734375 L 184.21583557128906 63.10508346557617 L 186.4690399169922 63.10508346557617 L 186.4690399169922 61.92542266845703 L 187.0323486328125 61.92542266845703 L 187.0323486328125 61.72881317138672 L 187.5956573486328 61.72881317138672 L 187.5956573486328 61.335594177246094 L 188.72225952148438 61.335594177246094 L 188.72225952148438 60.9423713684082 L 190.9754638671875 60.9423713684082 L 190.9754638671875 60.74576187133789 L 192.10206604003906 60.74576187133789 L 192.10206604003906 60.54915237426758 L 194.9185791015625 60.54915237426758 L 194.9185791015625 60.352542877197266 L 196.04518127441406 60.352542877197266 L 196.04518127441406 60.15593338012695 L 196.6084747314453 60.15593338012695 L 196.6084747314453 59.172882080078125 L 198.2983856201172 59.172882080078125 L 198.2983856201172 58.97627258300781 L 198.86167907714844 58.97627258300781 L 198.86167907714844 58.779659271240234 L 200.5515899658203 58.779659271240234 L 200.5515899658203 58.38644027709961 L 201.67819213867188 58.38644027709961 L 201.67819213867188 58.1898307800293 L 202.2415008544922 58.1898307800293 L 202.2415008544922 57.993221282958984 L 202.80479431152344 57.993221282958984 L 202.80479431152344 57.40338897705078 L 203.931396484375 57.40338897705078 L 203.931396484375 57.20677947998047 L 205.05799865722656 57.20677947998047 L 205.05799865722656 57.010169982910156 L 205.62130737304688 57.010169982910156 L 205.62130737304688 56.22372817993164 L 209.56442260742188 56.22372817993164 L 209.56442260742188 56.02711868286133 L 210.69102478027344 56.02711868286133 L 210.69102478027344 55.830509185791016 L 211.2543182373047 55.830509185791016 L 211.2543182373047 55.6338996887207 L 212.38092041015625 55.6338996887207 L 212.38092041015625 55.437286376953125 L 216.32403564453125 55.437286376953125 L 216.32403564453125 55.24067687988281 L 216.88734436035156 55.24067687988281 L 216.88734436035156 55.0440673828125 L 218.01394653320312 55.0440673828125 L 218.01394653320312 54.84745788574219 L 218.57723999023438 54.84745788574219 L 218.57723999023438 54.650848388671875 L 220.8304443359375 54.650848388671875 L 220.8304443359375 54.45423889160156 L 221.95706176757812 54.45423889160156 L 221.95706176757812 54.257625579833984 L 222.52035522460938 54.257625579833984 L 222.52035522460938 53.86440658569336 L 224.7735595703125 53.86440658569336 L 224.7735595703125 53.66779708862305 L 225.90016174316406 53.66779708862305 L 225.90016174316406 53.27457809448242 L 226.46347045898438 53.27457809448242 L 226.46347045898438 52.88135528564453 L 229.84327697753906 52.88135528564453 L 229.84327697753906 52.68474578857422 L 230.96987915039062 52.68474578857422 L 230.96987915039062 52.488136291503906 L 233.78639221191406 52.488136291503906 L 233.78639221191406 52.094913482666016 L 238.2928009033203 52.094913482666016 L 238.2928009033203 51.8983039855957 L 242.79922485351562 51.8983039855957 L 242.79922485351562 51.70169448852539 L 245.05242919921875 51.70169448852539 L 245.05242919921875 51.50508499145508 L 248.99554443359375 51.50508499145508 L 248.99554443359375 51.11186599731445 L 249.558837890625 51.11186599731445 L 249.558837890625 50.915252685546875 L 250.1221466064453 50.915252685546875 L 250.1221466064453 50.71864318847656 L 251.81204223632812 50.71864318847656 L 251.81204223632812 50.52203369140625 L 252.37535095214844 50.52203369140625 L 252.37535095214844 50.32542419433594 L 254.06524658203125 50.32542419433594 L 254.06524658203125 50.128814697265625 L 255.19186401367188 50.128814697265625 L 255.19186401367188 49.93220520019531 L 259.6982727050781 49.93220520019531 L 259.6982727050781 49.53898239135742 L 261.95147705078125 49.53898239135742 L 261.95147705078125 49.34237289428711 L 263.6413879394531 49.34237289428711 L 263.6413879394531 49.1457633972168 L 268.1477966308594 49.1457633972168 L 268.1477966308594 48.752540588378906 L 268.7110900878906 48.752540588378906 L 268.7110900878906 48.555931091308594 L 278.2872314453125 48.555931091308594 L 278.2872314453125 47.966102600097656 L 279.413818359375 47.966102600097656 L 279.413818359375 47.769493103027344 L 281.66705322265625 47.769493103027344 L 281.66705322265625 47.572879791259766 L 282.2303466796875 47.572879791259766 L 282.2303466796875 47.37627029418945 L 285.0468444824219 47.37627029418945 L 285.0468444824219 47.17966079711914 L 286.73675537109375 47.17966079711914 L 286.73675537109375 46.98305130004883 L 288.4266662597656 46.98305130004883 L 288.4266662597656 46.786441802978516 L 290.67987060546875 46.786441802978516 L 290.67987060546875 46.5898323059082 L 299.69268798828125 46.5898323059082 L 299.69268798828125 46.393218994140625 L 304.1990966796875 46.393218994140625 L 304.1990966796875 46.19660949707031 L 328.42108154296875 46.19660949707031 L 328.42108154296875 46 L 547.5454711914062 46" stroke-opacity="1" stroke-linejoin="bevel" stroke-miterlimit="10" stroke-width="1.5" stroke-dasharray="" clip-path="url(#JrwQmlSpzKLH)"/><path fill="none" stroke="none"/><path fill="none" stroke="rgb(0,0,0)" paint-order="fill" d="M 88.45454406738281 336 L 88.45454406738281 336 L 88.45454406738281 336 L 89.0178451538086 335.6441650390625 L 89.0178451538086 335.6441650390625 L 89.58114624023438 335.288330078125 L 89.58114624023438 335.288330078125 L 90.14444732666016 334.9325256347656 L 90.14444732666016 334.9325256347656 L 90.70775604248047 334.5766906738281 L 90.70775604248047 334.5766906738281 L 91.27105712890625 334.2208557128906 L 91.27105712890625 334.2208557128906 L 91.83435821533203 333.8650207519531 L 91.83435821533203 333.8650207519531 L 92.39765930175781 333.50921630859375 L 92.39765930175781 333.50921630859375 L 92.9609603881836 333.15338134765625 L 92.9609603881836 333.15338134765625 L 93.52426147460938 332.79754638671875 L 93.52426147460938 332.79754638671875 L 94.08756256103516 332.44171142578125 L 94.08756256103516 332.44171142578125 L 94.65086364746094 332.08587646484375 L 94.65086364746094 332.08587646484375 L 95.21416473388672 331.7300720214844 L 95.21416473388672 331.7300720214844 L 95.7774658203125 331.3742370605469 L 95.7774658203125 331.3742370605469 L 96.34076690673828 331.0184020996094 L 96.34076690673828 331.0184020996094 L 96.90406799316406 330.6625671386719 L 96.90406799316406 330.6625671386719 L 97.46737670898438 330.3067626953125 L 97.46737670898438 330.3067626953125 L 98.03067779541016 329.950927734375 L 98.03067779541016 329.950927734375 L 98.59397888183594 329.5950927734375 L 98.59397888183594 329.5950927734375 L 99.15727996826172 329.2392578125 L 99.15727996826172 329.2392578125 L 99.7205810546875 328.8834228515625 L 99.7205810546875 328.8834228515625 L 100.28388214111328 328.5276184082031 L 100.28388214111328 328.5276184082031 L 100.84718322753906 328.1717834472656 L 100.84718322753906 328.1717834472656 L 101.97378540039062 327.4601135253906 L 101.97378540039062 327.4601135253906 L 102.5370864868164 327.10430908203125 L 102.5370864868164 327.10430908203125 L 103.10038757324219 326.74847412109375 L 103.10038757324219 326.74847412109375 L 103.66368865966797 326.39263916015625 L 103.66368865966797 326.39263916015625 L 104.22699737548828 326.03680419921875 L 104.22699737548828 326.03680419921875 L 104.79029846191406 325.68096923828125 L 104.79029846191406 325.68096923828125 L 105.35359954833984 325.3251647949219 L 105.35359954833984 325.3251647949219 L 105.91690063476562 324.9693298339844 L 105.91690063476562 324.9693298339844 L 107.04350280761719 324.2576599121094 L 107.04350280761719 324.2576599121094 L 107.60680389404297 323.90185546875 L 107.60680389404297 323.90185546875 L 108.17010498046875 323.5460205078125 L 108.17010498046875 323.5460205078125 L 108.73340606689453 323.190185546875 L 108.73340606689453 323.190185546875 L 109.29670715332031 322.8343505859375 L 109.29670715332031 322.8343505859375 L 109.8600082397461 322.478515625 L 109.8600082397461 322.478515625 L 110.42330932617188 322.1227111816406 L 110.42330932617188 322.1227111816406 L 110.98661804199219 321.7668762207031 L 110.98661804199219 321.7668762207031 L 111.54991912841797 321.4110412597656 L 111.54991912841797 321.4110412597656 L 112.11322021484375 321.0552062988281 L 112.11322021484375 321.0552062988281 L 112.67652130126953 320.6993713378906 L 112.67652130126953 320.6993713378906 L 113.23982238769531 320.34356689453125 L 113.23982238769531 320.34356689453125 L 113.8031234741211 319.98773193359375 L 113.8031234741211 319.98773193359375 L 114.36642456054688 319.63189697265625 L 114.36642456054688 319.63189697265625 L 114.92972564697266 319.27606201171875 L 114.92972564697266 319.27606201171875 L 115.49302673339844 318.9202575683594 L 115.49302673339844 318.9202575683594 L 116.61962890625 318.2085876464844 L 116.61962890625 318.2085876464844 L 117.18292999267578 317.8527526855469 L 117.18292999267578 317.8527526855469 L 117.7462387084961 317.4969177246094 L 117.7462387084961 317.4969177246094 L 118.30953979492188 317.14111328125 L 118.30953979492188 317.14111328125 L 118.87284088134766 316.7852783203125 L 118.87284088134766 316.7852783203125 L 119.43614196777344 316.429443359375 L 119.43614196777344 316.429443359375 L 120.562744140625 315.7178039550781 L 120.562744140625 315.7178039550781 L 121.12604522705078 315.3619689941406 L 121.12604522705078 315.3619689941406 L 121.68934631347656 315.0061340332031 L 121.68934631347656 315.0061340332031 L 122.25264739990234 314.6502990722656 L 122.25264739990234 314.6502990722656 L 122.81594848632812 314.2944641113281 L 122.81594848632812 314.2944641113281 L 123.3792495727539 313.93865966796875 L 123.3792495727539 313.93865966796875 L 123.94255065917969 313.58282470703125 L 123.94255065917969 313.58282470703125 L 124.505859375 313.22698974609375 L 124.505859375 313.22698974609375 L 125.06916046142578 312.87115478515625 L 125.06916046142578 312.87115478515625 L 125.63246154785156 312.5153503417969 L 125.63246154785156 312.5153503417969 L 126.19576263427734 312.1595153808594 L 126.19576263427734 312.1595153808594 L 126.75906372070312 311.8036804199219 L 126.75906372070312 311.8036804199219 L 127.3223648071289 311.4478454589844 L 127.3223648071289 311.4478454589844 L 127.88566589355469 311.0920104980469 L 127.88566589355469 311.0920104980469 L 128.44896697998047 310.7362060546875 L 128.44896697998047 310.7362060546875 L 129.01226806640625 310.38037109375 L 129.01226806640625 310.38037109375 L 129.57557678222656 310.0245361328125 L 129.57557678222656 310.0245361328125 L 130.1388702392578 309.668701171875 L 130.1388702392578 309.668701171875 L 130.70217895507812 309.3128967285156 L 130.70217895507812 309.3128967285156 L 131.26547241210938 308.9570617675781 L 131.26547241210938 308.9570617675781 L 131.8287811279297 308.6012268066406 L 131.8287811279297 308.6012268066406 L 132.39207458496094 308.2453918457031 L 132.39207458496094 308.2453918457031 L 132.95538330078125 307.8895568847656 L 132.95538330078125 307.8895568847656 L 133.5186767578125 307.53375244140625 L 133.5186767578125 307.53375244140625 L 134.0819854736328 307.17791748046875 L 134.0819854736328 307.17791748046875 L 134.64529418945312 306.82208251953125 L 134.64529418945312 306.82208251953125 L 135.20858764648438 306.46624755859375 L 135.20858764648438 306.46624755859375 L 135.7718963623047 306.1104431152344 L 135.7718963623047 306.1104431152344 L 136.33518981933594 305.7546081542969 L 136.33518981933594 305.7546081542969 L 136.89849853515625 305.3987731933594 L 136.89849853515625 305.3987731933594 L 137.4617919921875 305.0429382324219 L 137.4617919921875 305.0429382324219 L 138.0251007080078 304.6871032714844 L 138.0251007080078 304.6871032714844 L 138.58839416503906 304.331298828125 L 138.58839416503906 304.331298828125 L 139.15170288085938 303.9754638671875 L 139.15170288085938 303.9754638671875 L 139.71499633789062 303.61962890625 L 139.71499633789062 303.61962890625 L 140.27830505371094 303.2637939453125 L 140.27830505371094 303.2637939453125 L 141.4049072265625 302.5521545410156 L 141.4049072265625 302.5521545410156 L 141.9682159423828 302.1963195800781 L 141.9682159423828 302.1963195800781 L 142.53150939941406 301.8404846191406 L 142.53150939941406 301.8404846191406 L 143.09481811523438 301.4846496582031 L 143.09481811523438 301.4846496582031 L 143.65811157226562 301.12884521484375 L 143.65811157226562 301.12884521484375 L 144.22142028808594 300.77301025390625 L 144.22142028808594 300.77301025390625 L 144.7847137451172 300.41717529296875 L 144.7847137451172 300.41717529296875 L 146.47462463378906 299.3497009277344 L 146.47462463378906 299.3497009277344 L 147.0379180908203 298.9938659667969 L 147.0379180908203 298.9938659667969 L 147.60122680664062 298.6380310058594 L 147.60122680664062 298.6380310058594 L 148.16453552246094 298.2821960449219 L 148.16453552246094 298.2821960449219 L 148.7278289794922 297.9263916015625 L 148.7278289794922 297.9263916015625 L 149.2911376953125 297.570556640625 L 149.2911376953125 297.570556640625 L 149.85443115234375 297.2147216796875 L 149.85443115234375 297.2147216796875 L 150.41773986816406 296.85888671875 L 150.41773986816406 296.85888671875 L 152.10763549804688 295.7914123535156 L 152.10763549804688 295.7914123535156 L 152.6709442138672 295.4355773925781 L 152.6709442138672 295.4355773925781 L 153.23423767089844 295.0797424316406 L 153.23423767089844 295.0797424316406 L 154.9241485595703 294.01226806640625 L 154.9241485595703 294.01226806640625 L 156.05075073242188 293.3006286621094 L 156.05075073242188 293.3006286621094 L 157.17735290527344 292.5889587402344 L 157.17735290527344 292.5889587402344 L 158.303955078125 291.8772888183594 L 158.303955078125 291.8772888183594 L 158.8672637939453 291.521484375 L 158.8672637939453 291.521484375 L 159.99386596679688 290.809814453125 L 159.99386596679688 290.809814453125 L 161.12046813964844 290.09814453125 L 161.12046813964844 290.09814453125 L 161.68377685546875 289.7423400878906 L 161.68377685546875 289.7423400878906 L 163.37367248535156 288.6748352050781 L 163.37367248535156 288.6748352050781 L 163.93698120117188 288.31903076171875 L 163.93698120117188 288.31903076171875 L 164.50027465820312 287.96319580078125 L 164.50027465820312 287.96319580078125 L 165.6268768310547 287.25152587890625 L 165.6268768310547 287.25152587890625 L 166.190185546875 286.89569091796875 L 166.190185546875 286.89569091796875 L 169.5699920654297 284.7607421875 L 169.5699920654297 284.7607421875 L 170.13330078125 284.4049072265625 L 170.13330078125 284.4049072265625 L 170.69659423828125 284.049072265625 L 170.69659423828125 284.049072265625 L 171.25990295410156 283.6932373046875 L 171.25990295410156 283.6932373046875 L 171.8231964111328 283.3374328613281 L 171.8231964111328 283.3374328613281 L 172.38650512695312 282.9815979003906 L 172.38650512695312 282.9815979003906 L 172.94979858398438 282.6257629394531 L 172.94979858398438 282.6257629394531 L 174.07640075683594 281.91412353515625 L 174.07640075683594 281.91412353515625 L 175.20301818847656 281.20245361328125 L 175.20301818847656 281.20245361328125 L 175.7663116455078 280.84661865234375 L 175.7663116455078 280.84661865234375 L 176.89291381835938 280.1349792480469 L 176.89291381835938 280.1349792480469 L 178.01951599121094 279.4233093261719 L 178.01951599121094 279.4233093261719 L 179.1461181640625 278.711669921875 L 179.1461181640625 278.711669921875 L 179.7094268798828 278.3558349609375 L 179.7094268798828 278.3558349609375 L 180.27272033691406 278 L 180.27272033691406 278 L 181.96263122558594 276.9325256347656 L 181.96263122558594 276.9325256347656 L 182.52593994140625 276.5766906738281 L 182.52593994140625 276.5766906738281 L 184.21583557128906 275.50921630859375 L 184.21583557128906 275.50921630859375 L 186.4690399169922 274.08587646484375 L 186.4690399169922 274.08587646484375 L 187.0323486328125 273.7300720214844 L 187.0323486328125 273.7300720214844 L 187.5956573486328 273.3742370605469 L 187.5956573486328 273.3742370605469 L 188.72225952148438 272.6625671386719 L 188.72225952148438 272.6625671386719 L 190.9754638671875 271.2392578125 L 190.9754638671875 271.2392578125 L 192.10206604003906 270.5276184082031 L 192.10206604003906 270.5276184082031 L 194.9185791015625 268.74847412109375 L 194.9185791015625 268.74847412109375 L 196.04518127441406 268.03680419921875 L 196.04518127441406 268.03680419921875 L 196.6084747314453 267.68096923828125 L 196.6084747314453 267.68096923828125 L 198.2983856201172 266.6134948730469 L 198.2983856201172 266.6134948730469 L 198.86167907714844 266.2576599121094 L 198.86167907714844 266.2576599121094 L 200.5515899658203 265.190185546875 L 200.5515899658203 265.190185546875 L 201.67819213867188 264.478515625 L 201.67819213867188 264.478515625 L 202.2415008544922 264.1227111816406 L 202.2415008544922 264.1227111816406 L 202.80479431152344 263.7668762207031 L 202.80479431152344 263.7668762207031 L 203.931396484375 263.0552062988281 L 203.931396484375 263.0552062988281 L 205.05799865722656 262.34356689453125 L 205.05799865722656 262.34356689453125 L 205.62130737304688 261.98773193359375 L 205.62130737304688 261.98773193359375 L 209.56442260742188 259.4969177246094 L 209.56442260742188 259.4969177246094 L 210.69102478027344 258.7852783203125 L 210.69102478027344 258.7852783203125 L 211.2543182373047 258.429443359375 L 211.2543182373047 258.429443359375 L 212.38092041015625 257.7178039550781 L 212.38092041015625 257.7178039550781 L 216.32403564453125 255.22698974609375 L 216.32403564453125 255.22698974609375 L 216.88734436035156 254.8711700439453 L 216.88734436035156 254.8711700439453 L 218.01394653320312 254.15951538085938 L 218.01394653320312 254.15951538085938 L 218.57723999023438 253.80368041992188 L 218.57723999023438 253.80368041992188 L 220.8304443359375 252.38037109375 L 220.8304443359375 252.38037109375 L 221.95706176757812 251.66871643066406 L 221.95706176757812 251.66871643066406 L 222.52035522460938 251.31288146972656 L 222.52035522460938 251.31288146972656 L 224.7735595703125 249.8895721435547 L 224.7735595703125 249.8895721435547 L 225.90016174316406 249.17791748046875 L 225.90016174316406 249.17791748046875 L 226.46347045898438 248.82208251953125 L 226.46347045898438 248.82208251953125 L 229.84327697753906 246.68711853027344 L 229.84327697753906 246.68711853027344 L 230.96987915039062 245.9754638671875 L 230.96987915039062 245.9754638671875 L 233.78639221191406 244.19631958007812 L 233.78639221191406 244.19631958007812 L 238.2928009033203 241.3496856689453 L 238.2928009033203 241.3496856689453 L 242.79922485351562 238.50306701660156 L 242.79922485351562 238.50306701660156 L 245.05242919921875 237.0797576904297 L 245.05242919921875 237.0797576904297 L 248.99554443359375 234.58895874023438 L 248.99554443359375 234.58895874023438 L 249.558837890625 234.23312377929688 L 249.558837890625 234.23312377929688 L 250.1221466064453 233.87730407714844 L 250.1221466064453 233.87730407714844 L 251.81204223632812 232.809814453125 L 251.81204223632812 232.809814453125 L 252.37535095214844 232.45399475097656 L 252.37535095214844 232.45399475097656 L 254.06524658203125 231.38650512695312 L 254.06524658203125 231.38650512695312 L 255.19186401367188 230.6748504638672 L 255.19186401367188 230.6748504638672 L 259.6982727050781 227.82821655273438 L 259.6982727050781 227.82821655273438 L 261.95147705078125 226.4049072265625 L 261.95147705078125 226.4049072265625 L 263.6413879394531 225.33741760253906 L 263.6413879394531 225.33741760253906 L 268.1477966308594 222.4907989501953 L 268.1477966308594 222.4907989501953 L 268.7110900878906 222.1349639892578 L 268.7110900878906 222.1349639892578 L 278.2872314453125 216.0858917236328 L 278.2872314453125 216.0858917236328 L 279.413818359375 215.37423706054688 L 279.413818359375 215.37423706054688 L 281.66705322265625 213.950927734375 L 281.66705322265625 213.950927734375 L 282.2303466796875 213.5950927734375 L 282.2303466796875 213.5950927734375 L 285.0468444824219 211.81594848632812 L 285.0468444824219 211.81594848632812 L 286.73675537109375 210.7484588623047 L 286.73675537109375 210.7484588623047 L 288.4266662597656 209.6809844970703 L 288.4266662597656 209.6809844970703 L 290.67987060546875 208.25767517089844 L 290.67987060546875 208.25767517089844 L 299.69268798828125 202.56442260742188 L 299.69268798828125 202.56442260742188 L 304.1990966796875 199.71778869628906 L 304.1990966796875 199.71778869628906 L 328.42108154296875 184.41717529296875 L 328.42108154296875 184.41717529296875 L 547.5454711914062 46" stroke-opacity="1" stroke-linejoin="bevel" stroke-miterlimit="10" stroke-dasharray="6" clip-path="url(#QPVhAqFRuNfq)"/><path fill="none" stroke="rgb(0,0,0)" paint-order="fill" d="M 65.5 350.5 L 570.5 350.5" stroke-opacity="1" stroke-linejoin="bevel" stroke-miterlimit="10" stroke-dasharray=""/><path fill="none" stroke="rgb(0,0,0)" paint-order="fill" d="M 88.5 356.5 L 88.5 348.5 M 180.5 356.5 L 180.5 348.5 M 272.5 356.5 L 272.5 348.5 M 363.5 356.5 L 363.5 348.5 M 455.5 356.5 L 455.5 348.5 M 547.5 356.5 L 547.5 348.5" stroke-opacity="1" stroke-linejoin="bevel" stroke-miterlimit="10" stroke-dasharray=""/><path fill="none" stroke="rgb(0,0,0)" paint-order="fill" d="M 70.5 354.5 L 70.5 350.5 M 88.5 354.5 L 88.5 350.5 M 106.5 354.5 L 106.5 350.5 M 125.5 354.5 L 125.5 350.5 M 143.5 354.5 L 143.5 350.5 M 161.5 354.5 L 161.5 350.5 M 180.5 354.5 L 180.5 350.5 M 198.5 354.5 L 198.5 350.5 M 217.5 354.5 L 217.5 350.5 M 235.5 354.5 L 235.5 350.5 M 253.5 354.5 L 253.5 350.5 M 272.5 354.5 L 272.5 350.5 M 290.5 354.5 L 290.5 350.5 M 308.5 354.5 L 308.5 350.5 M 327.5 354.5 L 327.5 350.5 M 345.5 354.5 L 345.5 350.5 M 363.5 354.5 L 363.5 350.5 M 382.5 354.5 L 382.5 350.5 M 400.5 354.5 L 400.5 350.5 M 419.5 354.5 L 419.5 350.5 M 437.5 354.5 L 437.5 350.5 M 455.5 354.5 L 455.5 350.5 M 474.5 354.5 L 474.5 350.5 M 492.5 354.5 L 492.5 350.5 M 510.5 354.5 L 510.5 350.5 M 529.5 354.5 L 529.5 350.5 M 547.5 354.5 L 547.5 350.5 M 565.5 354.5 L 565.5 350.5" stroke-opacity="1" stroke-linejoin="bevel" stroke-miterlimit="10" stroke-dasharray=""/><text fill="rgb(68,68,68)" stroke="none" font-family="helvetica" font-size="11px" font-style="normal" font-weight="normal" text-decoration="normal" x="80.00454425811768" y="371.4521484375" text-anchor="start" dominant-baseline="alphabetic" transform="matrix(1, 0, 0, 1, 0.5, 0.5)" fill-opacity="1">0%</text><text fill="rgb(68,68,68)" stroke="none" font-family="helvetica" font-size="11px" font-style="normal" font-weight="normal" text-decoration="normal" x="168.7643871307373" y="371.4521484375" text-anchor="start" dominant-baseline="alphabetic" transform="matrix(1, 0, 0, 1, 0.5, 0.5)" fill-opacity="1">20%</text><text fill="rgb(68,68,68)" stroke="none" font-family="helvetica" font-size="11px" font-style="normal" font-weight="normal" text-decoration="normal" x="260.5825786590576" y="371.4521484375" text-anchor="start" dominant-baseline="alphabetic" transform="matrix(1, 0, 0, 1, 0.5, 0.5)" fill-opacity="1">40%</text><text fill="rgb(68,68,68)" stroke="none" font-family="helvetica" font-size="11px" font-style="normal" font-weight="normal" text-decoration="normal" x="352.40075492858887" y="371.4521484375" text-anchor="start" dominant-baseline="alphabetic" transform="matrix(1, 0, 0, 1, 0.5, 0.5)" fill-opacity="1">60%</text><text fill="rgb(68,68,68)" stroke="none" font-family="helvetica" font-size="11px" font-style="normal" font-weight="normal" text-decoration="normal" x="444.2189311981201" y="371.4521484375" text-anchor="start" dominant-baseline="alphabetic" transform="matrix(1, 0, 0, 1, 0.5, 0.5)" fill-opacity="1">80%</text><text fill="rgb(68,68,68)" stroke="none" font-family="helvetica" font-size="11px" font-style="normal" font-weight="normal" text-decoration="normal" x="532.9788045883179" y="371.4521484375" text-anchor="start" dominant-baseline="alphabetic" transform="matrix(1, 0, 0, 1, 0.5, 0.5)" fill-opacity="1">100%</text><text fill="rgb(68,68,68)" stroke="none" font-family="helvetica" font-size="13px" font-style="italic" font-weight="normal" text-decoration="normal" x="261.5" y="394.35205078125" text-anchor="start" dominant-baseline="alphabetic" transform="matrix(1, 0, 0, 1, 0.5, 0.5)" fill-opacity="1">False Positive Rate</text><path fill="none" stroke="rgb(0,0,0)" paint-order="fill" d="M 65.5 350.5 L 65.5 31.5" stroke-opacity="1" stroke-linejoin="bevel" stroke-miterlimit="10" stroke-dasharray=""/><path fill="none" stroke="rgb(0,0,0)" paint-order="fill" d="M 59.5 336.5 L 67.5 336.5 M 59.5 278.5 L 67.5 278.5 M 59.5 220.5 L 67.5 220.5 M 59.5 162.5 L 67.5 162.5 M 59.5 104.5 L 67.5 104.5 M 59.5 46.5 L 67.5 46.5" stroke-opacity="1" stroke-linejoin="bevel" stroke-miterlimit="10" stroke-dasharray=""/><path fill="none" stroke="rgb(0,0,0)" paint-order="fill" d="M 61.5 347.5 L 65.5 347.5 M 61.5 336.5 L 65.5 336.5 M 61.5 324.5 L 65.5 324.5 M 61.5 312.5 L 65.5 312.5 M 61.5 301.5 L 65.5 301.5 M 61.5 289.5 L 65.5 289.5 M 61.5 278.5 L 65.5 278.5 M 61.5 266.5 L 65.5 266.5 M 61.5 254.5 L 65.5 254.5 M 61.5 243.5 L 65.5 243.5 M 61.5 231.5 L 65.5 231.5 M 61.5 220.5 L 65.5 220.5 M 61.5 208.5 L 65.5 208.5 M 61.5 196.5 L 65.5 196.5 M 61.5 185.5 L 65.5 185.5 M 61.5 173.5 L 65.5 173.5 M 61.5 162.5 L 65.5 162.5 M 61.5 150.5 L 65.5 150.5 M 61.5 138.5 L 65.5 138.5 M 61.5 127.5 L 65.5 127.5 M 61.5 115.5 L 65.5 115.5 M 61.5 104.5 L 65.5 104.5 M 61.5 92.5 L 65.5 92.5 M 61.5 80.5 L 65.5 80.5 M 61.5 69.5 L 65.5 69.5 M 61.5 57.5 L 65.5 57.5 M 61.5 46.5 L 65.5 46.5 M 61.5 34.5 L 65.5 34.5" stroke-opacity="1" stroke-linejoin="bevel" stroke-miterlimit="10" stroke-dasharray=""/><text fill="rgb(68,68,68)" stroke="none" font-family="helvetica" font-size="11px" font-style="normal" font-weight="normal" text-decoration="normal" x="38.10000038146973" y="339.509521484375" text-anchor="start" dominant-baseline="alphabetic" transform="matrix(1, 0, 0, 1, 0.5, 0.5)" fill-opacity="1">0%</text><text fill="rgb(68,68,68)" stroke="none" font-family="helvetica" font-size="11px" font-style="normal" font-weight="normal" text-decoration="normal" x="31.983333587646484" y="281.509521484375" text-anchor="start" dominant-baseline="alphabetic" transform="matrix(1, 0, 0, 1, 0.5, 0.5)" fill-opacity="1">20%</text><text fill="rgb(68,68,68)" stroke="none" font-family="helvetica" font-size="11px" font-style="normal" font-weight="normal" text-decoration="normal" x="31.983333587646484" y="223.509521484375" text-anchor="start" dominant-baseline="alphabetic" transform="matrix(1, 0, 0, 1, 0.5, 0.5)" fill-opacity="1">40%</text><text fill="rgb(68,68,68)" stroke="none" font-family="helvetica" font-size="11px" font-style="normal" font-weight="normal" text-decoration="normal" x="31.983333587646484" y="165.509521484375" text-anchor="start" dominant-baseline="alphabetic" transform="matrix(1, 0, 0, 1, 0.5, 0.5)" fill-opacity="1">60%</text><text fill="rgb(68,68,68)" stroke="none" font-family="helvetica" font-size="11px" font-style="normal" font-weight="normal" text-decoration="normal" x="31.983333587646484" y="107.509521484375" text-anchor="start" dominant-baseline="alphabetic" transform="matrix(1, 0, 0, 1, 0.5, 0.5)" fill-opacity="1">80%</text><text fill="rgb(68,68,68)" stroke="none" font-family="helvetica" font-size="11px" font-style="normal" font-weight="normal" text-decoration="normal" x="25.866666793823242" y="49.509521484375" text-anchor="start" dominant-baseline="alphabetic" transform="matrix(1, 0, 0, 1, 0.5, 0.5)" fill-opacity="1">100%</text><text fill="rgb(68,68,68)" stroke="none" font-family="helvetica" font-size="13px" font-style="italic" font-weight="normal" text-decoration="normal" x="-35.36666679382324" y="187.62451171875" text-anchor="start" dominant-baseline="alphabetic" transform="matrix(6.123233995736766e-17, -1, 1, 6.123233995736766e-17, -172.13333320617676, 208.86666679382324)" fill-opacity="1">True Positive Rate</text><path fill="rgb(255,255,255)" stroke="rgb(229,229,229)" paint-order="fill" d="M 434.8666687011719 300.5 L 560.5 300.5 L 560.5 340.5 L 434.8666687011719 340.5 L 434.8666687011719 300.5" fill-opacity="0.9490196078431372" clip-path="url(#GBpKWtinLJtT)" stroke-opacity="0.5019607843137255" stroke-linejoin="bevel" stroke-miterlimit="10" stroke-dasharray=""/><text fill="rgb(68,68,68)" stroke="none" font-family="helvetica" font-size="8pt" font-style="normal" font-weight="normal" text-decoration="normal" x="469.3666687011719" y="320" text-anchor="start" dominant-baseline="central" transform="matrix(1, 0, 0, 1, 0.5, 0.5)" fill-opacity="1">AUROC: 93.86%</text><path fill="none" stroke="rgb(255,127,80)" paint-order="fill" d="M 444.8666687011719 320.5 L 464.8666687011719 320.5" stroke-opacity="1" stroke-linejoin="bevel" stroke-miterlimit="10" stroke-width="1.5" stroke-dasharray="" clip-path="url(#GBpKWtinLJtT)"/><path fill="none" stroke="none"/><text fill="rgb(68,68,68)" stroke="none" font-family="helvetica" font-size="12pt" font-style="normal" font-weight="bold" text-decoration="normal" x="0" y="0" text-anchor="middle" dominant-baseline="text-after-edge" transform="matrix(1, 0, 0, 1, 318, 26.5)" fill-opacity="1">AutoEncoder - ROC Curve</text></svg>