<svg version="1.1" xmlns="http://www.w3.org/2000/svg" xmlns:xlink="http://www.w3.org/1999/xlink" width="600" height="400"><defs><clipPath id="HzqotQnSqIpi"><path fill="none" stroke="none" d="M 62.5 31.5 L 570.5 31.5 L 570.5 355.5 L 62.5 355.5 L 62.5 31.5"/></clipPath><clipPath id="PQwbrBMZifPx"><path fill="none" stroke="none" d="M 62.5 31.5 L 570.5 31.5 L 570.5 355.5 L 62.5 355.5 L 62.5 31.5"/></clipPath><clipPath id="ErADATTeVSKJ"><path fill="none" stroke="none" d="M 62.5 31.5 L 570.5 31.5 L 570.5 355.5 L 62.5 355.5 L 62.5 31.5"/></clipPath><clipPath id="isFPDqHAtbfg"><path fill="none" stroke="none" d="M 62.5 31.5 L 570.5 31.5 L 570.5 355.5 L 62.5 355.5 L 62.5 31.5"/></clipPath><clipPath id="IJKCFUyWvGbr"><path fill="none" stroke="none" d="M 62.5 31.5 L 570.5 31.5 L 570.5 355.5 L 62.5 355.5 L 62.5 31.5"/></clipPath><clipPath id="ubmbPmMyAMxm"><path fill="none" stroke="none" d="M 62.5 31.5 L 570.5 31.5 L 570.5 355.5 L 62.5 355.5 L 62.5 31.5"/></clipPath></defs><path fill="rgb(255,255,255)" stroke="none" paint-order="stroke" d="M 0.5 0.5 L 600.5 0.5 L 600.5 400.5 L 0.5 400.5 L 0.5 0.5" fill-opacity="1"/><rect fill="#FFFFFF" stroke="none" x="62" y="31" width="508" height="324" transform="matrix(1, 0, 0, 1, 0.5, 0.5)"/><path fill="rgb(255,255,255)" stroke="none" paint-order="stroke" d="M 62.5 31.5 L 570.5 31.5 L 570.5 355.5 L 62.5 355.5 L 62.5 31.5" fill-opacity="1"/><path fill="none" stroke="rgb(229,229,229)" paint-order="fill" d="M 62.5 31.5 L 570.5 31.5 L 570.5 355.5 L 62.5 355.5 L 62.5 31.5" stroke-opacity="1" stroke-linejoin="bevel" stroke-miterlimit="10" stroke-dasharray=""/><path fill="none" stroke="rgb(229,229,229)" paint-order="fill" d="M 77.5 355.5 L 77.5 31.5 M 147.5 355.5 L 147.5 31.5 M 216.5 355.5 L 216.5 31.5 M 286.5 355.5 L 286.5 31.5 M 355.5 355.5 L 355.5 31.5 M 424.5 355.5 L 424.5 31.5 M 494.5 355.5 L 494.5 31.5 M 563.5 355.5 L 563.5 31.5" stroke-opacity="1" stroke-linejoin="bevel" stroke-miterlimit="10" stroke-dasharray="" clip-path="url(#HzqotQnSqIpi)"/><path fill="none" stroke="rgb(229,229,229)" paint-order="fill" d="M 62.5 308.5 L 570.5 308.5 M 62.5 260.5 L 570.5 260.5 M 62.5 213.5 L 570.5 213.5 M 62.5 165.5 L 570.5 165.5 M 62.5 118.5 L 570.5 118.5 M 62.5 70.5 L 570.5 70.5" stroke-opacity="1" stroke-linejoin="bevel" stroke-miterlimit="10" stroke-dasharray="" clip-path="url(#PQwbrBMZifPx)"/><path fill="none" stroke="none"/><path fill="rgb(220,20,60)" stroke="none" paint-order="stroke" d="M 85.59091186523438 273.9905700683594 L 97.61563110351562 273.9905700683594 L 97.61563110351562 355.5 L 85.59091186523438 355.5 L 85.59091186523438 273.9905700683594" fill-opacity="0.4235294117647059" clip-path="url(#ErADATTeVSKJ)"/><path fill="rgb(220,20,60)" stroke="none" paint-order="stroke" d="M 97.61563110351562 46.92856979370117 L 109.6403579711914 46.92856979370117 L 109.6403579711914 355.5 L 97.61563110351562 355.5 L 97.61563110351562 46.92856979370117" fill-opacity="0.6627450980392157" clip-path="url(#ErADATTeVSKJ)"/><path fill="rgb(220,20,60)" stroke="none" paint-order="stroke" d="M 109.6403579711914 93.5053939819336 L 121.66507720947266 93.5053939819336 L 121.66507720947266 355.5 L 109.6403579711914 355.5 L 109.6403579711914 93.5053939819336" fill-opacity="0.611764705882353" clip-path="url(#ErADATTeVSKJ)"/><path fill="rgb(220,20,60)" stroke="none" paint-order="stroke" d="M 121.66507720947266 198.30323791503906 L 133.68980407714844 198.30323791503906 L 133.68980407714844 355.5 L 121.66507720947266 355.5 L 121.66507720947266 198.30323791503906" fill-opacity="0.5019607843137255" clip-path="url(#ErADATTeVSKJ)"/><path fill="rgb(220,20,60)" stroke="none" paint-order="stroke" d="M 133.68980407714844 307.7587585449219 L 145.7145233154297 307.7587585449219 L 145.7145233154297 355.5 L 133.68980407714844 355.5 L 133.68980407714844 307.7587585449219" fill-opacity="0.38823529411764707" clip-path="url(#ErADATTeVSKJ)"/><path fill="rgb(220,20,60)" stroke="none" paint-order="stroke" d="M 145.7145233154297 329.88275146484375 L 157.73924255371094 329.88275146484375 L 157.73924255371094 355.5 L 145.7145233154297 355.5 L 145.7145233154297 329.88275146484375" fill-opacity="0.36470588235294116" clip-path="url(#ErADATTeVSKJ)"/><path fill="rgb(220,20,60)" stroke="none" paint-order="stroke" d="M 157.73924255371094 334.5404357910156 L 169.7639617919922 334.5404357910156 L 169.7639617919922 355.5 L 157.73924255371094 355.5 L 157.73924255371094 334.5404357910156" fill-opacity="0.3607843137254902" clip-path="url(#ErADATTeVSKJ)"/><path fill="rgb(220,20,60)" stroke="none" paint-order="stroke" d="M 169.7639617919922 342.6913757324219 L 181.7886962890625 342.6913757324219 L 181.7886962890625 355.5 L 169.7639617919922 355.5 L 169.7639617919922 342.6913757324219" fill-opacity="0.34901960784313724" clip-path="url(#ErADATTeVSKJ)"/><path fill="rgb(220,20,60)" stroke="none" paint-order="stroke" d="M 181.7886962890625 346.18463134765625 L 193.81341552734375 346.18463134765625 L 193.81341552734375 355.5 L 181.7886962890625 355.5 L 181.7886962890625 346.18463134765625" fill-opacity="0.34901960784313724" clip-path="url(#ErADATTeVSKJ)"/><path fill="rgb(220,20,60)" stroke="none" paint-order="stroke" d="M 193.81341552734375 348.51348876953125 L 205.838134765625 348.51348876953125 L 205.838134765625 355.5 L 193.81341552734375 355.5 L 193.81341552734375 348.51348876953125" fill-opacity="0.34509803921568627" clip-path="url(#ErADATTeVSKJ)"/><path fill="rgb(220,20,60)" stroke="none" paint-order="stroke" d="M 205.838134765625 349.6778869628906 L 217.86285400390625 349.6778869628906 L 217.86285400390625 355.5 L 205.838134765625 355.5 L 205.838134765625 349.6778869628906" fill-opacity="0.34509803921568627" clip-path="url(#ErADATTeVSKJ)"/><path fill="rgb(220,20,60)" stroke="none" paint-order="stroke" d="M 217.86285400390625 354.3355712890625 L 229.88758850097656 354.3355712890625 L 229.88758850097656 355.5 L 217.86285400390625 355.5 L 217.86285400390625 354.3355712890625" fill-opacity="0.33725490196078434" clip-path="url(#ErADATTeVSKJ)"/><path fill="rgb(220,20,60)" stroke="none" paint-order="stroke" d="M 229.88758850097656 354.3355712890625 L 241.9123077392578 354.3355712890625 L 241.9123077392578 355.5 L 229.88758850097656 355.5 L 229.88758850097656 354.3355712890625" fill-opacity="0.33725490196078434" clip-path="url(#ErADATTeVSKJ)"/><path fill="rgb(220,20,60)" stroke="none" paint-order="stroke" d="M 241.9123077392578 353.1711730957031 L 253.93702697753906 353.1711730957031 L 253.93702697753906 355.5 L 241.9123077392578 355.5 L 241.9123077392578 353.1711730957031" fill-opacity="0.3411764705882353" clip-path="url(#ErADATTeVSKJ)"/><path fill="rgb(220,20,60)" stroke="none" paint-order="stroke" d="M 253.93702697753906 354.3355712890625 L 265.9617614746094 354.3355712890625 L 265.9617614746094 355.5 L 253.93702697753906 355.5 L 253.93702697753906 354.3355712890625" fill-opacity="0.33725490196078434" clip-path="url(#ErADATTeVSKJ)"/><path fill="rgb(220,20,60)" stroke="none" paint-order="stroke" d="M 265.9617614746094 355.5 L 277.9864807128906 355.5 L 277.9864807128906 355.5 L 265.9617614746094 355.5 L 265.9617614746094 355.5" fill-opacity="0.33725490196078434" clip-path="url(#ErADATTeVSKJ)"/><path fill="rgb(220,20,60)" stroke="none" paint-order="stroke" d="M 277.9864807128906 353.1711730957031 L 290.0111999511719 353.1711730957031 L 290.0111999511719 355.5 L 277.9864807128906 355.5 L 277.9864807128906 353.1711730957031" fill-opacity="0.3411764705882353" clip-path="url(#ErADATTeVSKJ)"/><path fill="rgb(220,20,60)" stroke="none" paint-order="stroke" d="M 290.0111999511719 355.5 L 302.0359191894531 355.5 L 302.0359191894531 355.5 L 290.0111999511719 355.5 L 290.0111999511719 355.5" fill-opacity="0.33725490196078434" clip-path="url(#ErADATTeVSKJ)"/><path fill="rgb(220,20,60)" stroke="none" paint-order="stroke" d="M 302.0359191894531 355.5 L 314.0606384277344 355.5 L 314.0606384277344 355.5 L 302.0359191894531 355.5 L 302.0359191894531 355.5" fill-opacity="0.33725490196078434" clip-path="url(#ErADATTeVSKJ)"/><path fill="rgb(220,20,60)" stroke="none" paint-order="stroke" d="M 314.0606384277344 353.1711730957031 L 326.0853576660156 353.1711730957031 L 326.0853576660156 355.5 L 314.0606384277344 355.5 L 314.0606384277344 353.1711730957031" fill-opacity="0.3411764705882353" clip-path="url(#ErADATTeVSKJ)"/><path fill="none" stroke="none"/><path fill="rgb(75,0,130)" stroke="none" paint-order="stroke" d="M 112.82380676269531 306.60223388671875 L 127.30998229980469 306.60223388671875 L 127.30998229980469 355.5 L 112.82380676269531 355.5 L 112.82380676269531 306.60223388671875" fill-opacity="0.4823529411764706" clip-path="url(#isFPDqHAtbfg)"/><path fill="rgb(75,0,130)" stroke="none" paint-order="stroke" d="M 127.30998229980469 243.5498504638672 L 141.79615783691406 243.5498504638672 L 141.79615783691406 355.5 L 127.30998229980469 355.5 L 127.30998229980469 243.5498504638672" fill-opacity="0.5490196078431373" clip-path="url(#isFPDqHAtbfg)"/><path fill="rgb(75,0,130)" stroke="none" paint-order="stroke" d="M 141.79615783691406 227.46505737304688 L 156.28233337402344 227.46505737304688 L 156.28233337402344 355.5 L 141.79615783691406 355.5 L 141.79615783691406 227.46505737304688" fill-opacity="0.5686274509803921" clip-path="url(#isFPDqHAtbfg)"/><path fill="rgb(75,0,130)" stroke="none" paint-order="stroke" d="M 156.28233337402344 240.3328857421875 L 170.7685089111328 240.3328857421875 L 170.7685089111328 355.5 L 156.28233337402344 355.5 L 156.28233337402344 240.3328857421875" fill-opacity="0.5529411764705883" clip-path="url(#isFPDqHAtbfg)"/><path fill="rgb(75,0,130)" stroke="none" paint-order="stroke" d="M 170.7685089111328 281.50994873046875 L 185.2546844482422 281.50994873046875 L 185.2546844482422 355.5 L 170.7685089111328 355.5 L 170.7685089111328 281.50994873046875" fill-opacity="0.5098039215686274" clip-path="url(#isFPDqHAtbfg)"/><path fill="rgb(75,0,130)" stroke="none" paint-order="stroke" d="M 185.2546844482422 285.37030029296875 L 199.74085998535156 285.37030029296875 L 199.74085998535156 355.5 L 185.2546844482422 355.5 L 185.2546844482422 285.37030029296875" fill-opacity="0.5058823529411764" clip-path="url(#isFPDqHAtbfg)"/><path fill="rgb(75,0,130)" stroke="none" paint-order="stroke" d="M 199.74085998535156 271.85906982421875 L 214.22703552246094 271.85906982421875 L 214.22703552246094 355.5 L 199.74085998535156 355.5 L 199.74085998535156 271.85906982421875" fill-opacity="0.5215686274509804" clip-path="url(#isFPDqHAtbfg)"/><path fill="rgb(75,0,130)" stroke="none" paint-order="stroke" d="M 214.22703552246094 288.5872802734375 L 228.7132110595703 288.5872802734375 L 228.7132110595703 355.5 L 214.22703552246094 355.5 L 214.22703552246094 288.5872802734375" fill-opacity="0.5019607843137255" clip-path="url(#isFPDqHAtbfg)"/><path fill="rgb(75,0,130)" stroke="none" paint-order="stroke" d="M 228.7132110595703 318.8266906738281 L 243.1993865966797 318.8266906738281 L 243.1993865966797 355.5 L 228.7132110595703 355.5 L 228.7132110595703 318.8266906738281" fill-opacity="0.47058823529411764" clip-path="url(#isFPDqHAtbfg)"/><path fill="rgb(75,0,130)" stroke="none" paint-order="stroke" d="M 243.1993865966797 321.4002380371094 L 257.6855773925781 321.4002380371094 L 257.6855773925781 355.5 L 243.1993865966797 355.5 L 243.1993865966797 321.4002380371094" fill-opacity="0.4666666666666667" clip-path="url(#isFPDqHAtbfg)"/><path fill="rgb(75,0,130)" stroke="none" paint-order="stroke" d="M 257.6855773925781 316.8965148925781 L 272.1717529296875 316.8965148925781 L 272.1717529296875 355.5 L 257.6855773925781 355.5 L 257.6855773925781 316.8965148925781" fill-opacity="0.4745098039215686" clip-path="url(#isFPDqHAtbfg)"/><path fill="rgb(75,0,130)" stroke="none" paint-order="stroke" d="M 272.1717529296875 321.4002380371094 L 286.6579284667969 321.4002380371094 L 286.6579284667969 355.5 L 272.1717529296875 355.5 L 272.1717529296875 321.4002380371094" fill-opacity="0.4666666666666667" clip-path="url(#isFPDqHAtbfg)"/><path fill="rgb(75,0,130)" stroke="none" paint-order="stroke" d="M 286.6579284667969 332.337890625 L 301.14410400390625 332.337890625 L 301.14410400390625 355.5 L 286.6579284667969 355.5 L 286.6579284667969 332.337890625" fill-opacity="0.4588235294117647" clip-path="url(#isFPDqHAtbfg)"/><path fill="rgb(75,0,130)" stroke="none" paint-order="stroke" d="M 301.14410400390625 338.12841796875 L 315.6302795410156 338.12841796875 L 315.6302795410156 355.5 L 301.14410400390625 355.5 L 301.14410400390625 338.12841796875" fill-opacity="0.45098039215686275" clip-path="url(#isFPDqHAtbfg)"/><path fill="rgb(75,0,130)" stroke="none" paint-order="stroke" d="M 315.6302795410156 339.41522216796875 L 330.116455078125 339.41522216796875 L 330.116455078125 355.5 L 315.6302795410156 355.5 L 315.6302795410156 339.41522216796875" fill-opacity="0.45098039215686275" clip-path="url(#isFPDqHAtbfg)"/><path fill="rgb(75,0,130)" stroke="none" paint-order="stroke" d="M 330.116455078125 340.7019958496094 L 344.6026306152344 340.7019958496094 L 344.6026306152344 355.5 L 330.116455078125 355.5 L 330.116455078125 340.7019958496094" fill-opacity="0.4470588235294118" clip-path="url(#isFPDqHAtbfg)"/><path fill="rgb(75,0,130)" stroke="none" paint-order="stroke" d="M 344.6026306152344 347.779296875 L 359.08880615234375 347.779296875 L 359.08880615234375 355.5 L 344.6026306152344 355.5 L 344.6026306152344 347.779296875" fill-opacity="0.4392156862745098" clip-path="url(#isFPDqHAtbfg)"/><path fill="rgb(75,0,130)" stroke="none" paint-order="stroke" d="M 359.08880615234375 348.4226989746094 L 373.5749816894531 348.4226989746094 L 373.5749816894531 355.5 L 359.08880615234375 355.5 L 359.08880615234375 348.4226989746094" fill-opacity="0.4392156862745098" clip-path="url(#isFPDqHAtbfg)"/><path fill="rgb(75,0,130)" stroke="none" paint-order="stroke" d="M 373.5749816894531 352.2830505371094 L 388.0611572265625 352.2830505371094 L 388.0611572265625 355.5 L 373.5749816894531 355.5 L 373.5749816894531 352.2830505371094" fill-opacity="0.43529411764705883" clip-path="url(#isFPDqHAtbfg)"/><path fill="rgb(75,0,130)" stroke="none" paint-order="stroke" d="M 388.0611572265625 351.6396484375 L 402.5473327636719 351.6396484375 L 402.5473327636719 355.5 L 388.0611572265625 355.5 L 388.0611572265625 351.6396484375" fill-opacity="0.43529411764705883" clip-path="url(#isFPDqHAtbfg)"/><path fill="rgb(75,0,130)" stroke="none" paint-order="stroke" d="M 402.5473327636719 353.56982421875 L 417.03350830078125 353.56982421875 L 417.03350830078125 355.5 L 402.5473327636719 355.5 L 402.5473327636719 353.56982421875" fill-opacity="0.43529411764705883" clip-path="url(#isFPDqHAtbfg)"/><path fill="rgb(75,0,130)" stroke="none" paint-order="stroke" d="M 417.03350830078125 353.56982421875 L 431.5196838378906 353.56982421875 L 431.5196838378906 355.5 L 417.03350830078125 355.5 L 417.03350830078125 353.56982421875" fill-opacity="0.43529411764705883" clip-path="url(#isFPDqHAtbfg)"/><path fill="rgb(75,0,130)" stroke="none" paint-order="stroke" d="M 431.5196838378906 354.8565979003906 L 446.005859375 354.8565979003906 L 446.005859375 355.5 L 431.5196838378906 355.5 L 431.5196838378906 354.8565979003906" fill-opacity="0.43137254901960786" clip-path="url(#isFPDqHAtbfg)"/><path fill="rgb(75,0,130)" stroke="none" paint-order="stroke" d="M 446.005859375 353.56982421875 L 460.4920349121094 353.56982421875 L 460.4920349121094 355.5 L 446.005859375 355.5 L 446.005859375 353.56982421875" fill-opacity="0.43529411764705883" clip-path="url(#isFPDqHAtbfg)"/><path fill="rgb(75,0,130)" stroke="none" paint-order="stroke" d="M 460.4920349121094 353.56982421875 L 474.97821044921875 353.56982421875 L 474.97821044921875 355.5 L 460.4920349121094 355.5 L 460.4920349121094 353.56982421875" fill-opacity="0.43529411764705883" clip-path="url(#isFPDqHAtbfg)"/><path fill="rgb(75,0,130)" stroke="none" paint-order="stroke" d="M 474.97821044921875 354.2132263183594 L 489.4643859863281 354.2132263183594 L 489.4643859863281 355.5 L 474.97821044921875 355.5 L 474.97821044921875 354.2132263183594" fill-opacity="0.43529411764705883" clip-path="url(#isFPDqHAtbfg)"/><path fill="rgb(75,0,130)" stroke="none" paint-order="stroke" d="M 489.4643859863281 354.2132263183594 L 503.9505615234375 354.2132263183594 L 503.9505615234375 355.5 L 489.4643859863281 355.5 L 489.4643859863281 354.2132263183594" fill-opacity="0.43529411764705883" clip-path="url(#isFPDqHAtbfg)"/><path fill="rgb(75,0,130)" stroke="none" paint-order="stroke" d="M 503.9505615234375 354.8565979003906 L 518.436767578125 354.8565979003906 L 518.436767578125 355.5 L 503.9505615234375 355.5 L 503.9505615234375 354.8565979003906" fill-opacity="0.43137254901960786" clip-path="url(#isFPDqHAtbfg)"/><path fill="rgb(75,0,130)" stroke="none" paint-order="stroke" d="M 518.436767578125 354.8565979003906 L 532.9229125976562 354.8565979003906 L 532.9229125976562 355.5 L 518.436767578125 355.5 L 518.436767578125 354.8565979003906" fill-opacity="0.43137254901960786" clip-path="url(#isFPDqHAtbfg)"/><path fill="rgb(75,0,130)" stroke="none" paint-order="stroke" d="M 532.9229125976562 354.2132263183594 L 547.4091186523438 354.2132263183594 L 547.4091186523438 355.5 L 532.9229125976562 355.5 L 532.9229125976562 354.2132263183594" fill-opacity="0.43529411764705883" clip-path="url(#isFPDqHAtbfg)"/><path fill="none" stroke="rgb(0,0,0)" paint-order="fill" d="M 62.5 355.5 L 570.5 355.5" stroke-opacity="1" stroke-linejoin="bevel" stroke-miterlimit="10" stroke-dasharray=""/><path fill="none" stroke="rgb(0,0,0)" paint-order="fill" d="M 77.5 361.5 L 77.5 353.5 M 147.5 361.5 L 147.5 353.5 M 216.5 361.5 L 216.5 353.5 M 286.5 361.5 L 286.5 353.5 M 355.5 361.5 L 355.5 353.5 M 424.5 361.5 L 424.5 353.5 M 494.5 361.5 L 494.5 353.5 M 563.5 361.5 L 563.5 353.5" stroke-opacity="1" stroke-linejoin="bevel" stroke-miterlimit="10" stroke-dasharray=""/><path fill="none" stroke="rgb(0,0,0)" paint-order="fill" d="M 64.5 359.5 L 64.5 355.5 M 77.5 359.5 L 77.5 355.5 M 91.5 359.5 L 91.5 355.5 M 105.5 359.5 L 105.5 355.5 M 119.5 359.5 L 119.5 355.5 M 133.5 359.5 L 133.5 355.5 M 147.5 359.5 L 147.5 355.5 M 161.5 359.5 L 161.5 355.5 M 175.5 359.5 L 175.5 355.5 M 189.5 359.5 L 189.5 355.5 M 202.5 359.5 L 202.5 355.5 M 216.5 359.5 L 216.5 355.5 M 230.5 359.5 L 230.5 355.5 M 244.5 359.5 L 244.5 355.5 M 258.5 359.5 L 258.5 355.5 M 272.5 359.5 L 272.5 355.5 M 286.5 359.5 L 286.5 355.5 M 300.5 359.5 L 300.5 355.5 M 313.5 359.5 L 313.5 355.5 M 327.5 359.5 L 327.5 355.5 M 341.5 359.5 L 341.5 355.5 M 355.5 359.5 L 355.5 355.5 M 369.5 359.5 L 369.5 355.5 M 383.5 359.5 L 383.5 355.5 M 397.5 359.5 L 397.5 355.5 M 411.5 359.5 L 411.5 355.5 M 424.5 359.5 L 424.5 355.5 M 438.5 359.5 L 438.5 355.5 M 452.5 359.5 L 452.5 355.5 M 466.5 359.5 L 466.5 355.5 M 480.5 359.5 L 480.5 355.5 M 494.5 359.5 L 494.5 355.5 M 508.5 359.5 L 508.5 355.5 M 522.5 359.5 L 522.5 355.5 M 535.5 359.5 L 535.5 355.5 M 549.5 359.5 L 549.5 355.5 M 563.5 359.5 L 563.5 355.5" stroke-opacity="1" stroke-linejoin="bevel" stroke-miterlimit="10" stroke-dasharray=""/><text fill="rgb(68,68,68)" stroke="none" font-family="helvetica" font-size="11px" font-style="normal" font-weight="normal" text-decoration="normal" x="74.42468357086182" y="373.89013671875" text-anchor="start" dominant-baseline="alphabetic" transform="matrix(1, 0, 0, 1, 0.5, 0.5)" fill-opacity="1">2</text><text fill="rgb(68,68,68)" stroke="none" font-family="helvetica" font-size="11px" font-style="normal" font-weight="normal" text-decoration="normal" x="143.82075595855713" y="373.89013671875" text-anchor="start" dominant-baseline="alphabetic" transform="matrix(1, 0, 0, 1, 0.5, 0.5)" fill-opacity="1">4</text><text fill="rgb(68,68,68)" stroke="none" font-family="helvetica" font-size="11px" font-style="normal" font-weight="normal" text-decoration="normal" x="213.21682834625244" y="373.89013671875" text-anchor="start" dominant-baseline="alphabetic" transform="matrix(1, 0, 0, 1, 0.5, 0.5)" fill-opacity="1">6</text><text fill="rgb(68,68,68)" stroke="none" font-family="helvetica" font-size="11px" font-style="normal" font-weight="normal" text-decoration="normal" x="282.61290073394775" y="373.89013671875" text-anchor="start" dominant-baseline="alphabetic" transform="matrix(1, 0, 0, 1, 0.5, 0.5)" fill-opacity="1">8</text><text fill="rgb(68,68,68)" stroke="none" font-family="helvetica" font-size="11px" font-style="normal" font-weight="normal" text-decoration="normal" x="348.9506244659424" y="373.89013671875" text-anchor="start" dominant-baseline="alphabetic" transform="matrix(1, 0, 0, 1, 0.5, 0.5)" fill-opacity="1">10</text><text fill="rgb(68,68,68)" stroke="none" font-family="helvetica" font-size="11px" font-style="normal" font-weight="normal" text-decoration="normal" x="418.34668159484863" y="373.89013671875" text-anchor="start" dominant-baseline="alphabetic" transform="matrix(1, 0, 0, 1, 0.5, 0.5)" fill-opacity="1">12</text><text fill="rgb(68,68,68)" stroke="none" font-family="helvetica" font-size="11px" font-style="normal" font-weight="normal" text-decoration="normal" x="487.742769241333" y="373.89013671875" text-anchor="start" dominant-baseline="alphabetic" transform="matrix(1, 0, 0, 1, 0.5, 0.5)" fill-opacity="1">14</text><text fill="rgb(68,68,68)" stroke="none" font-family="helvetica" font-size="11px" font-style="normal" font-weight="normal" text-decoration="normal" x="557.1388263702393" y="373.89013671875" text-anchor="start" dominant-baseline="alphabetic" transform="matrix(1, 0, 0, 1, 0.5, 0.5)" fill-opacity="1">16</text><text fill="rgb(68,68,68)" stroke="none" font-family="helvetica" font-size="13px" font-style="italic" font-weight="normal" text-decoration="normal" x="256.375" y="394.35693359375" text-anchor="start" dominant-baseline="alphabetic" transform="matrix(1, 0, 0, 1, 0.5, 0.5)" fill-opacity="1">Reconstruction Error</text><path fill="none" stroke="rgb(0,0,0)" paint-order="fill" d="M 62.5 355.5 L 62.5 31.5" stroke-opacity="1" stroke-linejoin="bevel" stroke-miterlimit="10" stroke-dasharray=""/><path fill="none" stroke="rgb(0,0,0)" paint-order="fill" d="M 56.5 355.5 L 64.5 355.5 M 56.5 308.5 L 64.5 308.5 M 56.5 260.5 L 64.5 260.5 M 56.5 213.5 L 64.5 213.5 M 56.5 165.5 L 64.5 165.5 M 56.5 118.5 L 64.5 118.5 M 56.5 70.5 L 64.5 70.5" stroke-opacity="1" stroke-linejoin="bevel" stroke-miterlimit="10" stroke-dasharray=""/><path fill="none" stroke="rgb(0,0,0)" paint-order="fill" d="M 58.5 355.5 L 62.5 355.5 M 58.5 346.5 L 62.5 346.5 M 58.5 336.5 L 62.5 336.5 M 58.5 327.5 L 62.5 327.5 M 58.5 317.5 L 62.5 317.5 M 58.5 308.5 L 62.5 308.5 M 58.5 298.5 L 62.5 298.5 M 58.5 289.5 L 62.5 289.5 M 58.5 279.5 L 62.5 279.5 M 58.5 270.5 L 62.5 270.5 M 58.5 260.5 L 62.5 260.5 M 58.5 251.5 L 62.5 251.5 M 58.5 241.5 L 62.5 241.5 M 58.5 232.5 L 62.5 232.5 M 58.5 222.5 L 62.5 222.5 M 58.5 213.5 L 62.5 213.5 M 58.5 203.5 L 62.5 203.5 M 58.5 194.5 L 62.5 194.5 M 58.5 184.5 L 62.5 184.5 M 58.5 175.5 L 62.5 175.5 M 58.5 165.5 L 62.5 165.5 M 58.5 156.5 L 62.5 156.5 M 58.5 146.5 L 62.5 146.5 M 58.5 137.5 L 62.5 137.5 M 58.5 127.5 L 62.5 127.5 M 58.5 118.5 L 62.5 118.5 M 58.5 108.5 L 62.5 108.5 M 58.5 99.5 L 62.5 99.5 M 58.5 89.5 L 62.5 89.5 M 58.5 80.5 L 62.5 80.5 M 58.5 70.5 L 62.5 70.5 M 58.5 61.5 L 62.5 61.5 M 58.5 51.5 L 62.5 51.5 M 58.5 42.5 L 62.5 42.5 M 58.5 32.5 L 62.5 32.5" stroke-opacity="1" stroke-linejoin="bevel" stroke-miterlimit="10" stroke-dasharray=""/><text fill="rgb(68,68,68)" stroke="none" font-family="helvetica" font-size="11px" font-style="normal" font-weight="normal" text-decoration="normal" x="32.04999923706055" y="359.009521484375" text-anchor="start" dominant-baseline="alphabetic" transform="matrix(1, 0, 0, 1, 0.5, 0.5)" fill-opacity="1">0 %</text><text fill="rgb(68,68,68)" stroke="none" font-family="helvetica" font-size="11px" font-style="normal" font-weight="normal" text-decoration="normal" x="32.04999923706055" y="311.55938720703125" text-anchor="start" dominant-baseline="alphabetic" transform="matrix(1, 0, 0, 1, 0.5, 0.5)" fill-opacity="1">5 %</text><text fill="rgb(68,68,68)" stroke="none" font-family="helvetica" font-size="11px" font-style="normal" font-weight="normal" text-decoration="normal" x="25.933332443237305" y="264.1092529296875" text-anchor="start" dominant-baseline="alphabetic" transform="matrix(1, 0, 0, 1, 0.5, 0.5)" fill-opacity="1">10 %</text><text fill="rgb(68,68,68)" stroke="none" font-family="helvetica" font-size="11px" font-style="normal" font-weight="normal" text-decoration="normal" x="25.933332443237305" y="216.65911865234375" text-anchor="start" dominant-baseline="alphabetic" transform="matrix(1, 0, 0, 1, 0.5, 0.5)" fill-opacity="1">15 %</text><text fill="rgb(68,68,68)" stroke="none" font-family="helvetica" font-size="11px" font-style="normal" font-weight="normal" text-decoration="normal" x="25.933332443237305" y="169.208984375" text-anchor="start" dominant-baseline="alphabetic" transform="matrix(1, 0, 0, 1, 0.5, 0.5)" fill-opacity="1">20 %</text><text fill="rgb(68,68,68)" stroke="none" font-family="helvetica" font-size="11px" font-style="normal" font-weight="normal" text-decoration="normal" x="25.933332443237305" y="121.75885009765625" text-anchor="start" dominant-baseline="alphabetic" transform="matrix(1, 0, 0, 1, 0.5, 0.5)" fill-opacity="1">25 %</text><text fill="rgb(68,68,68)" stroke="none" font-family="helvetica" font-size="11px" font-style="normal" font-weight="normal" text-decoration="normal" x="25.933332443237305" y="74.3087158203125" text-anchor="start" dominant-baseline="alphabetic" transform="matrix(1, 0, 0, 1, 0.5, 0.5)" fill-opacity="1">30 %</text><text fill="rgb(68,68,68)" stroke="none" font-family="helvetica" font-size="13px" font-style="italic" font-weight="normal" text-decoration="normal" x="-12.783334732055664" y="190.12451171875" text-anchor="start" dominant-baseline="alphabetic" transform="matrix(6.123233995736766e-17, -1, 1, 6.123233995736766e-17, -174.5666675567627, 211.4333324432373)" fill-opacity="1"># Samples</text><path fill="rgb(255,255,255)" stroke="rgb(229,229,229)" paint-order="fill" d="M 431.9000015258789 41.5 L 560.5 41.5 L 560.5 104.5 L 431.9000015258789 104.5 L 431.9000015258789 41.5" fill-opacity="0.9490196078431372" clip-path="url(#IJKCFUyWvGbr)" stroke-opacity="0.5019607843137255" stroke-linejoin="bevel" stroke-miterlimit="10" stroke-dasharray=""/><text fill="rgb(68,68,68)" stroke="none" font-family="helvetica" font-size="8pt" font-style="normal" font-weight="normal" text-decoration="normal" x="466.4000015258789" y="61" text-anchor="start" dominant-baseline="central" transform="matrix(1, 0, 0, 1, 0.5, 0.5)" fill-opacity="1">Normal Signals</text><path fill="rgb(220,20,60)" stroke="none" paint-order="stroke" d="M 443.9000015258789 53.5 L 459.9000015258789 53.5 L 459.9000015258789 69.5 L 443.9000015258789 69.5 L 443.9000015258789 53.5" fill-opacity="0.4235294117647059" clip-path="url(#IJKCFUyWvGbr)"/><text fill="rgb(68,68,68)" stroke="none" font-family="helvetica" font-size="8pt" font-style="normal" font-weight="normal" text-decoration="normal" x="466.4000015258789" y="84" text-anchor="start" dominant-baseline="central" transform="matrix(1, 0, 0, 1, 0.5, 0.5)" fill-opacity="1">Abnormal Signals</text><path fill="rgb(75,0,130)" stroke="none" paint-order="stroke" d="M 443.9000015258789 76.5 L 459.9000015258789 76.5 L 459.9000015258789 92.5 L 443.9000015258789 92.5 L 443.9000015258789 76.5" fill-opacity="0.4823529411764706" clip-path="url(#IJKCFUyWvGbr)"/><path fill="none" stroke="none"/><text fill="rgb(68,68,68)" stroke="none" font-family="helvetica" font-size="12pt" font-style="normal" font-weight="bold" text-decoration="normal" x="0" y="0" text-anchor="middle" dominant-baseline="text-after-edge" transform="matrix(1, 0, 0, 1, 316.5, 26.5)" fill-opacity="1">AutoEncoder - Reconstruction Error Distribution</text></svg>