<svg version="1.1" xmlns="http://www.w3.org/2000/svg" xmlns:xlink="http://www.w3.org/1999/xlink" width="600" height="400"><defs><clipPath id="smHFylMlVVpp"><path fill="none" stroke="none" d="M 62.5 31.5 L 570.5 31.5 L 570.5 355.5 L 62.5 355.5 L 62.5 31.5"/></clipPath><clipPath id="qlZCIsLLXEiZ"><path fill="none" stroke="none" d="M 62.5 31.5 L 570.5 31.5 L 570.5 355.5 L 62.5 355.5 L 62.5 31.5"/></clipPath><clipPath id="AcmdOmiZZwBk"><path fill="none" stroke="none" d="M 62.5 31.5 L 570.5 31.5 L 570.5 355.5 L 62.5 355.5 L 62.5 31.5"/></clipPath><clipPath id="laZmIoWVDpBQ"><path fill="none" stroke="none" d="M 62.5 31.5 L 570.5 31.5 L 570.5 355.5 L 62.5 355.5 L 62.5 31.5"/></clipPath><clipPath id="DJOAEATpsiFO"><path fill="none" stroke="none" d="M 62.5 31.5 L 570.5 31.5 L 570.5 355.5 L 62.5 355.5 L 62.5 31.5"/></clipPath><clipPath id="sPwUdmoMfKVx"><path fill="none" stroke="none" d="M 62.5 31.5 L 570.5 31.5 L 570.5 355.5 L 62.5 355.5 L 62.5 31.5"/></clipPath><clipPath id="OhTilNaHvTeX"><path fill="none" stroke="none" d="M 62.5 31.5 L 570.5 31.5 L 570.5 355.5 L 62.5 355.5 L 62.5 31.5"/></clipPath><clipPath id="pxVlaGcXJPOa"><path fill="none" stroke="none" d="M 62.5 31.5 L 570.5 31.5 L 570.5 355.5 L 62.5 355.5 L 62.5 31.5"/></clipPath></defs><path fill="rgb(255,255,255)" stroke="none" paint-order="stroke" d="M 0.5 0.5 L 600.5 0.5 L 600.5 400.5 L 0.5 400.5 L 0.5 0.5" fill-opacity="1"/><rect fill="#FFFFFF" stroke="none" x="62" y="31" width="508" height="324" transform="matrix(1, 0, 0, 1, 0.5, 0.5)"/><path fill="rgb(255,255,255)" stroke="none" paint-order="stroke" d="M 62.5 31.5 L 570.5 31.5 L 570.5 355.5 L 62.5 355.5 L 62.5 31.5" fill-opacity="1"/><path fill="none" stroke="rgb(229,229,229)" paint-order="fill" d="M 62.5 31.5 L 570.5 31.5 L 570.5 355.5 L 62.5 355.5 L 62.5 31.5" stroke-opacity="1" stroke-linejoin="bevel" stroke-miterlimit="10" stroke-dasharray=""/><path fill="none" stroke="rgb(229,229,229)" paint-order="fill" d="M 85.5 355.5 L 85.5 31.5 M 177.5 355.5 L 177.5 31.5 M 270.5 355.5 L 270.5 31.5 M 362.5 355.5 L 362.5 31.5 M 455.5 355.5 L 455.5 31.5 M 547.5 355.5 L 547.5 31.5" stroke-opacity="1" stroke-linejoin="bevel" stroke-miterlimit="10" stroke-dasharray="" clip-path="url(#smHFylMlVVpp)"/><path fill="none" stroke="rgb(229,229,229)" paint-order="fill" d="M 62.5 340.5 L 570.5 340.5 M 62.5 290.5 L 570.5 290.5 M 62.5 240.5 L 570.5 240.5 M 62.5 190.5 L 570.5 190.5 M 62.5 140.5 L 570.5 140.5 M 62.5 89.5 L 570.5 89.5 M 62.5 39.5 L 570.5 39.5" stroke-opacity="1" stroke-linejoin="bevel" stroke-miterlimit="10" stroke-dasharray="" clip-path="url(#qlZCIsLLXEiZ)"/><path fill="none" stroke="none"/><path fill="none" stroke="rgb(220,20,60)" paint-order="fill" d="M 85.59091186523438 340.7727355957031 L 104.06363677978516 340.7727355957031 L 122.53636169433594 340.7727355957031 L 141.00909423828125 340.7727355957031 L 159.4818115234375 340.7727355957031 L 177.9545440673828 340.7727355957031 L 196.42727661132812 335.00225830078125 L 214.89999389648438 322.4577331542969 L 233.3727264404297 303.3900451660156 L 251.845458984375 282.31524658203125 L 270.31817626953125 259.735107421875 L 288.7909240722656 236.40228271484375 L 307.2636413574219 209.80787658691406 L 325.7363586425781 190.23841857910156 L 344.2090759277344 172.67608642578125 L 362.68182373046875 159.1280059814453 L 381.154541015625 146.08169555664062 L 399.62725830078125 134.2898406982422 L 418.1000061035156 119.73818969726562 L 436.5727233886719 103.68119812011719 L 455.0454406738281 89.88221740722656 L 473.5181884765625 76.08324432373047 L 491.99090576171875 65.29495239257812 L 510.463623046875 56.26289367675781 L 528.9363403320312 52.2486457824707 L 547.4091186523438 46.227272033691406" stroke-opacity="1" stroke-linejoin="bevel" stroke-miterlimit="10" stroke-dasharray="" clip-path="url(#AcmdOmiZZwBk)"/><path fill="none" stroke="none"/><path fill="rgb(255,255,255)" stroke="rgb(220,20,60)" paint-order="fill" d="M 87.59091186523438 340.7727355957031 A 2 2 0 1 1 87.59091086523446 340.77073559603645" fill-opacity="1" clip-path="url(#laZmIoWVDpBQ)" stroke-opacity="1" stroke-linejoin="bevel" stroke-miterlimit="10" stroke-dasharray=""/><path fill="rgb(255,255,255)" stroke="rgb(220,20,60)" paint-order="fill" d="M 106.06363677978516 340.7727355957031 A 2 2 0 1 1 106.06363577978524 340.77073559603645" fill-opacity="1" clip-path="url(#laZmIoWVDpBQ)" stroke-opacity="1" stroke-linejoin="bevel" stroke-miterlimit="10" stroke-dasharray=""/><path fill="rgb(255,255,255)" stroke="rgb(220,20,60)" paint-order="fill" d="M 124.53636169433594 340.7727355957031 A 2 2 0 1 1 124.53636069433603 340.77073559603645" fill-opacity="1" clip-path="url(#laZmIoWVDpBQ)" stroke-opacity="1" stroke-linejoin="bevel" stroke-miterlimit="10" stroke-dasharray=""/><path fill="rgb(255,255,255)" stroke="rgb(220,20,60)" paint-order="fill" d="M 143.00909423828125 340.7727355957031 A 2 2 0 1 1 143.00909323828134 340.77073559603645" fill-opacity="1" clip-path="url(#laZmIoWVDpBQ)" stroke-opacity="1" stroke-linejoin="bevel" stroke-miterlimit="10" stroke-dasharray=""/><path fill="rgb(255,255,255)" stroke="rgb(220,20,60)" paint-order="fill" d="M 161.4818115234375 340.7727355957031 A 2 2 0 1 1 161.4818105234376 340.77073559603645" fill-opacity="1" clip-path="url(#laZmIoWVDpBQ)" stroke-opacity="1" stroke-linejoin="bevel" stroke-miterlimit="10" stroke-dasharray=""/><path fill="rgb(255,255,255)" stroke="rgb(220,20,60)" paint-order="fill" d="M 179.9545440673828 340.7727355957031 A 2 2 0 1 1 179.9545430673829 340.77073559603645" fill-opacity="1" clip-path="url(#laZmIoWVDpBQ)" stroke-opacity="1" stroke-linejoin="bevel" stroke-miterlimit="10" stroke-dasharray=""/><path fill="rgb(255,255,255)" stroke="rgb(220,20,60)" paint-order="fill" d="M 198.42727661132812 335.00225830078125 A 2 2 0 1 1 198.4272756113282 335.00025830111457" fill-opacity="1" clip-path="url(#laZmIoWVDpBQ)" stroke-opacity="1" stroke-linejoin="bevel" stroke-miterlimit="10" stroke-dasharray=""/><path fill="rgb(255,255,255)" stroke="rgb(220,20,60)" paint-order="fill" d="M 216.89999389648438 322.4577331542969 A 2 2 0 1 1 216.89999289648446 322.4557331546302" fill-opacity="1" clip-path="url(#laZmIoWVDpBQ)" stroke-opacity="1" stroke-linejoin="bevel" stroke-miterlimit="10" stroke-dasharray=""/><path fill="rgb(255,255,255)" stroke="rgb(220,20,60)" paint-order="fill" d="M 235.3727264404297 303.3900451660156 A 2 2 0 1 1 235.37272544042978 303.38804516634895" fill-opacity="1" clip-path="url(#laZmIoWVDpBQ)" stroke-opacity="1" stroke-linejoin="bevel" stroke-miterlimit="10" stroke-dasharray=""/><path fill="rgb(255,255,255)" stroke="rgb(220,20,60)" paint-order="fill" d="M 253.845458984375 282.31524658203125 A 2 2 0 1 1 253.8454579843751 282.31324658236457" fill-opacity="1" clip-path="url(#laZmIoWVDpBQ)" stroke-opacity="1" stroke-linejoin="bevel" stroke-miterlimit="10" stroke-dasharray=""/><path fill="rgb(255,255,255)" stroke="rgb(220,20,60)" paint-order="fill" d="M 272.31817626953125 259.735107421875 A 2 2 0 1 1 272.3181752695313 259.7331074222083" fill-opacity="1" clip-path="url(#laZmIoWVDpBQ)" stroke-opacity="1" stroke-linejoin="bevel" stroke-miterlimit="10" stroke-dasharray=""/><path fill="rgb(255,255,255)" stroke="rgb(220,20,60)" paint-order="fill" d="M 290.7909240722656 236.40228271484375 A 2 2 0 1 1 290.7909230722657 236.40028271517707" fill-opacity="1" clip-path="url(#laZmIoWVDpBQ)" stroke-opacity="1" stroke-linejoin="bevel" stroke-miterlimit="10" stroke-dasharray=""/><path fill="rgb(255,255,255)" stroke="rgb(220,20,60)" paint-order="fill" d="M 309.2636413574219 209.80787658691406 A 2 2 0 1 1 309.26364035742193 209.80587658724738" fill-opacity="1" clip-path="url(#laZmIoWVDpBQ)" stroke-opacity="1" stroke-linejoin="bevel" stroke-miterlimit="10" stroke-dasharray=""/><path fill="rgb(255,255,255)" stroke="rgb(220,20,60)" paint-order="fill" d="M 327.7363586425781 190.23841857910156 A 2 2 0 1 1 327.7363576425782 190.23641857943488" fill-opacity="1" clip-path="url(#laZmIoWVDpBQ)" stroke-opacity="1" stroke-linejoin="bevel" stroke-miterlimit="10" stroke-dasharray=""/><path fill="rgb(255,255,255)" stroke="rgb(220,20,60)" paint-order="fill" d="M 346.2090759277344 172.67608642578125 A 2 2 0 1 1 346.20907492773443 172.67408642611457" fill-opacity="1" clip-path="url(#laZmIoWVDpBQ)" stroke-opacity="1" stroke-linejoin="bevel" stroke-miterlimit="10" stroke-dasharray=""/><path fill="rgb(255,255,255)" stroke="rgb(220,20,60)" paint-order="fill" d="M 364.68182373046875 159.1280059814453 A 2 2 0 1 1 364.6818227304688 159.12600598177863" fill-opacity="1" clip-path="url(#laZmIoWVDpBQ)" stroke-opacity="1" stroke-linejoin="bevel" stroke-miterlimit="10" stroke-dasharray=""/><path fill="rgb(255,255,255)" stroke="rgb(220,20,60)" paint-order="fill" d="M 383.154541015625 146.08169555664062 A 2 2 0 1 1 383.15454001562506 146.07969555697395" fill-opacity="1" clip-path="url(#laZmIoWVDpBQ)" stroke-opacity="1" stroke-linejoin="bevel" stroke-miterlimit="10" stroke-dasharray=""/><path fill="rgb(255,255,255)" stroke="rgb(220,20,60)" paint-order="fill" d="M 401.62725830078125 134.2898406982422 A 2 2 0 1 1 401.6272573007813 134.2878406985755" fill-opacity="1" clip-path="url(#laZmIoWVDpBQ)" stroke-opacity="1" stroke-linejoin="bevel" stroke-miterlimit="10" stroke-dasharray=""/><path fill="rgb(255,255,255)" stroke="rgb(220,20,60)" paint-order="fill" d="M 420.1000061035156 119.73818969726562 A 2 2 0 1 1 420.1000051035157 119.73618969759896" fill-opacity="1" clip-path="url(#laZmIoWVDpBQ)" stroke-opacity="1" stroke-linejoin="bevel" stroke-miterlimit="10" stroke-dasharray=""/><path fill="rgb(255,255,255)" stroke="rgb(220,20,60)" paint-order="fill" d="M 438.5727233886719 103.68119812011719 A 2 2 0 1 1 438.57272238867193 103.67919812045052" fill-opacity="1" clip-path="url(#laZmIoWVDpBQ)" stroke-opacity="1" stroke-linejoin="bevel" stroke-miterlimit="10" stroke-dasharray=""/><path fill="rgb(255,255,255)" stroke="rgb(220,20,60)" paint-order="fill" d="M 457.0454406738281 89.88221740722656 A 2 2 0 1 1 457.0454396738282 89.8802174075599" fill-opacity="1" clip-path="url(#laZmIoWVDpBQ)" stroke-opacity="1" stroke-linejoin="bevel" stroke-miterlimit="10" stroke-dasharray=""/><path fill="rgb(255,255,255)" stroke="rgb(220,20,60)" paint-order="fill" d="M 475.5181884765625 76.08324432373047 A 2 2 0 1 1 475.51818747656256 76.0812443240638" fill-opacity="1" clip-path="url(#laZmIoWVDpBQ)" stroke-opacity="1" stroke-linejoin="bevel" stroke-miterlimit="10" stroke-dasharray=""/><path fill="rgb(255,255,255)" stroke="rgb(220,20,60)" paint-order="fill" d="M 493.99090576171875 65.29495239257812 A 2 2 0 1 1 493.9909047617188 65.29295239291146" fill-opacity="1" clip-path="url(#laZmIoWVDpBQ)" stroke-opacity="1" stroke-linejoin="bevel" stroke-miterlimit="10" stroke-dasharray=""/><path fill="rgb(255,255,255)" stroke="rgb(220,20,60)" paint-order="fill" d="M 512.463623046875 56.26289367675781 A 2 2 0 1 1 512.4636220468751 56.26089367709115" fill-opacity="1" clip-path="url(#laZmIoWVDpBQ)" stroke-opacity="1" stroke-linejoin="bevel" stroke-miterlimit="10" stroke-dasharray=""/><path fill="rgb(255,255,255)" stroke="rgb(220,20,60)" paint-order="fill" d="M 530.9363403320312 52.2486457824707 A 2 2 0 1 1 530.9363393320314 52.24664578280404" fill-opacity="1" clip-path="url(#laZmIoWVDpBQ)" stroke-opacity="1" stroke-linejoin="bevel" stroke-miterlimit="10" stroke-dasharray=""/><path fill="rgb(255,255,255)" stroke="rgb(220,20,60)" paint-order="fill" d="M 549.4091186523438 46.227272033691406 A 2 2 0 1 1 549.4091176523439 46.22527203402474" fill-opacity="1" clip-path="url(#laZmIoWVDpBQ)" stroke-opacity="1" stroke-linejoin="bevel" stroke-miterlimit="10" stroke-dasharray=""/><path fill="none" stroke="none"/><path fill="none" stroke="rgb(75,0,130)" paint-order="fill" d="M 85.59091186523438 136.29696655273438 L 104.06363677978516 136.29696655273438 L 122.53636169433594 146.83436584472656 L 141.00909423828125 156.6190948486328 L 159.4818115234375 204.2882843017578 L 177.9545440673828 233.39158630371094 L 196.42727661132812 268.01446533203125 L 214.89999389648438 292.8526306152344 L 233.3727264404297 310.1640930175781 L 251.845458984375 317.6907958984375 L 270.31817626953125 321.7050476074219 L 288.7909240722656 324.96661376953125 L 307.2636413574219 327.7264099121094 L 325.7363586425781 330.73712158203125 L 344.2090759277344 332.2424621582031 L 362.68182373046875 333.747802734375 L 381.154541015625 335.00225830078125 L 399.62725830078125 335.7549133300781 L 418.1000061035156 337.0093688964844 L 436.5727233886719 337.26025390625 L 455.0454406738281 338.51470947265625 L 473.5181884765625 338.51470947265625 L 491.99090576171875 338.7655944824219 L 510.463623046875 338.7655944824219 L 528.9363403320312 339.0164794921875 L 547.4091186523438 339.5182800292969" stroke-opacity="1" stroke-linejoin="bevel" stroke-miterlimit="10" stroke-dasharray="" clip-path="url(#DJOAEATpsiFO)"/><path fill="none" stroke="none"/><path fill="rgb(255,255,255)" stroke="rgb(75,0,130)" paint-order="fill" d="M 87.59091186523438 136.29696655273438 A 2 2 0 1 1 87.59091086523446 136.2949665530677" fill-opacity="1" clip-path="url(#sPwUdmoMfKVx)" stroke-opacity="1" stroke-linejoin="bevel" stroke-miterlimit="10" stroke-dasharray=""/><path fill="rgb(255,255,255)" stroke="rgb(75,0,130)" paint-order="fill" d="M 106.06363677978516 136.29696655273438 A 2 2 0 1 1 106.06363577978524 136.2949665530677" fill-opacity="1" clip-path="url(#sPwUdmoMfKVx)" stroke-opacity="1" stroke-linejoin="bevel" stroke-miterlimit="10" stroke-dasharray=""/><path fill="rgb(255,255,255)" stroke="rgb(75,0,130)" paint-order="fill" d="M 124.53636169433594 146.83436584472656 A 2 2 0 1 1 124.53636069433603 146.83236584505988" fill-opacity="1" clip-path="url(#sPwUdmoMfKVx)" stroke-opacity="1" stroke-linejoin="bevel" stroke-miterlimit="10" stroke-dasharray=""/><path fill="rgb(255,255,255)" stroke="rgb(75,0,130)" paint-order="fill" d="M 143.00909423828125 156.6190948486328 A 2 2 0 1 1 143.00909323828134 156.61709484896613" fill-opacity="1" clip-path="url(#sPwUdmoMfKVx)" stroke-opacity="1" stroke-linejoin="bevel" stroke-miterlimit="10" stroke-dasharray=""/><path fill="rgb(255,255,255)" stroke="rgb(75,0,130)" paint-order="fill" d="M 161.4818115234375 204.2882843017578 A 2 2 0 1 1 161.4818105234376 204.28628430209113" fill-opacity="1" clip-path="url(#sPwUdmoMfKVx)" stroke-opacity="1" stroke-linejoin="bevel" stroke-miterlimit="10" stroke-dasharray=""/><path fill="rgb(255,255,255)" stroke="rgb(75,0,130)" paint-order="fill" d="M 179.9545440673828 233.39158630371094 A 2 2 0 1 1 179.9545430673829 233.38958630404426" fill-opacity="1" clip-path="url(#sPwUdmoMfKVx)" stroke-opacity="1" stroke-linejoin="bevel" stroke-miterlimit="10" stroke-dasharray=""/><path fill="rgb(255,255,255)" stroke="rgb(75,0,130)" paint-order="fill" d="M 198.42727661132812 268.01446533203125 A 2 2 0 1 1 198.4272756113282 268.01246533236457" fill-opacity="1" clip-path="url(#sPwUdmoMfKVx)" stroke-opacity="1" stroke-linejoin="bevel" stroke-miterlimit="10" stroke-dasharray=""/><path fill="rgb(255,255,255)" stroke="rgb(75,0,130)" paint-order="fill" d="M 216.89999389648438 292.8526306152344 A 2 2 0 1 1 216.89999289648446 292.8506306155677" fill-opacity="1" clip-path="url(#sPwUdmoMfKVx)" stroke-opacity="1" stroke-linejoin="bevel" stroke-miterlimit="10" stroke-dasharray=""/><path fill="rgb(255,255,255)" stroke="rgb(75,0,130)" paint-order="fill" d="M 235.3727264404297 310.1640930175781 A 2 2 0 1 1 235.37272544042978 310.16209301791145" fill-opacity="1" clip-path="url(#sPwUdmoMfKVx)" stroke-opacity="1" stroke-linejoin="bevel" stroke-miterlimit="10" stroke-dasharray=""/><path fill="rgb(255,255,255)" stroke="rgb(75,0,130)" paint-order="fill" d="M 253.845458984375 317.6907958984375 A 2 2 0 1 1 253.8454579843751 317.6887958987708" fill-opacity="1" clip-path="url(#sPwUdmoMfKVx)" stroke-opacity="1" stroke-linejoin="bevel" stroke-miterlimit="10" stroke-dasharray=""/><path fill="rgb(255,255,255)" stroke="rgb(75,0,130)" paint-order="fill" d="M 272.31817626953125 321.7050476074219 A 2 2 0 1 1 272.3181752695313 321.7030476077552" fill-opacity="1" clip-path="url(#sPwUdmoMfKVx)" stroke-opacity="1" stroke-linejoin="bevel" stroke-miterlimit="10" stroke-dasharray=""/><path fill="rgb(255,255,255)" stroke="rgb(75,0,130)" paint-order="fill" d="M 290.7909240722656 324.96661376953125 A 2 2 0 1 1 290.7909230722657 324.96461376986457" fill-opacity="1" clip-path="url(#sPwUdmoMfKVx)" stroke-opacity="1" stroke-linejoin="bevel" stroke-miterlimit="10" stroke-dasharray=""/><path fill="rgb(255,255,255)" stroke="rgb(75,0,130)" paint-order="fill" d="M 309.2636413574219 327.7264099121094 A 2 2 0 1 1 309.26364035742193 327.7244099124427" fill-opacity="1" clip-path="url(#sPwUdmoMfKVx)" stroke-opacity="1" stroke-linejoin="bevel" stroke-miterlimit="10" stroke-dasharray=""/><path fill="rgb(255,255,255)" stroke="rgb(75,0,130)" paint-order="fill" d="M 327.7363586425781 330.73712158203125 A 2 2 0 1 1 327.7363576425782 330.73512158236457" fill-opacity="1" clip-path="url(#sPwUdmoMfKVx)" stroke-opacity="1" stroke-linejoin="bevel" stroke-miterlimit="10" stroke-dasharray=""/><path fill="rgb(255,255,255)" stroke="rgb(75,0,130)" paint-order="fill" d="M 346.2090759277344 332.2424621582031 A 2 2 0 1 1 346.20907492773443 332.24046215853645" fill-opacity="1" clip-path="url(#sPwUdmoMfKVx)" stroke-opacity="1" stroke-linejoin="bevel" stroke-miterlimit="10" stroke-dasharray=""/><path fill="rgb(255,255,255)" stroke="rgb(75,0,130)" paint-order="fill" d="M 364.68182373046875 333.747802734375 A 2 2 0 1 1 364.6818227304688 333.7458027347083" fill-opacity="1" clip-path="url(#sPwUdmoMfKVx)" stroke-opacity="1" stroke-linejoin="bevel" stroke-miterlimit="10" stroke-dasharray=""/><path fill="rgb(255,255,255)" stroke="rgb(75,0,130)" paint-order="fill" d="M 383.154541015625 335.00225830078125 A 2 2 0 1 1 383.15454001562506 335.00025830111457" fill-opacity="1" clip-path="url(#sPwUdmoMfKVx)" stroke-opacity="1" stroke-linejoin="bevel" stroke-miterlimit="10" stroke-dasharray=""/><path fill="rgb(255,255,255)" stroke="rgb(75,0,130)" paint-order="fill" d="M 401.62725830078125 335.7549133300781 A 2 2 0 1 1 401.6272573007813 335.75291333041145" fill-opacity="1" clip-path="url(#sPwUdmoMfKVx)" stroke-opacity="1" stroke-linejoin="bevel" stroke-miterlimit="10" stroke-dasharray=""/><path fill="rgb(255,255,255)" stroke="rgb(75,0,130)" paint-order="fill" d="M 420.1000061035156 337.0093688964844 A 2 2 0 1 1 420.1000051035157 337.0073688968177" fill-opacity="1" clip-path="url(#sPwUdmoMfKVx)" stroke-opacity="1" stroke-linejoin="bevel" stroke-miterlimit="10" stroke-dasharray=""/><path fill="rgb(255,255,255)" stroke="rgb(75,0,130)" paint-order="fill" d="M 438.5727233886719 337.26025390625 A 2 2 0 1 1 438.57272238867193 337.2582539065833" fill-opacity="1" clip-path="url(#sPwUdmoMfKVx)" stroke-opacity="1" stroke-linejoin="bevel" stroke-miterlimit="10" stroke-dasharray=""/><path fill="rgb(255,255,255)" stroke="rgb(75,0,130)" paint-order="fill" d="M 457.0454406738281 338.51470947265625 A 2 2 0 1 1 457.0454396738282 338.51270947298957" fill-opacity="1" clip-path="url(#sPwUdmoMfKVx)" stroke-opacity="1" stroke-linejoin="bevel" stroke-miterlimit="10" stroke-dasharray=""/><path fill="rgb(255,255,255)" stroke="rgb(75,0,130)" paint-order="fill" d="M 475.5181884765625 338.51470947265625 A 2 2 0 1 1 475.51818747656256 338.51270947298957" fill-opacity="1" clip-path="url(#sPwUdmoMfKVx)" stroke-opacity="1" stroke-linejoin="bevel" stroke-miterlimit="10" stroke-dasharray=""/><path fill="rgb(255,255,255)" stroke="rgb(75,0,130)" paint-order="fill" d="M 493.99090576171875 338.7655944824219 A 2 2 0 1 1 493.9909047617188 338.7635944827552" fill-opacity="1" clip-path="url(#sPwUdmoMfKVx)" stroke-opacity="1" stroke-linejoin="bevel" stroke-miterlimit="10" stroke-dasharray=""/><path fill="rgb(255,255,255)" stroke="rgb(75,0,130)" paint-order="fill" d="M 512.463623046875 338.7655944824219 A 2 2 0 1 1 512.4636220468751 338.7635944827552" fill-opacity="1" clip-path="url(#sPwUdmoMfKVx)" stroke-opacity="1" stroke-linejoin="bevel" stroke-miterlimit="10" stroke-dasharray=""/><path fill="rgb(255,255,255)" stroke="rgb(75,0,130)" paint-order="fill" d="M 530.9363403320312 339.0164794921875 A 2 2 0 1 1 530.9363393320314 339.0144794925208" fill-opacity="1" clip-path="url(#sPwUdmoMfKVx)" stroke-opacity="1" stroke-linejoin="bevel" stroke-miterlimit="10" stroke-dasharray=""/><path fill="rgb(255,255,255)" stroke="rgb(75,0,130)" paint-order="fill" d="M 549.4091186523438 339.5182800292969 A 2 2 0 1 1 549.4091176523439 339.5162800296302" fill-opacity="1" clip-path="url(#sPwUdmoMfKVx)" stroke-opacity="1" stroke-linejoin="bevel" stroke-miterlimit="10" stroke-dasharray=""/><path fill="none" stroke="rgb(0,0,0)" paint-order="fill" d="M 62.5 355.5 L 570.5 355.5" stroke-opacity="1" stroke-linejoin="bevel" stroke-miterlimit="10" stroke-dasharray=""/><path fill="none" stroke="rgb(0,0,0)" paint-order="fill" d="M 85.5 361.5 L 85.5 353.5 M 177.5 361.5 L 177.5 353.5 M 270.5 361.5 L 270.5 353.5 M 362.5 361.5 L 362.5 353.5 M 455.5 361.5 L 455.5 353.5 M 547.5 361.5 L 547.5 353.5" stroke-opacity="1" stroke-linejoin="bevel" stroke-miterlimit="10" stroke-dasharray=""/><path fill="none" stroke="rgb(0,0,0)" paint-order="fill" d="M 67.5 359.5 L 67.5 355.5 M 85.5 359.5 L 85.5 355.5 M 104.5 359.5 L 104.5 355.5 M 122.5 359.5 L 122.5 355.5 M 141.5 359.5 L 141.5 355.5 M 159.5 359.5 L 159.5 355.5 M 177.5 359.5 L 177.5 355.5 M 196.5 359.5 L 196.5 355.5 M 214.5 359.5 L 214.5 355.5 M 233.5 359.5 L 233.5 355.5 M 251.5 359.5 L 251.5 355.5 M 270.5 359.5 L 270.5 355.5 M 288.5 359.5 L 288.5 355.5 M 307.5 359.5 L 307.5 355.5 M 325.5 359.5 L 325.5 355.5 M 344.5 359.5 L 344.5 355.5 M 362.5 359.5 L 362.5 355.5 M 381.5 359.5 L 381.5 355.5 M 399.5 359.5 L 399.5 355.5 M 418.5 359.5 L 418.5 355.5 M 436.5 359.5 L 436.5 355.5 M 455.5 359.5 L 455.5 355.5 M 473.5 359.5 L 473.5 355.5 M 491.5 359.5 L 491.5 355.5 M 510.5 359.5 L 510.5 355.5 M 528.5 359.5 L 528.5 355.5 M 547.5 359.5 L 547.5 355.5 M 565.5 359.5 L 565.5 355.5" stroke-opacity="1" stroke-linejoin="bevel" stroke-miterlimit="10" stroke-dasharray=""/><text fill="rgb(68,68,68)" stroke="none" font-family="helvetica" font-size="11px" font-style="normal" font-weight="normal" text-decoration="normal" x="82.03257846832275" y="373.89013671875" text-anchor="start" dominant-baseline="alphabetic" transform="matrix(1, 0, 0, 1, 0.5, 0.5)" fill-opacity="1">2</text><text fill="rgb(68,68,68)" stroke="none" font-family="helvetica" font-size="11px" font-style="normal" font-weight="normal" text-decoration="normal" x="174.3962106704712" y="373.89013671875" text-anchor="start" dominant-baseline="alphabetic" transform="matrix(1, 0, 0, 1, 0.5, 0.5)" fill-opacity="1">3</text><text fill="rgb(68,68,68)" stroke="none" font-family="helvetica" font-size="11px" font-style="normal" font-weight="normal" text-decoration="normal" x="266.75984287261963" y="373.89013671875" text-anchor="start" dominant-baseline="alphabetic" transform="matrix(1, 0, 0, 1, 0.5, 0.5)" fill-opacity="1">4</text><text fill="rgb(68,68,68)" stroke="none" font-family="helvetica" font-size="11px" font-style="normal" font-weight="normal" text-decoration="normal" x="359.12349033355713" y="373.89013671875" text-anchor="start" dominant-baseline="alphabetic" transform="matrix(1, 0, 0, 1, 0.5, 0.5)" fill-opacity="1">5</text><text fill="rgb(68,68,68)" stroke="none" font-family="helvetica" font-size="11px" font-style="normal" font-weight="normal" text-decoration="normal" x="451.4871072769165" y="373.89013671875" text-anchor="start" dominant-baseline="alphabetic" transform="matrix(1, 0, 0, 1, 0.5, 0.5)" fill-opacity="1">6</text><text fill="rgb(68,68,68)" stroke="none" font-family="helvetica" font-size="11px" font-style="normal" font-weight="normal" text-decoration="normal" x="543.8507852554321" y="373.89013671875" text-anchor="start" dominant-baseline="alphabetic" transform="matrix(1, 0, 0, 1, 0.5, 0.5)" fill-opacity="1">7</text><text fill="rgb(68,68,68)" stroke="none" font-family="helvetica" font-size="13px" font-style="italic" font-weight="normal" text-decoration="normal" x="213.73332977294922" y="394.35693359375" text-anchor="start" dominant-baseline="alphabetic" transform="matrix(1, 0, 0, 1, 0.5, 0.5)" fill-opacity="1">Reconstruction Error Threshold (%)</text><path fill="none" stroke="rgb(0,0,0)" paint-order="fill" d="M 62.5 355.5 L 62.5 31.5" stroke-opacity="1" stroke-linejoin="bevel" stroke-miterlimit="10" stroke-dasharray=""/><path fill="none" stroke="rgb(0,0,0)" paint-order="fill" d="M 56.5 340.5 L 64.5 340.5 M 56.5 290.5 L 64.5 290.5 M 56.5 240.5 L 64.5 240.5 M 56.5 190.5 L 64.5 190.5 M 56.5 140.5 L 64.5 140.5 M 56.5 89.5 L 64.5 89.5 M 56.5 39.5 L 64.5 39.5" stroke-opacity="1" stroke-linejoin="bevel" stroke-miterlimit="10" stroke-dasharray=""/><path fill="none" stroke="rgb(0,0,0)" paint-order="fill" d="M 58.5 350.5 L 62.5 350.5 M 58.5 340.5 L 62.5 340.5 M 58.5 330.5 L 62.5 330.5 M 58.5 320.5 L 62.5 320.5 M 58.5 310.5 L 62.5 310.5 M 58.5 300.5 L 62.5 300.5 M 58.5 290.5 L 62.5 290.5 M 58.5 280.5 L 62.5 280.5 M 58.5 270.5 L 62.5 270.5 M 58.5 260.5 L 62.5 260.5 M 58.5 250.5 L 62.5 250.5 M 58.5 240.5 L 62.5 240.5 M 58.5 230.5 L 62.5 230.5 M 58.5 220.5 L 62.5 220.5 M 58.5 210.5 L 62.5 210.5 M 58.5 200.5 L 62.5 200.5 M 58.5 190.5 L 62.5 190.5 M 58.5 180.5 L 62.5 180.5 M 58.5 170.5 L 62.5 170.5 M 58.5 160.5 L 62.5 160.5 M 58.5 150.5 L 62.5 150.5 M 58.5 140.5 L 62.5 140.5 M 58.5 130.5 L 62.5 130.5 M 58.5 119.5 L 62.5 119.5 M 58.5 109.5 L 62.5 109.5 M 58.5 99.5 L 62.5 99.5 M 58.5 89.5 L 62.5 89.5 M 58.5 79.5 L 62.5 79.5 M 58.5 69.5 L 62.5 69.5 M 58.5 59.5 L 62.5 59.5 M 58.5 49.5 L 62.5 49.5 M 58.5 39.5 L 62.5 39.5" stroke-opacity="1" stroke-linejoin="bevel" stroke-miterlimit="10" stroke-dasharray=""/><text fill="rgb(68,68,68)" stroke="none" font-family="helvetica" font-size="11px" font-style="normal" font-weight="normal" text-decoration="normal" x="44.88333320617676" y="344.2178039550781" text-anchor="start" dominant-baseline="alphabetic" transform="matrix(1, 0, 0, 1, 0.5, 0.5)" fill-opacity="1">0</text><text fill="rgb(68,68,68)" stroke="none" font-family="helvetica" font-size="11px" font-style="normal" font-weight="normal" text-decoration="normal" x="32.64999961853027" y="294.0397033691406" text-anchor="start" dominant-baseline="alphabetic" transform="matrix(1, 0, 0, 1, 0.5, 0.5)" fill-opacity="1">200</text><text fill="rgb(68,68,68)" stroke="none" font-family="helvetica" font-size="11px" font-style="normal" font-weight="normal" text-decoration="normal" x="32.64999961853027" y="243.86158752441406" text-anchor="start" dominant-baseline="alphabetic" transform="matrix(1, 0, 0, 1, 0.5, 0.5)" fill-opacity="1">400</text><text fill="rgb(68,68,68)" stroke="none" font-family="helvetica" font-size="11px" font-style="normal" font-weight="normal" text-decoration="normal" x="32.64999961853027" y="193.68348693847656" text-anchor="start" dominant-baseline="alphabetic" transform="matrix(1, 0, 0, 1, 0.5, 0.5)" fill-opacity="1">600</text><text fill="rgb(68,68,68)" stroke="none" font-family="helvetica" font-size="11px" font-style="normal" font-weight="normal" text-decoration="normal" x="32.64999961853027" y="143.50538635253906" text-anchor="start" dominant-baseline="alphabetic" transform="matrix(1, 0, 0, 1, 0.5, 0.5)" fill-opacity="1">800</text><text fill="rgb(68,68,68)" stroke="none" font-family="helvetica" font-size="11px" font-style="normal" font-weight="normal" text-decoration="normal" x="26.53333282470703" y="93.32728576660156" text-anchor="start" dominant-baseline="alphabetic" transform="matrix(1, 0, 0, 1, 0.5, 0.5)" fill-opacity="1">1000</text><text fill="rgb(68,68,68)" stroke="none" font-family="helvetica" font-size="11px" font-style="normal" font-weight="normal" text-decoration="normal" x="26.53333282470703" y="43.14918899536133" text-anchor="start" dominant-baseline="alphabetic" transform="matrix(1, 0, 0, 1, 0.5, 0.5)" fill-opacity="1">1200</text><text fill="rgb(68,68,68)" stroke="none" font-family="helvetica" font-size="13px" font-style="italic" font-weight="normal" text-decoration="normal" x="-12.183334350585938" y="190.12451171875" text-anchor="start" dominant-baseline="alphabetic" transform="matrix(6.123233995736766e-17, -1, 1, 6.123233995736766e-17, -173.96666717529297, 212.03333282470703)" fill-opacity="1"># Samples</text><path fill="rgb(255,255,255)" stroke="rgb(229,229,229)" paint-order="fill" d="M 72.5 41.5 L 188.6500015258789 41.5 L 188.6500015258789 104.5 L 72.5 104.5 L 72.5 41.5" fill-opacity="0.9490196078431372" clip-path="url(#OhTilNaHvTeX)" stroke-opacity="0.5019607843137255" stroke-linejoin="bevel" stroke-miterlimit="10" stroke-dasharray=""/><text fill="rgb(68,68,68)" stroke="none" font-family="helvetica" font-size="8pt" font-style="normal" font-weight="normal" text-decoration="normal" x="107" y="61" text-anchor="start" dominant-baseline="central" transform="matrix(1, 0, 0, 1, 0.5, 0.5)" fill-opacity="1">False Negative</text><path fill="none" stroke="rgb(220,20,60)" paint-order="fill" d="M 82.5 61.5 L 102.5 61.5" stroke-opacity="1" stroke-linejoin="bevel" stroke-miterlimit="10" stroke-dasharray="" clip-path="url(#OhTilNaHvTeX)"/><text fill="rgb(68,68,68)" stroke="none" font-family="helvetica" font-size="8pt" font-style="normal" font-weight="normal" text-decoration="normal" x="107" y="84" text-anchor="start" dominant-baseline="central" transform="matrix(1, 0, 0, 1, 0.5, 0.5)" fill-opacity="1">False Positive</text><path fill="none" stroke="rgb(75,0,130)" paint-order="fill" d="M 82.5 84.5 L 102.5 84.5" stroke-opacity="1" stroke-linejoin="bevel" stroke-miterlimit="10" stroke-dasharray="" clip-path="url(#OhTilNaHvTeX)"/><path fill="none" stroke="none"/><text fill="rgb(68,68,68)" stroke="none" font-family="helvetica" font-size="12pt" font-style="normal" font-weight="bold" text-decoration="normal" x="0" y="0" text-anchor="middle" dominant-baseline="text-after-edge" transform="matrix(1, 0, 0, 1, 316.5, 26.5)" fill-opacity="1">AutoEncoder: Best Threshold Exploration</text></svg>