<svg version="1.1" xmlns="http://www.w3.org/2000/svg" xmlns:xlink="http://www.w3.org/1999/xlink" width="600" height="400"><defs><clipPath id="zThyeIPkgDGF"><path fill="none" stroke="none" d="M 62.5 31.5 L 570.5 31.5 L 570.5 355.5 L 62.5 355.5 L 62.5 31.5"/></clipPath><clipPath id="ThHSgZOxSEhP"><path fill="none" stroke="none" d="M 62.5 31.5 L 570.5 31.5 L 570.5 355.5 L 62.5 355.5 L 62.5 31.5"/></clipPath><clipPath id="XfkDHMQVwETl"><path fill="none" stroke="none" d="M 62.5 31.5 L 570.5 31.5 L 570.5 355.5 L 62.5 355.5 L 62.5 31.5"/></clipPath><clipPath id="nvcomaxvNTeG"><path fill="none" stroke="none" d="M 62.5 31.5 L 570.5 31.5 L 570.5 355.5 L 62.5 355.5 L 62.5 31.5"/></clipPath><clipPath id="tbxpOBaXnSwp"><path fill="none" stroke="none" d="M 62.5 31.5 L 570.5 31.5 L 570.5 355.5 L 62.5 355.5 L 62.5 31.5"/></clipPath><clipPath id="EcSuRraHZrUq"><path fill="none" stroke="none" d="M 62.5 31.5 L 570.5 31.5 L 570.5 355.5 L 62.5 355.5 L 62.5 31.5"/></clipPath><clipPath id="XhrfILIaJwza"><path fill="none" stroke="none" d="M 62.5 31.5 L 570.5 31.5 L 570.5 355.5 L 62.5 355.5 L 62.5 31.5"/></clipPath><clipPath id="qeETwVasBNbb"><path fill="none" stroke="none" d="M 62.5 31.5 L 570.5 31.5 L 570.5 355.5 L 62.5 355.5 L 62.5 31.5"/></clipPath></defs><path fill="rgb(255,255,255)" stroke="none" paint-order="stroke" d="M 0.5 0.5 L 600.5 0.5 L 600.5 400.5 L 0.5 400.5 L 0.5 0.5" fill-opacity="1"/><rect fill="#FFFFFF" stroke="none" x="62" y="31" width="508" height="324" transform="matrix(1, 0, 0, 1, 0.5, 0.5)"/><path fill="rgb(255,255,255)" stroke="none" paint-order="stroke" d="M 62.5 31.5 L 570.5 31.5 L 570.5 355.5 L 62.5 355.5 L 62.5 31.5" fill-opacity="1"/><path fill="none" stroke="rgb(229,229,229)" paint-order="fill" d="M 62.5 31.5 L 570.5 31.5 L 570.5 355.5 L 62.5 355.5 L 62.5 31.5" stroke-opacity="1" stroke-linejoin="bevel" stroke-miterlimit="10" stroke-dasharray=""/><path fill="none" stroke="rgb(229,229,229)" paint-order="fill" d="M 85.5 355.5 L 85.5 31.5 M 177.5 355.5 L 177.5 31.5 M 270.5 355.5 L 270.5 31.5 M 362.5 355.5 L 362.5 31.5 M 455.5 355.5 L 455.5 31.5 M 547.5 355.5 L 547.5 31.5" stroke-opacity="1" stroke-linejoin="bevel" stroke-miterlimit="10" stroke-dasharray="" clip-path="url(#zThyeIPkgDGF)"/><path fill="none" stroke="rgb(229,229,229)" paint-order="fill" d="M 62.5 340.5 L 570.5 340.5 M 62.5 295.5 L 570.5 295.5 M 62.5 250.5 L 570.5 250.5 M 62.5 205.5 L 570.5 205.5 M 62.5 160.5 L 570.5 160.5 M 62.5 115.5 L 570.5 115.5 M 62.5 70.5 L 570.5 70.5" stroke-opacity="1" stroke-linejoin="bevel" stroke-miterlimit="10" stroke-dasharray="" clip-path="url(#ThHSgZOxSEhP)"/><path fill="none" stroke="none"/><path fill="none" stroke="rgb(220,20,60)" paint-order="fill" d="M 85.59091186523438 340.7727355957031 L 104.06363677978516 335.5973815917969 L 122.53636169433594 324.3465881347656 L 141.00909423828125 307.2453918457031 L 159.4818115234375 288.3440856933594 L 177.9545440673828 268.0926818847656 L 196.42727661132812 247.16622924804688 L 214.89999389648438 223.3145751953125 L 233.3727264404297 205.7633514404297 L 251.845458984375 190.0122528076172 L 270.31817626953125 177.86141967773438 L 288.7909240722656 166.1605987548828 L 307.2636413574219 155.58486938476562 L 325.7363586425781 142.53396606445312 L 344.2090759277344 128.1329574584961 L 362.68182373046875 115.7571029663086 L 381.154541015625 103.38124084472656 L 399.62725830078125 93.70556640625 L 418.1000061035156 85.60501098632812 L 436.5727233886719 82.0047607421875 L 455.0454406738281 76.60438537597656 L 473.5181884765625 70.52896118164062 L 491.99090576171875 65.12858581542969 L 510.463623046875 57.92808532714844 L 528.9363403320312 50.95260238647461 L 547.4091186523438 46.227272033691406" stroke-opacity="1" stroke-linejoin="bevel" stroke-miterlimit="10" stroke-dasharray="" clip-path="url(#XfkDHMQVwETl)"/><path fill="none" stroke="none"/><path fill="rgb(255,255,255)" stroke="rgb(220,20,60)" paint-order="fill" d="M 87.59091186523438 340.7727355957031 A 2 2 0 1 1 87.59091086523446 340.77073559603645" fill-opacity="1" clip-path="url(#nvcomaxvNTeG)" stroke-opacity="1" stroke-linejoin="bevel" stroke-miterlimit="10" stroke-dasharray=""/><path fill="rgb(255,255,255)" stroke="rgb(220,20,60)" paint-order="fill" d="M 106.06363677978516 335.5973815917969 A 2 2 0 1 1 106.06363577978524 335.5953815921302" fill-opacity="1" clip-path="url(#nvcomaxvNTeG)" stroke-opacity="1" stroke-linejoin="bevel" stroke-miterlimit="10" stroke-dasharray=""/><path fill="rgb(255,255,255)" stroke="rgb(220,20,60)" paint-order="fill" d="M 124.53636169433594 324.3465881347656 A 2 2 0 1 1 124.53636069433603 324.34458813509895" fill-opacity="1" clip-path="url(#nvcomaxvNTeG)" stroke-opacity="1" stroke-linejoin="bevel" stroke-miterlimit="10" stroke-dasharray=""/><path fill="rgb(255,255,255)" stroke="rgb(220,20,60)" paint-order="fill" d="M 143.00909423828125 307.2453918457031 A 2 2 0 1 1 143.00909323828134 307.24339184603645" fill-opacity="1" clip-path="url(#nvcomaxvNTeG)" stroke-opacity="1" stroke-linejoin="bevel" stroke-miterlimit="10" stroke-dasharray=""/><path fill="rgb(255,255,255)" stroke="rgb(220,20,60)" paint-order="fill" d="M 161.4818115234375 288.3440856933594 A 2 2 0 1 1 161.4818105234376 288.3420856936927" fill-opacity="1" clip-path="url(#nvcomaxvNTeG)" stroke-opacity="1" stroke-linejoin="bevel" stroke-miterlimit="10" stroke-dasharray=""/><path fill="rgb(255,255,255)" stroke="rgb(220,20,60)" paint-order="fill" d="M 179.9545440673828 268.0926818847656 A 2 2 0 1 1 179.9545430673829 268.09068188509895" fill-opacity="1" clip-path="url(#nvcomaxvNTeG)" stroke-opacity="1" stroke-linejoin="bevel" stroke-miterlimit="10" stroke-dasharray=""/><path fill="rgb(255,255,255)" stroke="rgb(220,20,60)" paint-order="fill" d="M 198.42727661132812 247.16622924804688 A 2 2 0 1 1 198.4272756113282 247.1642292483802" fill-opacity="1" clip-path="url(#nvcomaxvNTeG)" stroke-opacity="1" stroke-linejoin="bevel" stroke-miterlimit="10" stroke-dasharray=""/><path fill="rgb(255,255,255)" stroke="rgb(220,20,60)" paint-order="fill" d="M 216.89999389648438 223.3145751953125 A 2 2 0 1 1 216.89999289648446 223.31257519564582" fill-opacity="1" clip-path="url(#nvcomaxvNTeG)" stroke-opacity="1" stroke-linejoin="bevel" stroke-miterlimit="10" stroke-dasharray=""/><path fill="rgb(255,255,255)" stroke="rgb(220,20,60)" paint-order="fill" d="M 235.3727264404297 205.7633514404297 A 2 2 0 1 1 235.37272544042978 205.761351440763" fill-opacity="1" clip-path="url(#nvcomaxvNTeG)" stroke-opacity="1" stroke-linejoin="bevel" stroke-miterlimit="10" stroke-dasharray=""/><path fill="rgb(255,255,255)" stroke="rgb(220,20,60)" paint-order="fill" d="M 253.845458984375 190.0122528076172 A 2 2 0 1 1 253.8454579843751 190.0102528079505" fill-opacity="1" clip-path="url(#nvcomaxvNTeG)" stroke-opacity="1" stroke-linejoin="bevel" stroke-miterlimit="10" stroke-dasharray=""/><path fill="rgb(255,255,255)" stroke="rgb(220,20,60)" paint-order="fill" d="M 272.31817626953125 177.86141967773438 A 2 2 0 1 1 272.3181752695313 177.8594196780677" fill-opacity="1" clip-path="url(#nvcomaxvNTeG)" stroke-opacity="1" stroke-linejoin="bevel" stroke-miterlimit="10" stroke-dasharray=""/><path fill="rgb(255,255,255)" stroke="rgb(220,20,60)" paint-order="fill" d="M 290.7909240722656 166.1605987548828 A 2 2 0 1 1 290.7909230722657 166.15859875521613" fill-opacity="1" clip-path="url(#nvcomaxvNTeG)" stroke-opacity="1" stroke-linejoin="bevel" stroke-miterlimit="10" stroke-dasharray=""/><path fill="rgb(255,255,255)" stroke="rgb(220,20,60)" paint-order="fill" d="M 309.2636413574219 155.58486938476562 A 2 2 0 1 1 309.26364035742193 155.58286938509895" fill-opacity="1" clip-path="url(#nvcomaxvNTeG)" stroke-opacity="1" stroke-linejoin="bevel" stroke-miterlimit="10" stroke-dasharray=""/><path fill="rgb(255,255,255)" stroke="rgb(220,20,60)" paint-order="fill" d="M 327.7363586425781 142.53396606445312 A 2 2 0 1 1 327.7363576425782 142.53196606478645" fill-opacity="1" clip-path="url(#nvcomaxvNTeG)" stroke-opacity="1" stroke-linejoin="bevel" stroke-miterlimit="10" stroke-dasharray=""/><path fill="rgb(255,255,255)" stroke="rgb(220,20,60)" paint-order="fill" d="M 346.2090759277344 128.1329574584961 A 2 2 0 1 1 346.20907492773443 128.1309574588294" fill-opacity="1" clip-path="url(#nvcomaxvNTeG)" stroke-opacity="1" stroke-linejoin="bevel" stroke-miterlimit="10" stroke-dasharray=""/><path fill="rgb(255,255,255)" stroke="rgb(220,20,60)" paint-order="fill" d="M 364.68182373046875 115.7571029663086 A 2 2 0 1 1 364.6818227304688 115.75510296664193" fill-opacity="1" clip-path="url(#nvcomaxvNTeG)" stroke-opacity="1" stroke-linejoin="bevel" stroke-miterlimit="10" stroke-dasharray=""/><path fill="rgb(255,255,255)" stroke="rgb(220,20,60)" paint-order="fill" d="M 383.154541015625 103.38124084472656 A 2 2 0 1 1 383.15454001562506 103.3792408450599" fill-opacity="1" clip-path="url(#nvcomaxvNTeG)" stroke-opacity="1" stroke-linejoin="bevel" stroke-miterlimit="10" stroke-dasharray=""/><path fill="rgb(255,255,255)" stroke="rgb(220,20,60)" paint-order="fill" d="M 401.62725830078125 93.70556640625 A 2 2 0 1 1 401.6272573007813 93.70356640658333" fill-opacity="1" clip-path="url(#nvcomaxvNTeG)" stroke-opacity="1" stroke-linejoin="bevel" stroke-miterlimit="10" stroke-dasharray=""/><path fill="rgb(255,255,255)" stroke="rgb(220,20,60)" paint-order="fill" d="M 420.1000061035156 85.60501098632812 A 2 2 0 1 1 420.1000051035157 85.60301098666146" fill-opacity="1" clip-path="url(#nvcomaxvNTeG)" stroke-opacity="1" stroke-linejoin="bevel" stroke-miterlimit="10" stroke-dasharray=""/><path fill="rgb(255,255,255)" stroke="rgb(220,20,60)" paint-order="fill" d="M 438.5727233886719 82.0047607421875 A 2 2 0 1 1 438.57272238867193 82.00276074252083" fill-opacity="1" clip-path="url(#nvcomaxvNTeG)" stroke-opacity="1" stroke-linejoin="bevel" stroke-miterlimit="10" stroke-dasharray=""/><path fill="rgb(255,255,255)" stroke="rgb(220,20,60)" paint-order="fill" d="M 457.0454406738281 76.60438537597656 A 2 2 0 1 1 457.0454396738282 76.6023853763099" fill-opacity="1" clip-path="url(#nvcomaxvNTeG)" stroke-opacity="1" stroke-linejoin="bevel" stroke-miterlimit="10" stroke-dasharray=""/><path fill="rgb(255,255,255)" stroke="rgb(220,20,60)" paint-order="fill" d="M 475.5181884765625 70.52896118164062 A 2 2 0 1 1 475.51818747656256 70.52696118197396" fill-opacity="1" clip-path="url(#nvcomaxvNTeG)" stroke-opacity="1" stroke-linejoin="bevel" stroke-miterlimit="10" stroke-dasharray=""/><path fill="rgb(255,255,255)" stroke="rgb(220,20,60)" paint-order="fill" d="M 493.99090576171875 65.12858581542969 A 2 2 0 1 1 493.9909047617188 65.12658581576302" fill-opacity="1" clip-path="url(#nvcomaxvNTeG)" stroke-opacity="1" stroke-linejoin="bevel" stroke-miterlimit="10" stroke-dasharray=""/><path fill="rgb(255,255,255)" stroke="rgb(220,20,60)" paint-order="fill" d="M 512.463623046875 57.92808532714844 A 2 2 0 1 1 512.4636220468751 57.92608532748177" fill-opacity="1" clip-path="url(#nvcomaxvNTeG)" stroke-opacity="1" stroke-linejoin="bevel" stroke-miterlimit="10" stroke-dasharray=""/><path fill="rgb(255,255,255)" stroke="rgb(220,20,60)" paint-order="fill" d="M 530.9363403320312 50.95260238647461 A 2 2 0 1 1 530.9363393320314 50.950602386807944" fill-opacity="1" clip-path="url(#nvcomaxvNTeG)" stroke-opacity="1" stroke-linejoin="bevel" stroke-miterlimit="10" stroke-dasharray=""/><path fill="rgb(255,255,255)" stroke="rgb(220,20,60)" paint-order="fill" d="M 549.4091186523438 46.227272033691406 A 2 2 0 1 1 549.4091176523439 46.22527203402474" fill-opacity="1" clip-path="url(#nvcomaxvNTeG)" stroke-opacity="1" stroke-linejoin="bevel" stroke-miterlimit="10" stroke-dasharray=""/><path fill="none" stroke="none"/><path fill="none" stroke="rgb(75,0,130)" paint-order="fill" d="M 85.59091186523438 244.46603393554688 L 104.06363677978516 275.5181884765625 L 122.53636169433594 297.79473876953125 L 141.00909423828125 313.3208312988281 L 159.4818115234375 320.0712890625 L 177.9545440673828 323.6715393066406 L 196.42727661132812 326.59674072265625 L 214.89999389648438 329.0719299316406 L 233.3727264404297 331.7720947265625 L 251.845458984375 333.1221923828125 L 270.31817626953125 334.4722900390625 L 288.7909240722656 335.5973815917969 L 307.2636413574219 336.27239990234375 L 325.7363586425781 337.3974914550781 L 344.2090759277344 337.62249755859375 L 362.68182373046875 338.7475891113281 L 381.154541015625 338.7475891113281 L 399.62725830078125 338.97259521484375 L 418.1000061035156 338.97259521484375 L 436.5727233886719 339.1976318359375 L 455.0454406738281 339.64764404296875 L 473.5181884765625 339.8726501464844 L 491.99090576171875 339.8726501464844 L 510.463623046875 339.8726501464844 L 528.9363403320312 340.0976867675781 L 547.4091186523438 340.32269287109375" stroke-opacity="1" stroke-linejoin="bevel" stroke-miterlimit="10" stroke-dasharray="" clip-path="url(#tbxpOBaXnSwp)"/><path fill="none" stroke="none"/><path fill="rgb(255,255,255)" stroke="rgb(75,0,130)" paint-order="fill" d="M 87.59091186523438 244.46603393554688 A 2 2 0 1 1 87.59091086523446 244.4640339358802" fill-opacity="1" clip-path="url(#EcSuRraHZrUq)" stroke-opacity="1" stroke-linejoin="bevel" stroke-miterlimit="10" stroke-dasharray=""/><path fill="rgb(255,255,255)" stroke="rgb(75,0,130)" paint-order="fill" d="M 106.06363677978516 275.5181884765625 A 2 2 0 1 1 106.06363577978524 275.5161884768958" fill-opacity="1" clip-path="url(#EcSuRraHZrUq)" stroke-opacity="1" stroke-linejoin="bevel" stroke-miterlimit="10" stroke-dasharray=""/><path fill="rgb(255,255,255)" stroke="rgb(75,0,130)" paint-order="fill" d="M 124.53636169433594 297.79473876953125 A 2 2 0 1 1 124.53636069433603 297.79273876986457" fill-opacity="1" clip-path="url(#EcSuRraHZrUq)" stroke-opacity="1" stroke-linejoin="bevel" stroke-miterlimit="10" stroke-dasharray=""/><path fill="rgb(255,255,255)" stroke="rgb(75,0,130)" paint-order="fill" d="M 143.00909423828125 313.3208312988281 A 2 2 0 1 1 143.00909323828134 313.31883129916145" fill-opacity="1" clip-path="url(#EcSuRraHZrUq)" stroke-opacity="1" stroke-linejoin="bevel" stroke-miterlimit="10" stroke-dasharray=""/><path fill="rgb(255,255,255)" stroke="rgb(75,0,130)" paint-order="fill" d="M 161.4818115234375 320.0712890625 A 2 2 0 1 1 161.4818105234376 320.0692890628333" fill-opacity="1" clip-path="url(#EcSuRraHZrUq)" stroke-opacity="1" stroke-linejoin="bevel" stroke-miterlimit="10" stroke-dasharray=""/><path fill="rgb(255,255,255)" stroke="rgb(75,0,130)" paint-order="fill" d="M 179.9545440673828 323.6715393066406 A 2 2 0 1 1 179.9545430673829 323.66953930697395" fill-opacity="1" clip-path="url(#EcSuRraHZrUq)" stroke-opacity="1" stroke-linejoin="bevel" stroke-miterlimit="10" stroke-dasharray=""/><path fill="rgb(255,255,255)" stroke="rgb(75,0,130)" paint-order="fill" d="M 198.42727661132812 326.59674072265625 A 2 2 0 1 1 198.4272756113282 326.59474072298957" fill-opacity="1" clip-path="url(#EcSuRraHZrUq)" stroke-opacity="1" stroke-linejoin="bevel" stroke-miterlimit="10" stroke-dasharray=""/><path fill="rgb(255,255,255)" stroke="rgb(75,0,130)" paint-order="fill" d="M 216.89999389648438 329.0719299316406 A 2 2 0 1 1 216.89999289648446 329.06992993197395" fill-opacity="1" clip-path="url(#EcSuRraHZrUq)" stroke-opacity="1" stroke-linejoin="bevel" stroke-miterlimit="10" stroke-dasharray=""/><path fill="rgb(255,255,255)" stroke="rgb(75,0,130)" paint-order="fill" d="M 235.3727264404297 331.7720947265625 A 2 2 0 1 1 235.37272544042978 331.7700947268958" fill-opacity="1" clip-path="url(#EcSuRraHZrUq)" stroke-opacity="1" stroke-linejoin="bevel" stroke-miterlimit="10" stroke-dasharray=""/><path fill="rgb(255,255,255)" stroke="rgb(75,0,130)" paint-order="fill" d="M 253.845458984375 333.1221923828125 A 2 2 0 1 1 253.8454579843751 333.1201923831458" fill-opacity="1" clip-path="url(#EcSuRraHZrUq)" stroke-opacity="1" stroke-linejoin="bevel" stroke-miterlimit="10" stroke-dasharray=""/><path fill="rgb(255,255,255)" stroke="rgb(75,0,130)" paint-order="fill" d="M 272.31817626953125 334.4722900390625 A 2 2 0 1 1 272.3181752695313 334.4702900393958" fill-opacity="1" clip-path="url(#EcSuRraHZrUq)" stroke-opacity="1" stroke-linejoin="bevel" stroke-miterlimit="10" stroke-dasharray=""/><path fill="rgb(255,255,255)" stroke="rgb(75,0,130)" paint-order="fill" d="M 290.7909240722656 335.5973815917969 A 2 2 0 1 1 290.7909230722657 335.5953815921302" fill-opacity="1" clip-path="url(#EcSuRraHZrUq)" stroke-opacity="1" stroke-linejoin="bevel" stroke-miterlimit="10" stroke-dasharray=""/><path fill="rgb(255,255,255)" stroke="rgb(75,0,130)" paint-order="fill" d="M 309.2636413574219 336.27239990234375 A 2 2 0 1 1 309.26364035742193 336.27039990267707" fill-opacity="1" clip-path="url(#EcSuRraHZrUq)" stroke-opacity="1" stroke-linejoin="bevel" stroke-miterlimit="10" stroke-dasharray=""/><path fill="rgb(255,255,255)" stroke="rgb(75,0,130)" paint-order="fill" d="M 327.7363586425781 337.3974914550781 A 2 2 0 1 1 327.7363576425782 337.39549145541145" fill-opacity="1" clip-path="url(#EcSuRraHZrUq)" stroke-opacity="1" stroke-linejoin="bevel" stroke-miterlimit="10" stroke-dasharray=""/><path fill="rgb(255,255,255)" stroke="rgb(75,0,130)" paint-order="fill" d="M 346.2090759277344 337.62249755859375 A 2 2 0 1 1 346.20907492773443 337.62049755892707" fill-opacity="1" clip-path="url(#EcSuRraHZrUq)" stroke-opacity="1" stroke-linejoin="bevel" stroke-miterlimit="10" stroke-dasharray=""/><path fill="rgb(255,255,255)" stroke="rgb(75,0,130)" paint-order="fill" d="M 364.68182373046875 338.7475891113281 A 2 2 0 1 1 364.6818227304688 338.74558911166145" fill-opacity="1" clip-path="url(#EcSuRraHZrUq)" stroke-opacity="1" stroke-linejoin="bevel" stroke-miterlimit="10" stroke-dasharray=""/><path fill="rgb(255,255,255)" stroke="rgb(75,0,130)" paint-order="fill" d="M 383.154541015625 338.7475891113281 A 2 2 0 1 1 383.15454001562506 338.74558911166145" fill-opacity="1" clip-path="url(#EcSuRraHZrUq)" stroke-opacity="1" stroke-linejoin="bevel" stroke-miterlimit="10" stroke-dasharray=""/><path fill="rgb(255,255,255)" stroke="rgb(75,0,130)" paint-order="fill" d="M 401.62725830078125 338.97259521484375 A 2 2 0 1 1 401.6272573007813 338.97059521517707" fill-opacity="1" clip-path="url(#EcSuRraHZrUq)" stroke-opacity="1" stroke-linejoin="bevel" stroke-miterlimit="10" stroke-dasharray=""/><path fill="rgb(255,255,255)" stroke="rgb(75,0,130)" paint-order="fill" d="M 420.1000061035156 338.97259521484375 A 2 2 0 1 1 420.1000051035157 338.97059521517707" fill-opacity="1" clip-path="url(#EcSuRraHZrUq)" stroke-opacity="1" stroke-linejoin="bevel" stroke-miterlimit="10" stroke-dasharray=""/><path fill="rgb(255,255,255)" stroke="rgb(75,0,130)" paint-order="fill" d="M 438.5727233886719 339.1976318359375 A 2 2 0 1 1 438.57272238867193 339.1956318362708" fill-opacity="1" clip-path="url(#EcSuRraHZrUq)" stroke-opacity="1" stroke-linejoin="bevel" stroke-miterlimit="10" stroke-dasharray=""/><path fill="rgb(255,255,255)" stroke="rgb(75,0,130)" paint-order="fill" d="M 457.0454406738281 339.64764404296875 A 2 2 0 1 1 457.0454396738282 339.64564404330207" fill-opacity="1" clip-path="url(#EcSuRraHZrUq)" stroke-opacity="1" stroke-linejoin="bevel" stroke-miterlimit="10" stroke-dasharray=""/><path fill="rgb(255,255,255)" stroke="rgb(75,0,130)" paint-order="fill" d="M 475.5181884765625 339.8726501464844 A 2 2 0 1 1 475.51818747656256 339.8706501468177" fill-opacity="1" clip-path="url(#EcSuRraHZrUq)" stroke-opacity="1" stroke-linejoin="bevel" stroke-miterlimit="10" stroke-dasharray=""/><path fill="rgb(255,255,255)" stroke="rgb(75,0,130)" paint-order="fill" d="M 493.99090576171875 339.8726501464844 A 2 2 0 1 1 493.9909047617188 339.8706501468177" fill-opacity="1" clip-path="url(#EcSuRraHZrUq)" stroke-opacity="1" stroke-linejoin="bevel" stroke-miterlimit="10" stroke-dasharray=""/><path fill="rgb(255,255,255)" stroke="rgb(75,0,130)" paint-order="fill" d="M 512.463623046875 339.8726501464844 A 2 2 0 1 1 512.4636220468751 339.8706501468177" fill-opacity="1" clip-path="url(#EcSuRraHZrUq)" stroke-opacity="1" stroke-linejoin="bevel" stroke-miterlimit="10" stroke-dasharray=""/><path fill="rgb(255,255,255)" stroke="rgb(75,0,130)" paint-order="fill" d="M 530.9363403320312 340.0976867675781 A 2 2 0 1 1 530.9363393320314 340.09568676791145" fill-opacity="1" clip-path="url(#EcSuRraHZrUq)" stroke-opacity="1" stroke-linejoin="bevel" stroke-miterlimit="10" stroke-dasharray=""/><path fill="rgb(255,255,255)" stroke="rgb(75,0,130)" paint-order="fill" d="M 549.4091186523438 340.32269287109375 A 2 2 0 1 1 549.4091176523439 340.32069287142707" fill-opacity="1" clip-path="url(#EcSuRraHZrUq)" stroke-opacity="1" stroke-linejoin="bevel" stroke-miterlimit="10" stroke-dasharray=""/><path fill="none" stroke="rgb(0,0,0)" paint-order="fill" d="M 62.5 355.5 L 570.5 355.5" stroke-opacity="1" stroke-linejoin="bevel" stroke-miterlimit="10" stroke-dasharray=""/><path fill="none" stroke="rgb(0,0,0)" paint-order="fill" d="M 85.5 361.5 L 85.5 353.5 M 177.5 361.5 L 177.5 353.5 M 270.5 361.5 L 270.5 353.5 M 362.5 361.5 L 362.5 353.5 M 455.5 361.5 L 455.5 353.5 M 547.5 361.5 L 547.5 353.5" stroke-opacity="1" stroke-linejoin="bevel" stroke-miterlimit="10" stroke-dasharray=""/><path fill="none" stroke="rgb(0,0,0)" paint-order="fill" d="M 67.5 359.5 L 67.5 355.5 M 85.5 359.5 L 85.5 355.5 M 104.5 359.5 L 104.5 355.5 M 122.5 359.5 L 122.5 355.5 M 141.5 359.5 L 141.5 355.5 M 159.5 359.5 L 159.5 355.5 M 177.5 359.5 L 177.5 355.5 M 196.5 359.5 L 196.5 355.5 M 214.5 359.5 L 214.5 355.5 M 233.5 359.5 L 233.5 355.5 M 251.5 359.5 L 251.5 355.5 M 270.5 359.5 L 270.5 355.5 M 288.5 359.5 L 288.5 355.5 M 307.5 359.5 L 307.5 355.5 M 325.5 359.5 L 325.5 355.5 M 344.5 359.5 L 344.5 355.5 M 362.5 359.5 L 362.5 355.5 M 381.5 359.5 L 381.5 355.5 M 399.5 359.5 L 399.5 355.5 M 418.5 359.5 L 418.5 355.5 M 436.5 359.5 L 436.5 355.5 M 455.5 359.5 L 455.5 355.5 M 473.5 359.5 L 473.5 355.5 M 491.5 359.5 L 491.5 355.5 M 510.5 359.5 L 510.5 355.5 M 528.5 359.5 L 528.5 355.5 M 547.5 359.5 L 547.5 355.5 M 565.5 359.5 L 565.5 355.5" stroke-opacity="1" stroke-linejoin="bevel" stroke-miterlimit="10" stroke-dasharray=""/><text fill="rgb(68,68,68)" stroke="none" font-family="helvetica" font-size="11px" font-style="normal" font-weight="normal" text-decoration="normal" x="82.03257846832275" y="373.89013671875" text-anchor="start" dominant-baseline="alphabetic" transform="matrix(1, 0, 0, 1, 0.5, 0.5)" fill-opacity="1">3</text><text fill="rgb(68,68,68)" stroke="none" font-family="helvetica" font-size="11px" font-style="normal" font-weight="normal" text-decoration="normal" x="174.3962106704712" y="373.89013671875" text-anchor="start" dominant-baseline="alphabetic" transform="matrix(1, 0, 0, 1, 0.5, 0.5)" fill-opacity="1">4</text><text fill="rgb(68,68,68)" stroke="none" font-family="helvetica" font-size="11px" font-style="normal" font-weight="normal" text-decoration="normal" x="266.75984287261963" y="373.89013671875" text-anchor="start" dominant-baseline="alphabetic" transform="matrix(1, 0, 0, 1, 0.5, 0.5)" fill-opacity="1">5</text><text fill="rgb(68,68,68)" stroke="none" font-family="helvetica" font-size="11px" font-style="normal" font-weight="normal" text-decoration="normal" x="359.12349033355713" y="373.89013671875" text-anchor="start" dominant-baseline="alphabetic" transform="matrix(1, 0, 0, 1, 0.5, 0.5)" fill-opacity="1">6</text><text fill="rgb(68,68,68)" stroke="none" font-family="helvetica" font-size="11px" font-style="normal" font-weight="normal" text-decoration="normal" x="451.4871072769165" y="373.89013671875" text-anchor="start" dominant-baseline="alphabetic" transform="matrix(1, 0, 0, 1, 0.5, 0.5)" fill-opacity="1">7</text><text fill="rgb(68,68,68)" stroke="none" font-family="helvetica" font-size="11px" font-style="normal" font-weight="normal" text-decoration="normal" x="543.8507852554321" y="373.89013671875" text-anchor="start" dominant-baseline="alphabetic" transform="matrix(1, 0, 0, 1, 0.5, 0.5)" fill-opacity="1">8</text><text fill="rgb(68,68,68)" stroke="none" font-family="helvetica" font-size="13px" font-style="italic" font-weight="normal" text-decoration="normal" x="213.73332977294922" y="394.35693359375" text-anchor="start" dominant-baseline="alphabetic" transform="matrix(1, 0, 0, 1, 0.5, 0.5)" fill-opacity="1">Reconstruction Error Threshold (%)</text><path fill="none" stroke="rgb(0,0,0)" paint-order="fill" d="M 62.5 355.5 L 62.5 31.5" stroke-opacity="1" stroke-linejoin="bevel" stroke-miterlimit="10" stroke-dasharray=""/><path fill="none" stroke="rgb(0,0,0)" paint-order="fill" d="M 56.5 340.5 L 64.5 340.5 M 56.5 295.5 L 64.5 295.5 M 56.5 250.5 L 64.5 250.5 M 56.5 205.5 L 64.5 205.5 M 56.5 160.5 L 64.5 160.5 M 56.5 115.5 L 64.5 115.5 M 56.5 70.5 L 64.5 70.5" stroke-opacity="1" stroke-linejoin="bevel" stroke-miterlimit="10" stroke-dasharray=""/><path fill="none" stroke="rgb(0,0,0)" paint-order="fill" d="M 58.5 349.5 L 62.5 349.5 M 58.5 340.5 L 62.5 340.5 M 58.5 331.5 L 62.5 331.5 M 58.5 322.5 L 62.5 322.5 M 58.5 313.5 L 62.5 313.5 M 58.5 304.5 L 62.5 304.5 M 58.5 295.5 L 62.5 295.5 M 58.5 286.5 L 62.5 286.5 M 58.5 277.5 L 62.5 277.5 M 58.5 268.5 L 62.5 268.5 M 58.5 259.5 L 62.5 259.5 M 58.5 250.5 L 62.5 250.5 M 58.5 241.5 L 62.5 241.5 M 58.5 232.5 L 62.5 232.5 M 58.5 223.5 L 62.5 223.5 M 58.5 214.5 L 62.5 214.5 M 58.5 205.5 L 62.5 205.5 M 58.5 196.5 L 62.5 196.5 M 58.5 187.5 L 62.5 187.5 M 58.5 178.5 L 62.5 178.5 M 58.5 169.5 L 62.5 169.5 M 58.5 160.5 L 62.5 160.5 M 58.5 151.5 L 62.5 151.5 M 58.5 142.5 L 62.5 142.5 M 58.5 133.5 L 62.5 133.5 M 58.5 124.5 L 62.5 124.5 M 58.5 115.5 L 62.5 115.5 M 58.5 106.5 L 62.5 106.5 M 58.5 97.5 L 62.5 97.5 M 58.5 88.5 L 62.5 88.5 M 58.5 79.5 L 62.5 79.5 M 58.5 70.5 L 62.5 70.5 M 58.5 61.5 L 62.5 61.5 M 58.5 52.5 L 62.5 52.5 M 58.5 43.5 L 62.5 43.5 M 58.5 34.5 L 62.5 34.5" stroke-opacity="1" stroke-linejoin="bevel" stroke-miterlimit="10" stroke-dasharray=""/><text fill="rgb(68,68,68)" stroke="none" font-family="helvetica" font-size="11px" font-style="normal" font-weight="normal" text-decoration="normal" x="44.88333320617676" y="344.2178039550781" text-anchor="start" dominant-baseline="alphabetic" transform="matrix(1, 0, 0, 1, 0.5, 0.5)" fill-opacity="1">0</text><text fill="rgb(68,68,68)" stroke="none" font-family="helvetica" font-size="11px" font-style="normal" font-weight="normal" text-decoration="normal" x="32.64999961853027" y="299.21466064453125" text-anchor="start" dominant-baseline="alphabetic" transform="matrix(1, 0, 0, 1, 0.5, 0.5)" fill-opacity="1">200</text><text fill="rgb(68,68,68)" stroke="none" font-family="helvetica" font-size="11px" font-style="normal" font-weight="normal" text-decoration="normal" x="32.64999961853027" y="254.2115478515625" text-anchor="start" dominant-baseline="alphabetic" transform="matrix(1, 0, 0, 1, 0.5, 0.5)" fill-opacity="1">400</text><text fill="rgb(68,68,68)" stroke="none" font-family="helvetica" font-size="11px" font-style="normal" font-weight="normal" text-decoration="normal" x="32.64999961853027" y="209.2084197998047" text-anchor="start" dominant-baseline="alphabetic" transform="matrix(1, 0, 0, 1, 0.5, 0.5)" fill-opacity="1">600</text><text fill="rgb(68,68,68)" stroke="none" font-family="helvetica" font-size="11px" font-style="normal" font-weight="normal" text-decoration="normal" x="32.64999961853027" y="164.20529174804688" text-anchor="start" dominant-baseline="alphabetic" transform="matrix(1, 0, 0, 1, 0.5, 0.5)" fill-opacity="1">800</text><text fill="rgb(68,68,68)" stroke="none" font-family="helvetica" font-size="11px" font-style="normal" font-weight="normal" text-decoration="normal" x="26.53333282470703" y="119.2021713256836" text-anchor="start" dominant-baseline="alphabetic" transform="matrix(1, 0, 0, 1, 0.5, 0.5)" fill-opacity="1">1000</text><text fill="rgb(68,68,68)" stroke="none" font-family="helvetica" font-size="11px" font-style="normal" font-weight="normal" text-decoration="normal" x="26.53333282470703" y="74.19904327392578" text-anchor="start" dominant-baseline="alphabetic" transform="matrix(1, 0, 0, 1, 0.5, 0.5)" fill-opacity="1">1200</text><text fill="rgb(68,68,68)" stroke="none" font-family="helvetica" font-size="13px" font-style="italic" font-weight="normal" text-decoration="normal" x="-12.183334350585938" y="190.12451171875" text-anchor="start" dominant-baseline="alphabetic" transform="matrix(6.123233995736766e-17, -1, 1, 6.123233995736766e-17, -173.96666717529297, 212.03333282470703)" fill-opacity="1"># Samples</text><path fill="rgb(255,255,255)" stroke="rgb(229,229,229)" paint-order="fill" d="M 72.5 41.5 L 188.6500015258789 41.5 L 188.6500015258789 104.5 L 72.5 104.5 L 72.5 41.5" fill-opacity="0.9490196078431372" clip-path="url(#XhrfILIaJwza)" stroke-opacity="0.5019607843137255" stroke-linejoin="bevel" stroke-miterlimit="10" stroke-dasharray=""/><text fill="rgb(68,68,68)" stroke="none" font-family="helvetica" font-size="8pt" font-style="normal" font-weight="normal" text-decoration="normal" x="107" y="61" text-anchor="start" dominant-baseline="central" transform="matrix(1, 0, 0, 1, 0.5, 0.5)" fill-opacity="1">False Negative</text><path fill="none" stroke="rgb(220,20,60)" paint-order="fill" d="M 82.5 61.5 L 102.5 61.5" stroke-opacity="1" stroke-linejoin="bevel" stroke-miterlimit="10" stroke-dasharray="" clip-path="url(#XhrfILIaJwza)"/><text fill="rgb(68,68,68)" stroke="none" font-family="helvetica" font-size="8pt" font-style="normal" font-weight="normal" text-decoration="normal" x="107" y="84" text-anchor="start" dominant-baseline="central" transform="matrix(1, 0, 0, 1, 0.5, 0.5)" fill-opacity="1">False Positive</text><path fill="none" stroke="rgb(75,0,130)" paint-order="fill" d="M 82.5 84.5 L 102.5 84.5" stroke-opacity="1" stroke-linejoin="bevel" stroke-miterlimit="10" stroke-dasharray="" clip-path="url(#XhrfILIaJwza)"/><path fill="none" stroke="none"/><text fill="rgb(68,68,68)" stroke="none" font-family="helvetica" font-size="12pt" font-style="normal" font-weight="bold" text-decoration="normal" x="0" y="0" text-anchor="middle" dominant-baseline="text-after-edge" transform="matrix(1, 0, 0, 1, 316.5, 26.5)" fill-opacity="1">AutoEncoder - Best Threshold Exploration</text></svg>