<svg version="1.1" xmlns="http://www.w3.org/2000/svg" xmlns:xlink="http://www.w3.org/1999/xlink" width="330" height="300"><defs><clipPath id="FSrypLkWTGLq"><path fill="none" stroke="none" d="M 64.5 27.5 L 300.5 27.5 L 300.5 250.5 L 64.5 250.5 L 64.5 27.5"/></clipPath><clipPath id="NXemVvbKsCPJ"><path fill="none" stroke="none" d="M 64.5 27.5 L 300.5 27.5 L 300.5 250.5 L 64.5 250.5 L 64.5 27.5"/></clipPath><clipPath id="obMGWGOOfDkb"><path fill="none" stroke="none" d="M 64.5 27.5 L 300.5 27.5 L 300.5 250.5 L 64.5 250.5 L 64.5 27.5"/></clipPath><clipPath id="OQzbUqwFnSCM"><path fill="none" stroke="none" d="M 64.5 27.5 L 300.5 27.5 L 300.5 250.5 L 64.5 250.5 L 64.5 27.5"/></clipPath><clipPath id="yUcHWwuuFIdL"><path fill="none" stroke="none" d="M 64.5 27.5 L 300.5 27.5 L 300.5 250.5 L 64.5 250.5 L 64.5 27.5"/></clipPath><clipPath id="ObFkbfvRRSJL"><path fill="none" stroke="none" d="M 64.5 27.5 L 300.5 27.5 L 300.5 250.5 L 64.5 250.5 L 64.5 27.5"/></clipPath><clipPath id="ooQUPBmBgTFX"><path fill="none" stroke="none" d="M 64.5 27.5 L 300.5 27.5 L 300.5 250.5 L 64.5 250.5 L 64.5 27.5"/></clipPath><clipPath id="xetdJurRBXeE"><path fill="none" stroke="none" d="M 64.5 27.5 L 300.5 27.5 L 300.5 250.5 L 64.5 250.5 L 64.5 27.5"/></clipPath></defs><path fill="rgb(255,255,255)" stroke="none" paint-order="stroke" d="M 0.5 0.5 L 330.5 0.5 L 330.5 300.5 L 0.5 300.5 L 0.5 0.5" fill-opacity="1"/><rect fill="#FFFFFF" stroke="none" x="64" y="27" width="236" height="223" transform="matrix(1, 0, 0, 1, 0.5, 0.5)"/><path fill="rgb(255,255,255)" stroke="none" paint-order="stroke" d="M 64.5 27.5 L 300.5 27.5 L 300.5 250.5 L 64.5 250.5 L 64.5 27.5" fill-opacity="1"/><path fill="none" stroke="rgb(229,229,229)" paint-order="fill" d="M 64.5 27.5 L 300.5 27.5 L 300.5 250.5 L 64.5 250.5 L 64.5 27.5" stroke-opacity="1" stroke-linejoin="bevel" stroke-miterlimit="10" stroke-dasharray=""/><path fill="none" stroke="none"/><path fill="rgb(121,121,121)" stroke="rgb(255,255,255)" paint-order="fill" d="M 75.2272720336914 139 L 182.5 139 L 182.5 240.36363983154297 L 75.2272720336914 240.36363983154297 L 75.2272720336914 139" fill-opacity="0.6" clip-path="url(#obMGWGOOfDkb)" stroke-opacity="0.6" stroke-linejoin="bevel" stroke-miterlimit="10" stroke-width="1.5" stroke-dasharray=""/><path fill="rgb(0,0,0)" stroke="rgb(255,255,255)" paint-order="fill" d="M 182.5 139 L 289.7727279663086 139 L 289.7727279663086 240.36363983154297 L 182.5 240.36363983154297 L 182.5 139" fill-opacity="0.6" clip-path="url(#obMGWGOOfDkb)" stroke-opacity="0.6" stroke-linejoin="bevel" stroke-miterlimit="10" stroke-width="1.5" stroke-dasharray=""/><path fill="rgb(5,5,5)" stroke="rgb(255,255,255)" paint-order="fill" d="M 75.2272720336914 37.6363639831543 L 182.5 37.6363639831543 L 182.5 139.00000381469727 L 75.2272720336914 139.00000381469727 L 75.2272720336914 37.6363639831543" fill-opacity="0.6" clip-path="url(#obMGWGOOfDkb)" stroke-opacity="0.6" stroke-linejoin="bevel" stroke-miterlimit="10" stroke-width="1.5" stroke-dasharray=""/><path fill="rgb(255,255,255)" stroke="rgb(255,255,255)" paint-order="fill" d="M 182.5 37.6363639831543 L 289.7727279663086 37.6363639831543 L 289.7727279663086 139.00000381469727 L 182.5 139.00000381469727 L 182.5 37.6363639831543" fill-opacity="0.6" clip-path="url(#obMGWGOOfDkb)" stroke-opacity="0.6" stroke-linejoin="bevel" stroke-miterlimit="10" stroke-width="1.5" stroke-dasharray=""/><text fill="rgb(68,68,68)" stroke="none" font-family="helvetica" font-size="11px" font-style="normal" font-weight="normal" text-decoration="normal" x="114.9136323928833" y="271.4521484375" text-anchor="start" dominant-baseline="alphabetic" transform="matrix(1, 0, 0, 1, 0.5, 0.5)" fill-opacity="1">False</text><text fill="rgb(68,68,68)" stroke="none" font-family="helvetica" font-size="11px" font-style="normal" font-weight="normal" text-decoration="normal" x="224.52803421020508" y="271.4521484375" text-anchor="start" dominant-baseline="alphabetic" transform="matrix(1, 0, 0, 1, 0.5, 0.5)" fill-opacity="1">True</text><text fill="rgb(68,68,68)" stroke="none" font-family="helvetica" font-size="13px" font-style="italic" font-weight="normal" text-decoration="normal" x="150.8166675567627" y="294.35205078125" text-anchor="start" dominant-baseline="alphabetic" transform="matrix(1, 0, 0, 1, 0.5, 0.5)" fill-opacity="1">True Class</text><text fill="rgb(68,68,68)" stroke="none" font-family="helvetica" font-size="11px" font-style="normal" font-weight="normal" text-decoration="normal" x="26.100000381469727" y="193.19134521484375" text-anchor="start" dominant-baseline="alphabetic" transform="matrix(1, 0, 0, 1, 0.5, 0.5)" fill-opacity="1">False</text><text fill="rgb(68,68,68)" stroke="none" font-family="helvetica" font-size="11px" font-style="normal" font-weight="normal" text-decoration="normal" x="30.78333282470703" y="91.82770538330078" text-anchor="start" dominant-baseline="alphabetic" transform="matrix(1, 0, 0, 1, 0.5, 0.5)" fill-opacity="1">True</text><text fill="rgb(68,68,68)" stroke="none" font-family="helvetica" font-size="13px" font-style="italic" font-weight="normal" text-decoration="normal" x="-27.42500114440918" y="135.62451171875" text-anchor="start" dominant-baseline="alphabetic" transform="matrix(6.123233995736766e-17, -1, 1, 6.123233995736766e-17, -119.89999961853027, 157.10000038146973)" fill-opacity="1">Predicted Class</text><path fill="none" stroke="none"/><text fill="rgb(255,255,255)" stroke="none" font-family="helvetica" font-size="10px" font-style="normal" font-weight="bold" text-decoration="normal" x="0" y="0" text-anchor="start" dominant-baseline="central" transform="matrix(1, 0, 0, 1, 122.36363636363637, 189.6818181818182)" fill-opacity="1">693</text><path fill="none" stroke="none"/><text fill="rgb(255,255,255)" stroke="none" font-family="helvetica" font-size="10px" font-style="normal" font-weight="bold" text-decoration="normal" x="0" y="0" text-anchor="start" dominant-baseline="central" transform="matrix(1, 0, 0, 1, 122.36363636363637, 88.31818181818183)" fill-opacity="1">122</text><path fill="none" stroke="none"/><text fill="rgb(255,255,255)" stroke="none" font-family="helvetica" font-size="10px" font-style="normal" font-weight="bold" text-decoration="normal" x="0" y="0" text-anchor="start" dominant-baseline="central" transform="matrix(1, 0, 0, 1, 229.63636363636363, 189.6818181818182)" fill-opacity="1">149</text><path fill="none" stroke="none"/><text fill="rgb(0,0,0)" stroke="none" font-family="helvetica" font-size="10px" font-style="normal" font-weight="bold" text-decoration="normal" x="0" y="0" text-anchor="start" dominant-baseline="central" transform="matrix(1, 0, 0, 1, 228.63636363636363, 88.31818181818183)" fill-opacity="1">1326</text><path fill="none" stroke="none"/><text fill="rgb(68,68,68)" stroke="none" font-family="helvetica" font-size="13px" font-style="normal" font-weight="bold" text-decoration="normal" x="0" y="0" text-anchor="middle" dominant-baseline="text-after-edge" transform="matrix(1, 0, 0, 1, 182.5, 22.5)" fill-opacity="1">AutoEncoder: Confusion Matrix</text></svg>