<svg version="1.1" xmlns="http://www.w3.org/2000/svg" xmlns:xlink="http://www.w3.org/1999/xlink" width="600" height="400"><defs><clipPath id="QdbPGRPWWGpa"><path fill="none" stroke="none" d="M 50.5 31.5 L 570.5 31.5 L 570.5 355.5 L 50.5 355.5 L 50.5 31.5"/></clipPath><clipPath id="dlkSrTksmfqN"><path fill="none" stroke="none" d="M 50.5 31.5 L 570.5 31.5 L 570.5 355.5 L 50.5 355.5 L 50.5 31.5"/></clipPath><clipPath id="rixWaTkgtQsl"><path fill="none" stroke="none" d="M 50.5 31.5 L 570.5 31.5 L 570.5 355.5 L 50.5 355.5 L 50.5 31.5"/></clipPath><clipPath id="NLNqMawXhRsV"><path fill="none" stroke="none" d="M 50.5 31.5 L 570.5 31.5 L 570.5 355.5 L 50.5 355.5 L 50.5 31.5"/></clipPath><clipPath id="krLWxRamuPNW"><path fill="none" stroke="none" d="M 50.5 31.5 L 570.5 31.5 L 570.5 355.5 L 50.5 355.5 L 50.5 31.5"/></clipPath><clipPath id="hCpPrmTbgBgT"><path fill="none" stroke="none" d="M 50.5 31.5 L 570.5 31.5 L 570.5 355.5 L 50.5 355.5 L 50.5 31.5"/></clipPath></defs><path fill="rgb(255,255,255)" stroke="none" paint-order="stroke" d="M 0.5 0.5 L 600.5 0.5 L 600.5 400.5 L 0.5 400.5 L 0.5 0.5" fill-opacity="1"/><rect fill="#FFFFFF" stroke="none" x="50" y="31" width="520" height="324" transform="matrix(1, 0, 0, 1, 0.5, 0.5)"/><path fill="rgb(255,255,255)" stroke="none" paint-order="stroke" d="M 50.5 31.5 L 570.5 31.5 L 570.5 355.5 L 50.5 355.5 L 50.5 31.5" fill-opacity="1"/><path fill="none" stroke="rgb(229,229,229)" paint-order="fill" d="M 50.5 31.5 L 570.5 31.5 L 570.5 355.5 L 50.5 355.5 L 50.5 31.5" stroke-opacity="1" stroke-linejoin="bevel" stroke-miterlimit="10" stroke-dasharray=""/><path fill="none" stroke="rgb(229,229,229)" paint-order="fill" d="M 50.5 320.5 L 570.5 320.5 M 50.5 266.5 L 570.5 266.5 M 50.5 212.5 L 570.5 212.5 M 50.5 159.5 L 570.5 159.5 M 50.5 105.5 L 570.5 105.5 M 50.5 51.5 L 570.5 51.5" stroke-opacity="1" stroke-linejoin="bevel" stroke-miterlimit="10" stroke-dasharray="" clip-path="url(#dlkSrTksmfqN)"/><path fill="none" stroke="none"/><path fill="none" stroke="rgb(220,20,60)" paint-order="fill" d="M 74.13636016845703 46.227272033691406 L 77.82954406738281 306.5967102050781 L 81.5227279663086 310.6773376464844 L 85.21591186523438 313.27557373046875 L 88.90908813476562 319.6341857910156 L 92.6022720336914 324.3543701171875 L 96.29545593261719 326.2795104980469 L 99.98863983154297 327.69482421875 L 103.68181610107422 328.806884765625 L 107.375 329.6319580078125 L 111.06818389892578 330.5019226074219 L 114.76136016845703 331.2383117675781 L 118.45454406738281 331.87603759765625 L 122.1477279663086 332.4140930175781 L 125.84091186523438 332.836181640625 L 129.53408813476562 333.20526123046875 L 133.22727966308594 333.5210876464844 L 136.9204559326172 333.82049560546875 L 140.61363220214844 334.0912170410156 L 144.30682373046875 334.33294677734375 L 148 334.6039123535156 L 151.69317626953125 334.8705749511719 L 155.38636779785156 335.1163024902344 L 159.0795440673828 335.3187255859375 L 162.77272033691406 335.5067138671875 L 166.46591186523438 335.7225646972656 L 170.15908813476562 335.94146728515625 L 173.85227966308594 336.0354919433594 L 177.5454559326172 336.20806884765625 L 181.23863220214844 336.3130187988281 L 184.93182373046875 336.4228210449219 L 188.625 336.5323791503906 L 192.31817626953125 336.6012878417969 L 196.01136779785156 336.6915588378906 L 199.7045440673828 336.8141784667969 L 203.39772033691406 336.8541259765625 L 207.09091186523438 336.9767761230469 L 210.78408813476562 337.05206298828125 L 214.47727966308594 337.1440734863281 L 218.1704559326172 337.26470947265625 L 221.86363220214844 337.33172607421875 L 225.55682373046875 337.44708251953125 L 229.25 337.5771179199219 L 232.94317626953125 337.6353454589844 L 236.63636779785156 337.6907043457031 L 240.3295440673828 337.79736328125 L 244.02272033691406 337.87255859375 L 247.71591186523438 337.9522399902344 L 251.40908813476562 338.0215148925781 L 255.10227966308594 338.0213317871094 L 258.7954406738281 338.12786865234375 L 262.4886474609375 338.17718505859375 L 266.18182373046875 338.2850646972656 L 269.875 338.2289123535156 L 273.56817626953125 338.35736083984375 L 277.2613525390625 338.40362548828125 L 280.9545593261719 338.45941162109375 L 284.6477355957031 338.4799499511719 L 288.3409118652344 338.51922607421875 L 292.0340881347656 338.5712585449219 L 295.7272644042969 338.67364501953125 L 299.4204406738281 338.72052001953125 L 303.1136474609375 338.6468200683594 L 306.80682373046875 338.7259216308594 L 310.5 338.8734130859375 L 314.19317626953125 338.9353332519531 L 317.8863525390625 338.96221923828125 L 321.5795593261719 339.0194091796875 L 325.2727355957031 339.1239013671875 L 328.9659118652344 339.1586608886719 L 332.6590881347656 339.18048095703125 L 336.3522644042969 339.2109069824219 L 340.0454406738281 339.3206787109375 L 343.7386474609375 339.3796691894531 L 347.43182373046875 339.3824462890625 L 351.125 339.3857421875 L 354.81817626953125 339.4315490722656 L 358.5113525390625 339.5368957519531 L 362.2045593261719 339.5846252441406 L 365.8977355957031 339.56903076171875 L 369.5909118652344 339.5931091308594 L 373.2840881347656 339.67742919921875 L 376.9772644042969 339.5970458984375 L 380.6704406738281 339.7476806640625 L 384.3636474609375 339.72210693359375 L 388.05682373046875 339.7704162597656 L 391.75 339.7677917480469 L 395.44317626953125 339.8262939453125 L 399.1363525390625 339.8932189941406 L 402.8295593261719 339.82379150390625 L 406.5227355957031 339.876708984375 L 410.2159118652344 339.8965759277344 L 413.9090881347656 339.96527099609375 L 417.6022644042969 339.96966552734375 L 421.2954406738281 339.97796630859375 L 424.9886474609375 339.9297790527344 L 428.68182373046875 340.0257568359375 L 432.375 340.022705078125 L 436.06817626953125 339.9932556152344 L 439.7613525390625 340.1138610839844 L 443.4545593261719 339.94000244140625 L 447.1477355957031 340.118896484375 L 450.8409118652344 340.1771545410156 L 454.5340881347656 340.17095947265625 L 458.2272644042969 340.1395263671875 L 461.9204406738281 340.2508850097656 L 465.6136474609375 340.2677917480469 L 469.30682373046875 340.3031921386719 L 473 340.3282775878906 L 476.69317626953125 340.3667907714844 L 480.3863525390625 340.30609130859375 L 484.0795593261719 340.4318542480469 L 487.7727355957031 340.2413024902344 L 491.4659118652344 340.49908447265625 L 495.1590881347656 340.32476806640625 L 498.8522644042969 340.5097351074219 L 502.5454406738281 340.4468994140625 L 506.2386474609375 340.4980163574219 L 509.93182373046875 340.53033447265625 L 513.625 340.4659729003906 L 517.3181762695312 340.5836486816406 L 521.0113525390625 340.5621643066406 L 524.7045288085938 340.60430908203125 L 528.397705078125 340.5613708496094 L 532.0908813476562 340.58843994140625 L 535.7841186523438 340.5780029296875 L 539.477294921875 340.6003723144531 L 543.1704711914062 340.50341796875 L 546.8636474609375 340.7727355957031" stroke-opacity="1" stroke-linejoin="bevel" stroke-miterlimit="10" stroke-width="1.5" stroke-dasharray="2,4" clip-path="url(#rixWaTkgtQsl)"/><path fill="none" stroke="none"/><path fill="none" stroke="rgb(75,0,130)" paint-order="fill" d="M 74.13636016845703 298.2695617675781 L 77.82954406738281 311.08319091796875 L 81.5227279663086 313.2933044433594 L 85.21591186523438 315.83184814453125 L 88.90908813476562 325.50823974609375 L 92.6022720336914 326.92547607421875 L 96.29545593261719 327.1888427734375 L 99.98863983154297 329.7933044433594 L 103.68181610107422 330.58172607421875 L 107.375 330.7615966796875 L 111.06818389892578 331.39459228515625 L 114.76136016845703 331.9444885253906 L 118.45454406738281 332.5858459472656 L 122.1477279663086 332.676025390625 L 125.84091186523438 333.0192565917969 L 129.53408813476562 333.2821044921875 L 133.22727966308594 333.27154541015625 L 136.9204559326172 334.2114562988281 L 140.61363220214844 330.8613586425781 L 144.30682373046875 334.509521484375 L 148 334.616943359375 L 151.69317626953125 335.01300048828125 L 155.38636779785156 334.6944885253906 L 159.0795440673828 335.3141784667969 L 162.77272033691406 334.7735595703125 L 166.46591186523438 335.5552978515625 L 170.15908813476562 334.3422546386719 L 173.85227966308594 336.0893859863281 L 177.5454559326172 335.6741638183594 L 181.23863220214844 335.2215576171875 L 184.93182373046875 336.01019287109375 L 188.625 336.2646484375 L 192.31817626953125 336.4202880859375 L 196.01136779785156 336.4073791503906 L 199.7045440673828 335.0753173828125 L 203.39772033691406 336.5877685546875 L 207.09091186523438 336.3069763183594 L 210.78408813476562 336.758056640625 L 214.47727966308594 336.8717956542969 L 218.1704559326172 336.2837219238281 L 221.86363220214844 337.1124267578125 L 225.55682373046875 336.4583740234375 L 229.25 336.9515075683594 L 232.94317626953125 335.6706848144531 L 236.63636779785156 337.2989501953125 L 240.3295440673828 337.2139892578125 L 244.02272033691406 337.58270263671875 L 247.71591186523438 337.3998107910156 L 251.40908813476562 337.0806884765625 L 255.10227966308594 337.4156494140625 L 258.7954406738281 337.06329345703125 L 262.4886474609375 337.746337890625 L 266.18182373046875 337.4478454589844 L 269.875 337.8566589355469 L 273.56817626953125 336.3743591308594 L 277.2613525390625 337.69293212890625 L 280.9545593261719 337.0476379394531 L 284.6477355957031 337.994140625 L 288.3409118652344 337.83428955078125 L 292.0340881347656 338.18115234375 L 295.7272644042969 337.5858459472656 L 299.4204406738281 337.9519958496094 L 303.1136474609375 337.8415222167969 L 306.80682373046875 338.205078125 L 310.5 338.22955322265625 L 314.19317626953125 337.7601623535156 L 317.8863525390625 338.3310546875 L 321.5795593261719 338.5977478027344 L 325.2727355957031 338.4046630859375 L 328.9659118652344 336.9645690917969 L 332.6590881347656 338.69183349609375 L 336.3522644042969 338.702880859375 L 340.0454406738281 338.47003173828125 L 343.7386474609375 338.364990234375 L 347.43182373046875 337.2490234375 L 351.125 338.544189453125 L 354.81817626953125 338.60333251953125 L 358.5113525390625 338.2118225097656 L 362.2045593261719 338.2077941894531 L 365.8977355957031 338.584228515625 L 369.5909118652344 338.7267761230469 L 373.2840881347656 338.930419921875 L 376.9772644042969 338.5859680175781 L 380.6704406738281 338.26202392578125 L 384.3636474609375 338.7358703613281 L 388.05682373046875 338.84088134765625 L 391.75 338.97418212890625 L 395.44317626953125 338.93023681640625 L 399.1363525390625 338.9861755371094 L 402.8295593261719 339.0291442871094 L 406.5227355957031 337.94573974609375 L 410.2159118652344 338.834228515625 L 413.9090881347656 339.105224609375 L 417.6022644042969 338.51959228515625 L 421.2954406738281 339.0460510253906 L 424.9886474609375 338.9738464355469 L 428.68182373046875 339.0727844238281 L 432.375 338.9230651855469 L 436.06817626953125 339.30096435546875 L 439.7613525390625 338.2479553222656 L 443.4545593261719 338.7754821777344 L 447.1477355957031 339.39215087890625 L 450.8409118652344 339.5005187988281 L 454.5340881347656 339.41357421875 L 458.2272644042969 339.17364501953125 L 461.9204406738281 339.4242858886719 L 465.6136474609375 339.2637939453125 L 469.30682373046875 339.476318359375 L 473 339.5258483886719 L 476.69317626953125 339.3866882324219 L 480.3863525390625 339.6219482421875 L 484.0795593261719 339.3084716796875 L 487.7727355957031 339.6404724121094 L 491.4659118652344 339.235107421875 L 495.1590881347656 339.2057189941406 L 498.8522644042969 339.5582580566406 L 502.5454406738281 339.42926025390625 L 506.2386474609375 339.04547119140625 L 509.93182373046875 339.973388671875 L 513.625 338.2364807128906 L 517.3181762695312 339.4454345703125 L 521.0113525390625 339.2021179199219 L 524.7045288085938 339.44891357421875 L 528.397705078125 339.4102478027344 L 532.0908813476562 339.38250732421875 L 535.7841186523438 339.73095703125 L 539.477294921875 339.552490234375 L 543.1704711914062 338.9958190917969 L 546.8636474609375 339.58135986328125" stroke-opacity="1" stroke-linejoin="bevel" stroke-miterlimit="10" stroke-width="1.5" stroke-dasharray="" clip-path="url(#NLNqMawXhRsV)"/><path fill="none" stroke="rgb(0,0,0)" paint-order="fill" d="M 50.5 355.5 L 570.5 355.5" stroke-opacity="1" stroke-linejoin="bevel" stroke-miterlimit="10" stroke-dasharray=""/><path fill="none" stroke="rgb(0,0,0)" paint-order="fill" d="M 74.5 361.5 L 74.5 353.5 M 148.5 361.5 L 148.5 353.5 M 221.5 361.5 L 221.5 353.5 M 295.5 361.5 L 295.5 353.5 M 369.5 361.5 L 369.5 353.5 M 443.5 361.5 L 443.5 353.5 M 517.5 361.5 L 517.5 353.5" stroke-opacity="1" stroke-linejoin="bevel" stroke-miterlimit="10" stroke-dasharray=""/><path fill="none" stroke="rgb(0,0,0)" paint-order="fill" d="M 59.5 359.5 L 59.5 355.5 M 74.5 359.5 L 74.5 355.5 M 88.5 359.5 L 88.5 355.5 M 103.5 359.5 L 103.5 355.5 M 118.5 359.5 L 118.5 355.5 M 133.5 359.5 L 133.5 355.5 M 148.5 359.5 L 148.5 355.5 M 162.5 359.5 L 162.5 355.5 M 177.5 359.5 L 177.5 355.5 M 192.5 359.5 L 192.5 355.5 M 207.5 359.5 L 207.5 355.5 M 221.5 359.5 L 221.5 355.5 M 236.5 359.5 L 236.5 355.5 M 251.5 359.5 L 251.5 355.5 M 266.5 359.5 L 266.5 355.5 M 280.5 359.5 L 280.5 355.5 M 295.5 359.5 L 295.5 355.5 M 310.5 359.5 L 310.5 355.5 M 325.5 359.5 L 325.5 355.5 M 340.5 359.5 L 340.5 355.5 M 354.5 359.5 L 354.5 355.5 M 369.5 359.5 L 369.5 355.5 M 384.5 359.5 L 384.5 355.5 M 399.5 359.5 L 399.5 355.5 M 413.5 359.5 L 413.5 355.5 M 428.5 359.5 L 428.5 355.5 M 443.5 359.5 L 443.5 355.5 M 458.5 359.5 L 458.5 355.5 M 473.5 359.5 L 473.5 355.5 M 487.5 359.5 L 487.5 355.5 M 502.5 359.5 L 502.5 355.5 M 517.5 359.5 L 517.5 355.5 M 532.5 359.5 L 532.5 355.5 M 546.5 359.5 L 546.5 355.5 M 561.5 359.5 L 561.5 355.5" stroke-opacity="1" stroke-linejoin="bevel" stroke-miterlimit="10" stroke-dasharray=""/><text fill="rgb(68,68,68)" stroke="none" font-family="helvetica" font-size="11px" font-style="normal" font-weight="normal" text-decoration="normal" x="70.57802677154541" y="373.89013671875" text-anchor="start" dominant-baseline="alphabetic" transform="matrix(1, 0, 0, 1, 0.5, 0.5)" fill-opacity="1">0</text><text fill="rgb(68,68,68)" stroke="none" font-family="helvetica" font-size="11px" font-style="normal" font-weight="normal" text-decoration="normal" x="141.38333320617676" y="373.89013671875" text-anchor="start" dominant-baseline="alphabetic" transform="matrix(1, 0, 0, 1, 0.5, 0.5)" fill-opacity="1">20</text><text fill="rgb(68,68,68)" stroke="none" font-family="helvetica" font-size="11px" font-style="normal" font-weight="normal" text-decoration="normal" x="215.2469654083252" y="373.89013671875" text-anchor="start" dominant-baseline="alphabetic" transform="matrix(1, 0, 0, 1, 0.5, 0.5)" fill-opacity="1">40</text><text fill="rgb(68,68,68)" stroke="none" font-family="helvetica" font-size="11px" font-style="normal" font-weight="normal" text-decoration="normal" x="289.11059761047363" y="373.89013671875" text-anchor="start" dominant-baseline="alphabetic" transform="matrix(1, 0, 0, 1, 0.5, 0.5)" fill-opacity="1">60</text><text fill="rgb(68,68,68)" stroke="none" font-family="helvetica" font-size="11px" font-style="normal" font-weight="normal" text-decoration="normal" x="362.97424507141113" y="373.89013671875" text-anchor="start" dominant-baseline="alphabetic" transform="matrix(1, 0, 0, 1, 0.5, 0.5)" fill-opacity="1">80</text><text fill="rgb(68,68,68)" stroke="none" font-family="helvetica" font-size="11px" font-style="normal" font-weight="normal" text-decoration="normal" x="433.779559135437" y="373.89013671875" text-anchor="start" dominant-baseline="alphabetic" transform="matrix(1, 0, 0, 1, 0.5, 0.5)" fill-opacity="1">100</text><text fill="rgb(68,68,68)" stroke="none" font-family="helvetica" font-size="11px" font-style="normal" font-weight="normal" text-decoration="normal" x="507.6431760787964" y="373.89013671875" text-anchor="start" dominant-baseline="alphabetic" transform="matrix(1, 0, 0, 1, 0.5, 0.5)" fill-opacity="1">120</text><text fill="rgb(68,68,68)" stroke="none" font-family="helvetica" font-size="13px" font-style="italic" font-weight="normal" text-decoration="normal" x="282.8916664123535" y="394.35693359375" text-anchor="start" dominant-baseline="alphabetic" transform="matrix(1, 0, 0, 1, 0.5, 0.5)" fill-opacity="1"># Epochs</text><path fill="none" stroke="rgb(0,0,0)" paint-order="fill" d="M 50.5 355.5 L 50.5 31.5" stroke-opacity="1" stroke-linejoin="bevel" stroke-miterlimit="10" stroke-dasharray=""/><path fill="none" stroke="rgb(0,0,0)" paint-order="fill" d="M 44.5 320.5 L 52.5 320.5 M 44.5 266.5 L 52.5 266.5 M 44.5 212.5 L 52.5 212.5 M 44.5 159.5 L 52.5 159.5 M 44.5 105.5 L 52.5 105.5 M 44.5 51.5 L 52.5 51.5" stroke-opacity="1" stroke-linejoin="bevel" stroke-miterlimit="10" stroke-dasharray=""/><path fill="none" stroke="rgb(0,0,0)" paint-order="fill" d="M 46.5 331.5 L 50.5 331.5 M 46.5 341.5 L 50.5 341.5 M 46.5 352.5 L 50.5 352.5 M 46.5 320.5 L 50.5 320.5 M 46.5 309.5 L 50.5 309.5 M 46.5 298.5 L 50.5 298.5 M 46.5 288.5 L 50.5 288.5 M 46.5 277.5 L 50.5 277.5 M 46.5 266.5 L 50.5 266.5 M 46.5 255.5 L 50.5 255.5 M 46.5 245.5 L 50.5 245.5 M 46.5 234.5 L 50.5 234.5 M 46.5 223.5 L 50.5 223.5 M 46.5 212.5 L 50.5 212.5 M 46.5 202.5 L 50.5 202.5 M 46.5 191.5 L 50.5 191.5 M 46.5 180.5 L 50.5 180.5 M 46.5 169.5 L 50.5 169.5 M 46.5 159.5 L 50.5 159.5 M 46.5 148.5 L 50.5 148.5 M 46.5 137.5 L 50.5 137.5 M 46.5 126.5 L 50.5 126.5 M 46.5 116.5 L 50.5 116.5 M 46.5 105.5 L 50.5 105.5 M 46.5 94.5 L 50.5 94.5 M 46.5 83.5 L 50.5 83.5 M 46.5 73.5 L 50.5 73.5 M 46.5 62.5 L 50.5 62.5 M 46.5 51.5 L 50.5 51.5 M 46.5 40.5 L 50.5 40.5" stroke-opacity="1" stroke-linejoin="bevel" stroke-miterlimit="10" stroke-dasharray=""/><text fill="rgb(68,68,68)" stroke="none" font-family="helvetica" font-size="11px" font-style="normal" font-weight="normal" text-decoration="normal" x="32.88333320617676" y="323.7073974609375" text-anchor="start" dominant-baseline="alphabetic" transform="matrix(1, 0, 0, 1, 0.5, 0.5)" fill-opacity="1">4</text><text fill="rgb(68,68,68)" stroke="none" font-family="helvetica" font-size="11px" font-style="normal" font-weight="normal" text-decoration="normal" x="32.88333320617676" y="269.9730529785156" text-anchor="start" dominant-baseline="alphabetic" transform="matrix(1, 0, 0, 1, 0.5, 0.5)" fill-opacity="1">6</text><text fill="rgb(68,68,68)" stroke="none" font-family="helvetica" font-size="11px" font-style="normal" font-weight="normal" text-decoration="normal" x="32.88333320617676" y="216.23870849609375" text-anchor="start" dominant-baseline="alphabetic" transform="matrix(1, 0, 0, 1, 0.5, 0.5)" fill-opacity="1">8</text><text fill="rgb(68,68,68)" stroke="none" font-family="helvetica" font-size="11px" font-style="normal" font-weight="normal" text-decoration="normal" x="26.766666412353516" y="162.50437927246094" text-anchor="start" dominant-baseline="alphabetic" transform="matrix(1, 0, 0, 1, 0.5, 0.5)" fill-opacity="1">10</text><text fill="rgb(68,68,68)" stroke="none" font-family="helvetica" font-size="11px" font-style="normal" font-weight="normal" text-decoration="normal" x="26.766666412353516" y="108.7700424194336" text-anchor="start" dominant-baseline="alphabetic" transform="matrix(1, 0, 0, 1, 0.5, 0.5)" fill-opacity="1">12</text><text fill="rgb(68,68,68)" stroke="none" font-family="helvetica" font-size="11px" font-style="normal" font-weight="normal" text-decoration="normal" x="26.766666412353516" y="55.03570556640625" text-anchor="start" dominant-baseline="alphabetic" transform="matrix(1, 0, 0, 1, 0.5, 0.5)" fill-opacity="1">14</text><text fill="rgb(68,68,68)" stroke="none" font-family="helvetica" font-size="13px" font-style="italic" font-weight="normal" text-decoration="normal" x="5.033332824707031" y="190.12451171875" text-anchor="start" dominant-baseline="alphabetic" transform="matrix(6.123233995736766e-17, -1, 1, 6.123233995736766e-17, -173.73333358764648, 212.26666641235352)" fill-opacity="1">Loss</text><path fill="rgb(255,255,255)" stroke="rgb(229,229,229)" paint-order="fill" d="M 443.9499969482422 41.5 L 560.5 41.5 L 560.5 104.5 L 443.9499969482422 104.5 L 443.9499969482422 41.5" fill-opacity="0.9490196078431372" clip-path="url(#krLWxRamuPNW)" stroke-opacity="0.5019607843137255" stroke-linejoin="bevel" stroke-miterlimit="10" stroke-dasharray=""/><text fill="rgb(68,68,68)" stroke="none" font-family="helvetica" font-size="8pt" font-style="normal" font-weight="normal" text-decoration="normal" x="478.4499969482422" y="61" text-anchor="start" dominant-baseline="central" transform="matrix(1, 0, 0, 1, 0.5, 0.5)" fill-opacity="1">Training Loss</text><path fill="none" stroke="rgb(220,20,60)" paint-order="fill" d="M 453.9499969482422 61.5 L 473.9499969482422 61.5" stroke-opacity="1" stroke-linejoin="bevel" stroke-miterlimit="10" stroke-width="1.5" stroke-dasharray="2,4" clip-path="url(#krLWxRamuPNW)"/><text fill="rgb(68,68,68)" stroke="none" font-family="helvetica" font-size="8pt" font-style="normal" font-weight="normal" text-decoration="normal" x="478.4499969482422" y="84" text-anchor="start" dominant-baseline="central" transform="matrix(1, 0, 0, 1, 0.5, 0.5)" fill-opacity="1">Validation Loss</text><path fill="none" stroke="rgb(75,0,130)" paint-order="fill" d="M 453.9499969482422 84.5 L 473.9499969482422 84.5" stroke-opacity="1" stroke-linejoin="bevel" stroke-miterlimit="10" stroke-width="1.5" stroke-dasharray="" clip-path="url(#krLWxRamuPNW)"/><path fill="none" stroke="none"/><text fill="rgb(68,68,68)" stroke="none" font-family="helvetica" font-size="12pt" font-style="normal" font-weight="bold" text-decoration="normal" x="0" y="0" text-anchor="middle" dominant-baseline="text-after-edge" transform="matrix(1, 0, 0, 1, 310.5, 26.5)" fill-opacity="1">Model Loss</text></svg>