<svg version="1.1" xmlns="http://www.w3.org/2000/svg" xmlns:xlink="http://www.w3.org/1999/xlink" width="600" height="400"><defs><clipPath id="PZkkcKgReIsu"><path fill="none" stroke="none" d="M 56.5 31.5 L 570.5 31.5 L 570.5 355.5 L 56.5 355.5 L 56.5 31.5"/></clipPath><clipPath id="xeIgDxdSzzJp"><path fill="none" stroke="none" d="M 56.5 31.5 L 570.5 31.5 L 570.5 355.5 L 56.5 355.5 L 56.5 31.5"/></clipPath><clipPath id="iRwrzSJrsyeX"><path fill="none" stroke="none" d="M 56.5 31.5 L 570.5 31.5 L 570.5 355.5 L 56.5 355.5 L 56.5 31.5"/></clipPath><clipPath id="kbqwLdIOaPiw"><path fill="none" stroke="none" d="M 56.5 31.5 L 570.5 31.5 L 570.5 355.5 L 56.5 355.5 L 56.5 31.5"/></clipPath><clipPath id="hbuiAhTJxnFg"><path fill="none" stroke="none" d="M 56.5 31.5 L 570.5 31.5 L 570.5 355.5 L 56.5 355.5 L 56.5 31.5"/></clipPath><clipPath id="DlRbEPInbdeG"><path fill="none" stroke="none" d="M 56.5 31.5 L 570.5 31.5 L 570.5 355.5 L 56.5 355.5 L 56.5 31.5"/></clipPath></defs><path fill="rgb(255,255,255)" stroke="none" paint-order="stroke" d="M 0.5 0.5 L 600.5 0.5 L 600.5 400.5 L 0.5 400.5 L 0.5 0.5" fill-opacity="1"/><rect fill="#FFFFFF" stroke="none" x="56" y="31" width="514" height="324" transform="matrix(1, 0, 0, 1, 0.5, 0.5)"/><path fill="rgb(255,255,255)" stroke="none" paint-order="stroke" d="M 56.5 31.5 L 570.5 31.5 L 570.5 355.5 L 56.5 355.5 L 56.5 31.5" fill-opacity="1"/><path fill="none" stroke="rgb(229,229,229)" paint-order="fill" d="M 56.5 31.5 L 570.5 31.5 L 570.5 355.5 L 56.5 355.5 L 56.5 31.5" stroke-opacity="1" stroke-linejoin="bevel" stroke-miterlimit="10" stroke-dasharray=""/><path fill="none" stroke="rgb(229,229,229)" paint-order="fill" d="M 71.5 355.5 L 71.5 31.5 M 136.5 355.5 L 136.5 31.5 M 201.5 355.5 L 201.5 31.5 M 266.5 355.5 L 266.5 31.5 M 331.5 355.5 L 331.5 31.5 M 396.5 355.5 L 396.5 31.5 M 461.5 355.5 L 461.5 31.5 M 525.5 355.5 L 525.5 31.5" stroke-opacity="1" stroke-linejoin="bevel" stroke-miterlimit="10" stroke-dasharray="" clip-path="url(#PZkkcKgReIsu)"/><path fill="none" stroke="rgb(229,229,229)" paint-order="fill" d="M 56.5 274.5 L 570.5 274.5 M 56.5 193.5 L 570.5 193.5 M 56.5 113.5 L 570.5 113.5 M 56.5 32.5 L 570.5 32.5" stroke-opacity="1" stroke-linejoin="bevel" stroke-miterlimit="10" stroke-dasharray="" clip-path="url(#xeIgDxdSzzJp)"/><path fill="none" stroke="none"/><path fill="rgb(220,20,60)" stroke="none" paint-order="stroke" d="M 79.86363983154297 274.7221374511719 L 89.42111206054688 274.7221374511719 L 89.42111206054688 355.5 L 79.86363983154297 355.5 L 79.86363983154297 274.7221374511719" fill-opacity="0.44313725490196076" clip-path="url(#iRwrzSJrsyeX)"/><path fill="rgb(220,20,60)" stroke="none" paint-order="stroke" d="M 89.42111206054688 61.46858596801758 L 98.97859191894531 61.46858596801758 L 98.97859191894531 355.5 L 89.42111206054688 355.5 L 89.42111206054688 61.46858596801758" fill-opacity="0.6078431372549019" clip-path="url(#iRwrzSJrsyeX)"/><path fill="rgb(220,20,60)" stroke="none" paint-order="stroke" d="M 98.97859191894531 46.92856979370117 L 108.53607177734375 46.92856979370117 L 108.53607177734375 355.5 L 98.97859191894531 355.5 L 98.97859191894531 46.92856979370117" fill-opacity="0.615686274509804" clip-path="url(#iRwrzSJrsyeX)"/><path fill="rgb(220,20,60)" stroke="none" paint-order="stroke" d="M 108.53607177734375 72.7774887084961 L 118.09355163574219 72.7774887084961 L 118.09355163574219 355.5 L 108.53607177734375 355.5 L 108.53607177734375 72.7774887084961" fill-opacity="0.596078431372549" clip-path="url(#iRwrzSJrsyeX)"/><path fill="rgb(220,20,60)" stroke="none" paint-order="stroke" d="M 118.09355163574219 200.40650939941406 L 127.65103149414062 200.40650939941406 L 127.65103149414062 355.5 L 118.09355163574219 355.5 L 118.09355163574219 200.40650939941406" fill-opacity="0.5019607843137255" clip-path="url(#iRwrzSJrsyeX)"/><path fill="rgb(220,20,60)" stroke="none" paint-order="stroke" d="M 127.65103149414062 300.571044921875 L 137.20851135253906 300.571044921875 L 137.20851135253906 355.5 L 127.65103149414062 355.5 L 127.65103149414062 300.571044921875" fill-opacity="0.4235294117647059" clip-path="url(#iRwrzSJrsyeX)"/><path fill="rgb(220,20,60)" stroke="none" paint-order="stroke" d="M 137.20851135253906 316.72662353515625 L 146.7659912109375 316.72662353515625 L 146.7659912109375 355.5 L 137.20851135253906 355.5 L 137.20851135253906 316.72662353515625" fill-opacity="0.4117647058823529" clip-path="url(#iRwrzSJrsyeX)"/><path fill="rgb(220,20,60)" stroke="none" paint-order="stroke" d="M 146.7659912109375 326.41998291015625 L 156.32347106933594 326.41998291015625 L 156.32347106933594 355.5 L 146.7659912109375 355.5 L 146.7659912109375 326.41998291015625" fill-opacity="0.403921568627451" clip-path="url(#iRwrzSJrsyeX)"/><path fill="rgb(220,20,60)" stroke="none" paint-order="stroke" d="M 156.32347106933594 328.0355224609375 L 165.88095092773438 328.0355224609375 L 165.88095092773438 355.5 L 156.32347106933594 355.5 L 156.32347106933594 328.0355224609375" fill-opacity="0.403921568627451" clip-path="url(#iRwrzSJrsyeX)"/><path fill="rgb(220,20,60)" stroke="none" paint-order="stroke" d="M 165.88095092773438 344.19110107421875 L 175.4384307861328 344.19110107421875 L 175.4384307861328 355.5 L 165.88095092773438 355.5 L 165.88095092773438 344.19110107421875" fill-opacity="0.39215686274509803" clip-path="url(#iRwrzSJrsyeX)"/><path fill="rgb(220,20,60)" stroke="none" paint-order="stroke" d="M 175.4384307861328 347.4222106933594 L 184.9958953857422 347.4222106933594 L 184.9958953857422 355.5 L 175.4384307861328 355.5 L 175.4384307861328 347.4222106933594" fill-opacity="0.38823529411764707" clip-path="url(#iRwrzSJrsyeX)"/><path fill="rgb(220,20,60)" stroke="none" paint-order="stroke" d="M 184.9958953857422 349.03778076171875 L 194.55337524414062 349.03778076171875 L 194.55337524414062 355.5 L 184.9958953857422 355.5 L 184.9958953857422 349.03778076171875" fill-opacity="0.38823529411764707" clip-path="url(#iRwrzSJrsyeX)"/><path fill="rgb(220,20,60)" stroke="none" paint-order="stroke" d="M 194.55337524414062 352.2688903808594 L 204.11085510253906 352.2688903808594 L 204.11085510253906 355.5 L 194.55337524414062 355.5 L 194.55337524414062 352.2688903808594" fill-opacity="0.3843137254901961" clip-path="url(#iRwrzSJrsyeX)"/><path fill="rgb(220,20,60)" stroke="none" paint-order="stroke" d="M 204.11085510253906 352.2688903808594 L 213.6683349609375 352.2688903808594 L 213.6683349609375 355.5 L 204.11085510253906 355.5 L 204.11085510253906 352.2688903808594" fill-opacity="0.3843137254901961" clip-path="url(#iRwrzSJrsyeX)"/><path fill="rgb(220,20,60)" stroke="none" paint-order="stroke" d="M 213.6683349609375 352.2688903808594 L 223.22581481933594 352.2688903808594 L 223.22581481933594 355.5 L 213.6683349609375 355.5 L 213.6683349609375 352.2688903808594" fill-opacity="0.3843137254901961" clip-path="url(#iRwrzSJrsyeX)"/><path fill="rgb(220,20,60)" stroke="none" paint-order="stroke" d="M 223.22581481933594 352.2688903808594 L 232.78329467773438 352.2688903808594 L 232.78329467773438 355.5 L 223.22581481933594 355.5 L 223.22581481933594 352.2688903808594" fill-opacity="0.3843137254901961" clip-path="url(#iRwrzSJrsyeX)"/><path fill="rgb(220,20,60)" stroke="none" paint-order="stroke" d="M 232.78329467773438 353.8844299316406 L 242.3407745361328 353.8844299316406 L 242.3407745361328 355.5 L 232.78329467773438 355.5 L 232.78329467773438 353.8844299316406" fill-opacity="0.3843137254901961" clip-path="url(#iRwrzSJrsyeX)"/><path fill="rgb(220,20,60)" stroke="none" paint-order="stroke" d="M 242.3407745361328 353.8844299316406 L 251.89825439453125 353.8844299316406 L 251.89825439453125 355.5 L 242.3407745361328 355.5 L 242.3407745361328 353.8844299316406" fill-opacity="0.3843137254901961" clip-path="url(#iRwrzSJrsyeX)"/><path fill="rgb(220,20,60)" stroke="none" paint-order="stroke" d="M 251.89825439453125 355.5 L 261.4557189941406 355.5 L 261.4557189941406 355.5 L 251.89825439453125 355.5 L 251.89825439453125 355.5" fill-opacity="0.3843137254901961" clip-path="url(#iRwrzSJrsyeX)"/><path fill="rgb(220,20,60)" stroke="none" paint-order="stroke" d="M 261.4557189941406 355.5 L 271.0132141113281 355.5 L 271.0132141113281 355.5 L 261.4557189941406 355.5 L 261.4557189941406 355.5" fill-opacity="0.3843137254901961" clip-path="url(#iRwrzSJrsyeX)"/><path fill="rgb(220,20,60)" stroke="none" paint-order="stroke" d="M 271.0132141113281 355.5 L 280.5706787109375 355.5 L 280.5706787109375 355.5 L 271.0132141113281 355.5 L 271.0132141113281 355.5" fill-opacity="0.3843137254901961" clip-path="url(#iRwrzSJrsyeX)"/><path fill="rgb(220,20,60)" stroke="none" paint-order="stroke" d="M 280.5706787109375 355.5 L 290.128173828125 355.5 L 290.128173828125 355.5 L 280.5706787109375 355.5 L 280.5706787109375 355.5" fill-opacity="0.3843137254901961" clip-path="url(#iRwrzSJrsyeX)"/><path fill="rgb(220,20,60)" stroke="none" paint-order="stroke" d="M 290.128173828125 353.8844299316406 L 299.6856384277344 353.8844299316406 L 299.6856384277344 355.5 L 290.128173828125 355.5 L 290.128173828125 353.8844299316406" fill-opacity="0.3843137254901961" clip-path="url(#iRwrzSJrsyeX)"/><path fill="rgb(220,20,60)" stroke="none" paint-order="stroke" d="M 299.6856384277344 355.5 L 309.2431335449219 355.5 L 309.2431335449219 355.5 L 299.6856384277344 355.5 L 299.6856384277344 355.5" fill-opacity="0.3843137254901961" clip-path="url(#iRwrzSJrsyeX)"/><path fill="rgb(220,20,60)" stroke="none" paint-order="stroke" d="M 309.2431335449219 355.5 L 318.80059814453125 355.5 L 318.80059814453125 355.5 L 309.2431335449219 355.5 L 309.2431335449219 355.5" fill-opacity="0.3843137254901961" clip-path="url(#iRwrzSJrsyeX)"/><path fill="rgb(220,20,60)" stroke="none" paint-order="stroke" d="M 318.80059814453125 355.5 L 328.35809326171875 355.5 L 328.35809326171875 355.5 L 318.80059814453125 355.5 L 318.80059814453125 355.5" fill-opacity="0.3843137254901961" clip-path="url(#iRwrzSJrsyeX)"/><path fill="rgb(220,20,60)" stroke="none" paint-order="stroke" d="M 328.35809326171875 355.5 L 337.9155578613281 355.5 L 337.9155578613281 355.5 L 328.35809326171875 355.5 L 328.35809326171875 355.5" fill-opacity="0.3843137254901961" clip-path="url(#iRwrzSJrsyeX)"/><path fill="rgb(220,20,60)" stroke="none" paint-order="stroke" d="M 337.9155578613281 355.5 L 347.4730529785156 355.5 L 347.4730529785156 355.5 L 337.9155578613281 355.5 L 337.9155578613281 355.5" fill-opacity="0.3843137254901961" clip-path="url(#iRwrzSJrsyeX)"/><path fill="rgb(220,20,60)" stroke="none" paint-order="stroke" d="M 347.4730529785156 355.5 L 357.030517578125 355.5 L 357.030517578125 355.5 L 347.4730529785156 355.5 L 347.4730529785156 355.5" fill-opacity="0.3843137254901961" clip-path="url(#iRwrzSJrsyeX)"/><path fill="rgb(220,20,60)" stroke="none" paint-order="stroke" d="M 357.030517578125 353.8844299316406 L 366.5880126953125 353.8844299316406 L 366.5880126953125 355.5 L 357.030517578125 355.5 L 357.030517578125 353.8844299316406" fill-opacity="0.3843137254901961" clip-path="url(#iRwrzSJrsyeX)"/><path fill="none" stroke="none"/><path fill="rgb(75,0,130)" stroke="none" paint-order="stroke" d="M 105.63787078857422 328.0355224609375 L 120.3544921875 328.0355224609375 L 120.3544921875 355.5 L 105.63787078857422 355.5 L 105.63787078857422 328.0355224609375" fill-opacity="0.48627450980392156" clip-path="url(#kbqwLdIOaPiw)"/><path fill="rgb(75,0,130)" stroke="none" paint-order="stroke" d="M 120.3544921875 289.26214599609375 L 135.07110595703125 289.26214599609375 L 135.07110595703125 355.5 L 120.3544921875 355.5 L 120.3544921875 289.26214599609375" fill-opacity="0.5686274509803921" clip-path="url(#kbqwLdIOaPiw)"/><path fill="rgb(75,0,130)" stroke="none" paint-order="stroke" d="M 135.07110595703125 292.4932556152344 L 149.7877197265625 292.4932556152344 L 149.7877197265625 355.5 L 135.07110595703125 355.5 L 135.07110595703125 292.4932556152344" fill-opacity="0.5607843137254902" clip-path="url(#kbqwLdIOaPiw)"/><path fill="rgb(75,0,130)" stroke="none" paint-order="stroke" d="M 149.7877197265625 289.26214599609375 L 164.50433349609375 289.26214599609375 L 164.50433349609375 355.5 L 149.7877197265625 355.5 L 149.7877197265625 289.26214599609375" fill-opacity="0.5686274509803921" clip-path="url(#kbqwLdIOaPiw)"/><path fill="rgb(75,0,130)" stroke="none" paint-order="stroke" d="M 164.50433349609375 311.87994384765625 L 179.22096252441406 311.87994384765625 L 179.22096252441406 355.5 L 164.50433349609375 355.5 L 164.50433349609375 311.87994384765625" fill-opacity="0.5215686274509804" clip-path="url(#kbqwLdIOaPiw)"/><path fill="rgb(75,0,130)" stroke="none" paint-order="stroke" d="M 179.22096252441406 331.2666320800781 L 193.9375762939453 331.2666320800781 L 193.9375762939453 355.5 L 179.22096252441406 355.5 L 179.22096252441406 331.2666320800781" fill-opacity="0.4823529411764706" clip-path="url(#kbqwLdIOaPiw)"/><path fill="rgb(75,0,130)" stroke="none" paint-order="stroke" d="M 193.9375762939453 332.8822021484375 L 208.65419006347656 332.8822021484375 L 208.65419006347656 355.5 L 193.9375762939453 355.5 L 193.9375762939453 332.8822021484375" fill-opacity="0.47843137254901963" clip-path="url(#kbqwLdIOaPiw)"/><path fill="rgb(75,0,130)" stroke="none" paint-order="stroke" d="M 208.65419006347656 339.34442138671875 L 223.3708038330078 339.34442138671875 L 223.3708038330078 355.5 L 208.65419006347656 355.5 L 208.65419006347656 339.34442138671875" fill-opacity="0.4627450980392157" clip-path="url(#kbqwLdIOaPiw)"/><path fill="rgb(75,0,130)" stroke="none" paint-order="stroke" d="M 223.3708038330078 340.9599914550781 L 238.08741760253906 340.9599914550781 L 238.08741760253906 355.5 L 223.3708038330078 355.5 L 223.3708038330078 340.9599914550781" fill-opacity="0.4627450980392157" clip-path="url(#kbqwLdIOaPiw)"/><path fill="rgb(75,0,130)" stroke="none" paint-order="stroke" d="M 238.08741760253906 329.6510925292969 L 252.8040313720703 329.6510925292969 L 252.8040313720703 355.5 L 238.08741760253906 355.5 L 238.08741760253906 329.6510925292969" fill-opacity="0.48627450980392156" clip-path="url(#kbqwLdIOaPiw)"/><path fill="rgb(75,0,130)" stroke="none" paint-order="stroke" d="M 252.8040313720703 328.0355224609375 L 267.5206604003906 328.0355224609375 L 267.5206604003906 355.5 L 252.8040313720703 355.5 L 252.8040313720703 328.0355224609375" fill-opacity="0.48627450980392156" clip-path="url(#kbqwLdIOaPiw)"/><path fill="rgb(75,0,130)" stroke="none" paint-order="stroke" d="M 267.5206604003906 344.19110107421875 L 282.2372741699219 344.19110107421875 L 282.2372741699219 355.5 L 267.5206604003906 355.5 L 267.5206604003906 344.19110107421875" fill-opacity="0.4549019607843137" clip-path="url(#kbqwLdIOaPiw)"/><path fill="rgb(75,0,130)" stroke="none" paint-order="stroke" d="M 282.2372741699219 349.03778076171875 L 296.9538879394531 349.03778076171875 L 296.9538879394531 355.5 L 282.2372741699219 355.5 L 282.2372741699219 349.03778076171875" fill-opacity="0.44313725490196076" clip-path="url(#kbqwLdIOaPiw)"/><path fill="rgb(75,0,130)" stroke="none" paint-order="stroke" d="M 296.9538879394531 349.03778076171875 L 311.6705017089844 349.03778076171875 L 311.6705017089844 355.5 L 296.9538879394531 355.5 L 296.9538879394531 349.03778076171875" fill-opacity="0.44313725490196076" clip-path="url(#kbqwLdIOaPiw)"/><path fill="rgb(75,0,130)" stroke="none" paint-order="stroke" d="M 311.6705017089844 339.34442138671875 L 326.3871154785156 339.34442138671875 L 326.3871154785156 355.5 L 311.6705017089844 355.5 L 311.6705017089844 339.34442138671875" fill-opacity="0.4627450980392157" clip-path="url(#kbqwLdIOaPiw)"/><path fill="rgb(75,0,130)" stroke="none" paint-order="stroke" d="M 326.3871154785156 349.03778076171875 L 341.1037292480469 349.03778076171875 L 341.1037292480469 355.5 L 326.3871154785156 355.5 L 326.3871154785156 349.03778076171875" fill-opacity="0.44313725490196076" clip-path="url(#kbqwLdIOaPiw)"/><path fill="rgb(75,0,130)" stroke="none" paint-order="stroke" d="M 341.1037292480469 352.2688903808594 L 355.8203430175781 352.2688903808594 L 355.8203430175781 355.5 L 341.1037292480469 355.5 L 341.1037292480469 352.2688903808594" fill-opacity="0.4392156862745098" clip-path="url(#kbqwLdIOaPiw)"/><path fill="rgb(75,0,130)" stroke="none" paint-order="stroke" d="M 355.8203430175781 349.03778076171875 L 370.5369567871094 349.03778076171875 L 370.5369567871094 355.5 L 355.8203430175781 355.5 L 355.8203430175781 349.03778076171875" fill-opacity="0.44313725490196076" clip-path="url(#kbqwLdIOaPiw)"/><path fill="rgb(75,0,130)" stroke="none" paint-order="stroke" d="M 370.5369567871094 349.03778076171875 L 385.2535705566406 349.03778076171875 L 385.2535705566406 355.5 L 370.5369567871094 355.5 L 370.5369567871094 349.03778076171875" fill-opacity="0.44313725490196076" clip-path="url(#kbqwLdIOaPiw)"/><path fill="rgb(75,0,130)" stroke="none" paint-order="stroke" d="M 385.2535705566406 352.2688903808594 L 399.97021484375 352.2688903808594 L 399.97021484375 355.5 L 385.2535705566406 355.5 L 385.2535705566406 352.2688903808594" fill-opacity="0.4392156862745098" clip-path="url(#kbqwLdIOaPiw)"/><path fill="rgb(75,0,130)" stroke="none" paint-order="stroke" d="M 399.97021484375 352.2688903808594 L 414.68682861328125 352.2688903808594 L 414.68682861328125 355.5 L 399.97021484375 355.5 L 399.97021484375 352.2688903808594" fill-opacity="0.4392156862745098" clip-path="url(#kbqwLdIOaPiw)"/><path fill="rgb(75,0,130)" stroke="none" paint-order="stroke" d="M 414.68682861328125 355.5 L 429.4034423828125 355.5 L 429.4034423828125 355.5 L 414.68682861328125 355.5 L 414.68682861328125 355.5" fill-opacity="0.43137254901960786" clip-path="url(#kbqwLdIOaPiw)"/><path fill="rgb(75,0,130)" stroke="none" paint-order="stroke" d="M 429.4034423828125 352.2688903808594 L 444.12005615234375 352.2688903808594 L 444.12005615234375 355.5 L 429.4034423828125 355.5 L 429.4034423828125 352.2688903808594" fill-opacity="0.4392156862745098" clip-path="url(#kbqwLdIOaPiw)"/><path fill="rgb(75,0,130)" stroke="none" paint-order="stroke" d="M 444.12005615234375 355.5 L 458.836669921875 355.5 L 458.836669921875 355.5 L 444.12005615234375 355.5 L 444.12005615234375 355.5" fill-opacity="0.43137254901960786" clip-path="url(#kbqwLdIOaPiw)"/><path fill="rgb(75,0,130)" stroke="none" paint-order="stroke" d="M 458.836669921875 353.8844299316406 L 473.55328369140625 353.8844299316406 L 473.55328369140625 355.5 L 458.836669921875 355.5 L 458.836669921875 353.8844299316406" fill-opacity="0.43529411764705883" clip-path="url(#kbqwLdIOaPiw)"/><path fill="rgb(75,0,130)" stroke="none" paint-order="stroke" d="M 473.55328369140625 353.8844299316406 L 488.2698974609375 353.8844299316406 L 488.2698974609375 355.5 L 473.55328369140625 355.5 L 473.55328369140625 353.8844299316406" fill-opacity="0.43529411764705883" clip-path="url(#kbqwLdIOaPiw)"/><path fill="rgb(75,0,130)" stroke="none" paint-order="stroke" d="M 488.2698974609375 355.5 L 502.98651123046875 355.5 L 502.98651123046875 355.5 L 488.2698974609375 355.5 L 488.2698974609375 355.5" fill-opacity="0.43137254901960786" clip-path="url(#kbqwLdIOaPiw)"/><path fill="rgb(75,0,130)" stroke="none" paint-order="stroke" d="M 502.98651123046875 353.8844299316406 L 517.703125 353.8844299316406 L 517.703125 355.5 L 502.98651123046875 355.5 L 502.98651123046875 353.8844299316406" fill-opacity="0.43529411764705883" clip-path="url(#kbqwLdIOaPiw)"/><path fill="rgb(75,0,130)" stroke="none" paint-order="stroke" d="M 517.703125 355.5 L 532.4197387695312 355.5 L 532.4197387695312 355.5 L 517.703125 355.5 L 517.703125 355.5" fill-opacity="0.43137254901960786" clip-path="url(#kbqwLdIOaPiw)"/><path fill="rgb(75,0,130)" stroke="none" paint-order="stroke" d="M 532.4197387695312 353.8844299316406 L 547.1363525390625 353.8844299316406 L 547.1363525390625 355.5 L 532.4197387695312 355.5 L 532.4197387695312 353.8844299316406" fill-opacity="0.43529411764705883" clip-path="url(#kbqwLdIOaPiw)"/><path fill="none" stroke="rgb(0,0,0)" paint-order="fill" d="M 56.5 355.5 L 570.5 355.5" stroke-opacity="1" stroke-linejoin="bevel" stroke-miterlimit="10" stroke-dasharray=""/><path fill="none" stroke="rgb(0,0,0)" paint-order="fill" d="M 71.5 361.5 L 71.5 353.5 M 136.5 361.5 L 136.5 353.5 M 201.5 361.5 L 201.5 353.5 M 266.5 361.5 L 266.5 353.5 M 331.5 361.5 L 331.5 353.5 M 396.5 361.5 L 396.5 353.5 M 461.5 361.5 L 461.5 353.5 M 525.5 361.5 L 525.5 353.5" stroke-opacity="1" stroke-linejoin="bevel" stroke-miterlimit="10" stroke-dasharray=""/><path fill="none" stroke="rgb(0,0,0)" paint-order="fill" d="M 58.5 359.5 L 58.5 355.5 M 71.5 359.5 L 71.5 355.5 M 84.5 359.5 L 84.5 355.5 M 97.5 359.5 L 97.5 355.5 M 110.5 359.5 L 110.5 355.5 M 123.5 359.5 L 123.5 355.5 M 136.5 359.5 L 136.5 355.5 M 149.5 359.5 L 149.5 355.5 M 162.5 359.5 L 162.5 355.5 M 175.5 359.5 L 175.5 355.5 M 188.5 359.5 L 188.5 355.5 M 201.5 359.5 L 201.5 355.5 M 214.5 359.5 L 214.5 355.5 M 227.5 359.5 L 227.5 355.5 M 240.5 359.5 L 240.5 355.5 M 253.5 359.5 L 253.5 355.5 M 266.5 359.5 L 266.5 355.5 M 279.5 359.5 L 279.5 355.5 M 292.5 359.5 L 292.5 355.5 M 305.5 359.5 L 305.5 355.5 M 318.5 359.5 L 318.5 355.5 M 331.5 359.5 L 331.5 355.5 M 344.5 359.5 L 344.5 355.5 M 357.5 359.5 L 357.5 355.5 M 370.5 359.5 L 370.5 355.5 M 383.5 359.5 L 383.5 355.5 M 396.5 359.5 L 396.5 355.5 M 409.5 359.5 L 409.5 355.5 M 422.5 359.5 L 422.5 355.5 M 435.5 359.5 L 435.5 355.5 M 448.5 359.5 L 448.5 355.5 M 461.5 359.5 L 461.5 355.5 M 474.5 359.5 L 474.5 355.5 M 487.5 359.5 L 487.5 355.5 M 500.5 359.5 L 500.5 355.5 M 512.5 359.5 L 512.5 355.5 M 525.5 359.5 L 525.5 355.5 M 538.5 359.5 L 538.5 355.5 M 551.5 359.5 L 551.5 355.5 M 564.5 359.5 L 564.5 355.5" stroke-opacity="1" stroke-linejoin="bevel" stroke-miterlimit="10" stroke-dasharray=""/><text fill="rgb(68,68,68)" stroke="none" font-family="helvetica" font-size="11px" font-style="normal" font-weight="normal" text-decoration="normal" x="68.03150272369385" y="373.89013671875" text-anchor="start" dominant-baseline="alphabetic" transform="matrix(1, 0, 0, 1, 0.5, 0.5)" fill-opacity="1">2</text><text fill="rgb(68,68,68)" stroke="none" font-family="helvetica" font-size="11px" font-style="normal" font-weight="normal" text-decoration="normal" x="132.943039894104" y="373.89013671875" text-anchor="start" dominant-baseline="alphabetic" transform="matrix(1, 0, 0, 1, 0.5, 0.5)" fill-opacity="1">4</text><text fill="rgb(68,68,68)" stroke="none" font-family="helvetica" font-size="11px" font-style="normal" font-weight="normal" text-decoration="normal" x="197.85459995269775" y="373.89013671875" text-anchor="start" dominant-baseline="alphabetic" transform="matrix(1, 0, 0, 1, 0.5, 0.5)" fill-opacity="1">6</text><text fill="rgb(68,68,68)" stroke="none" font-family="helvetica" font-size="11px" font-style="normal" font-weight="normal" text-decoration="normal" x="262.7661294937134" y="373.89013671875" text-anchor="start" dominant-baseline="alphabetic" transform="matrix(1, 0, 0, 1, 0.5, 0.5)" fill-opacity="1">8</text><text fill="rgb(68,68,68)" stroke="none" font-family="helvetica" font-size="11px" font-style="normal" font-weight="normal" text-decoration="normal" x="324.6193561553955" y="373.89013671875" text-anchor="start" dominant-baseline="alphabetic" transform="matrix(1, 0, 0, 1, 0.5, 0.5)" fill-opacity="1">10</text><text fill="rgb(68,68,68)" stroke="none" font-family="helvetica" font-size="11px" font-style="normal" font-weight="normal" text-decoration="normal" x="389.53091621398926" y="373.89013671875" text-anchor="start" dominant-baseline="alphabetic" transform="matrix(1, 0, 0, 1, 0.5, 0.5)" fill-opacity="1">12</text><text fill="rgb(68,68,68)" stroke="none" font-family="helvetica" font-size="11px" font-style="normal" font-weight="normal" text-decoration="normal" x="454.4424457550049" y="373.89013671875" text-anchor="start" dominant-baseline="alphabetic" transform="matrix(1, 0, 0, 1, 0.5, 0.5)" fill-opacity="1">14</text><text fill="rgb(68,68,68)" stroke="none" font-family="helvetica" font-size="11px" font-style="normal" font-weight="normal" text-decoration="normal" x="519.3539752960205" y="373.89013671875" text-anchor="start" dominant-baseline="alphabetic" transform="matrix(1, 0, 0, 1, 0.5, 0.5)" fill-opacity="1">16</text><text fill="rgb(68,68,68)" stroke="none" font-family="helvetica" font-size="13px" font-style="italic" font-weight="normal" text-decoration="normal" x="253.375" y="394.35693359375" text-anchor="start" dominant-baseline="alphabetic" transform="matrix(1, 0, 0, 1, 0.5, 0.5)" fill-opacity="1">Reconstruction Error</text><path fill="none" stroke="rgb(0,0,0)" paint-order="fill" d="M 56.5 355.5 L 56.5 31.5" stroke-opacity="1" stroke-linejoin="bevel" stroke-miterlimit="10" stroke-dasharray=""/><path fill="none" stroke="rgb(0,0,0)" paint-order="fill" d="M 50.5 355.5 L 58.5 355.5 M 50.5 274.5 L 58.5 274.5 M 50.5 193.5 L 58.5 193.5 M 50.5 113.5 L 58.5 113.5 M 50.5 32.5 L 58.5 32.5" stroke-opacity="1" stroke-linejoin="bevel" stroke-miterlimit="10" stroke-dasharray=""/><path fill="none" stroke="rgb(0,0,0)" paint-order="fill" d="M 52.5 355.5 L 56.5 355.5 M 52.5 339.5 L 56.5 339.5 M 52.5 323.5 L 56.5 323.5 M 52.5 307.5 L 56.5 307.5 M 52.5 290.5 L 56.5 290.5 M 52.5 274.5 L 56.5 274.5 M 52.5 258.5 L 56.5 258.5 M 52.5 242.5 L 56.5 242.5 M 52.5 226.5 L 56.5 226.5 M 52.5 210.5 L 56.5 210.5 M 52.5 193.5 L 56.5 193.5 M 52.5 177.5 L 56.5 177.5 M 52.5 161.5 L 56.5 161.5 M 52.5 145.5 L 56.5 145.5 M 52.5 129.5 L 56.5 129.5 M 52.5 113.5 L 56.5 113.5 M 52.5 97.5 L 56.5 97.5 M 52.5 80.5 L 56.5 80.5 M 52.5 64.5 L 56.5 64.5 M 52.5 48.5 L 56.5 48.5 M 52.5 32.5 L 56.5 32.5" stroke-opacity="1" stroke-linejoin="bevel" stroke-miterlimit="10" stroke-dasharray=""/><text fill="rgb(68,68,68)" stroke="none" font-family="helvetica" font-size="11px" font-style="normal" font-weight="normal" text-decoration="normal" x="38.88333320617676" y="358.945068359375" text-anchor="start" dominant-baseline="alphabetic" transform="matrix(1, 0, 0, 1, 0.5, 0.5)" fill-opacity="1">0</text><text fill="rgb(68,68,68)" stroke="none" font-family="helvetica" font-size="11px" font-style="normal" font-weight="normal" text-decoration="normal" x="32.766666412353516" y="278.1672058105469" text-anchor="start" dominant-baseline="alphabetic" transform="matrix(1, 0, 0, 1, 0.5, 0.5)" fill-opacity="1">50</text><text fill="rgb(68,68,68)" stroke="none" font-family="helvetica" font-size="11px" font-style="normal" font-weight="normal" text-decoration="normal" x="26.649999618530273" y="197.38934326171875" text-anchor="start" dominant-baseline="alphabetic" transform="matrix(1, 0, 0, 1, 0.5, 0.5)" fill-opacity="1">100</text><text fill="rgb(68,68,68)" stroke="none" font-family="helvetica" font-size="11px" font-style="normal" font-weight="normal" text-decoration="normal" x="26.649999618530273" y="116.61148834228516" text-anchor="start" dominant-baseline="alphabetic" transform="matrix(1, 0, 0, 1, 0.5, 0.5)" fill-opacity="1">150</text><text fill="rgb(68,68,68)" stroke="none" font-family="helvetica" font-size="11px" font-style="normal" font-weight="normal" text-decoration="normal" x="26.649999618530273" y="35.8336238861084" text-anchor="start" dominant-baseline="alphabetic" transform="matrix(1, 0, 0, 1, 0.5, 0.5)" fill-opacity="1">200</text><text fill="rgb(68,68,68)" stroke="none" font-family="helvetica" font-size="13px" font-style="italic" font-weight="normal" text-decoration="normal" x="-12.066667556762695" y="190.12451171875" text-anchor="start" dominant-baseline="alphabetic" transform="matrix(6.123233995736766e-17, -1, 1, 6.123233995736766e-17, -173.85000038146973, 212.14999961853027)" fill-opacity="1"># Samples</text><path fill="rgb(255,255,255)" stroke="rgb(229,229,229)" paint-order="fill" d="M 431.9000015258789 41.5 L 560.5 41.5 L 560.5 104.5 L 431.9000015258789 104.5 L 431.9000015258789 41.5" fill-opacity="0.9490196078431372" clip-path="url(#hbuiAhTJxnFg)" stroke-opacity="0.5019607843137255" stroke-linejoin="bevel" stroke-miterlimit="10" stroke-dasharray=""/><text fill="rgb(68,68,68)" stroke="none" font-family="helvetica" font-size="8pt" font-style="normal" font-weight="normal" text-decoration="normal" x="466.4000015258789" y="61" text-anchor="start" dominant-baseline="central" transform="matrix(1, 0, 0, 1, 0.5, 0.5)" fill-opacity="1">Normal Signals</text><path fill="rgb(220,20,60)" stroke="none" paint-order="stroke" d="M 443.9000015258789 53.5 L 459.9000015258789 53.5 L 459.9000015258789 69.5 L 443.9000015258789 69.5 L 443.9000015258789 53.5" fill-opacity="0.44313725490196076" clip-path="url(#hbuiAhTJxnFg)"/><text fill="rgb(68,68,68)" stroke="none" font-family="helvetica" font-size="8pt" font-style="normal" font-weight="normal" text-decoration="normal" x="466.4000015258789" y="84" text-anchor="start" dominant-baseline="central" transform="matrix(1, 0, 0, 1, 0.5, 0.5)" fill-opacity="1">Abnormal Signals</text><path fill="rgb(75,0,130)" stroke="none" paint-order="stroke" d="M 443.9000015258789 76.5 L 459.9000015258789 76.5 L 459.9000015258789 92.5 L 443.9000015258789 92.5 L 443.9000015258789 76.5" fill-opacity="0.48627450980392156" clip-path="url(#hbuiAhTJxnFg)"/><path fill="none" stroke="none"/><text fill="rgb(68,68,68)" stroke="none" font-family="helvetica" font-size="12pt" font-style="normal" font-weight="bold" text-decoration="normal" x="0" y="0" text-anchor="middle" dominant-baseline="text-after-edge" transform="matrix(1, 0, 0, 1, 313.5, 26.5)" fill-opacity="1">Reconstruction Error Distribution on the Test Set</text></svg>