<?xml version="1.0" encoding="utf-8" standalone="no"?>
<!DOCTYPE svg PUBLIC "-//W3C//DTD SVG 1.1//EN"
  "http://www.w3.org/Graphics/SVG/1.1/DTD/svg11.dtd">
<!-- Created with matplotlib (https://matplotlib.org/) -->
<svg height="432pt" version="1.1" viewBox="0 0 864 432" width="864pt" xmlns="http://www.w3.org/2000/svg" xmlns:xlink="http://www.w3.org/1999/xlink">
 <metadata>
  <rdf:RDF xmlns:cc="http://creativecommons.org/ns#" xmlns:dc="http://purl.org/dc/elements/1.1/" xmlns:rdf="http://www.w3.org/1999/02/22-rdf-syntax-ns#">
   <cc:Work>
    <dc:type rdf:resource="http://purl.org/dc/dcmitype/StillImage"/>
    <dc:date>2021-05-24T13:29:21.567188</dc:date>
    <dc:format>image/svg+xml</dc:format>
    <dc:creator>
     <cc:Agent>
      <dc:title>Matplotlib v3.3.4, https://matplotlib.org/</dc:title>
     </cc:Agent>
    </dc:creator>
   </cc:Work>
  </rdf:RDF>
 </metadata>
 <defs>
  <style type="text/css">*{stroke-linecap:butt;stroke-linejoin:round;}</style>
 </defs>
 <g id="figure_1">
  <g id="patch_1">
   <path d="M 0 432 
L 864 432 
L 864 0 
L 0 0 
z
" style="fill:#fdf6e3;"/>
  </g>
  <g id="axes_1">
   <g id="patch_2">
    <path d="M 108 378 
L 777.6 378 
L 777.6 51.84 
L 108 51.84 
z
" style="fill:#eee8d5;"/>
   </g>
   <g id="matplotlib.axis_1">
    <g id="xtick_1">
     <g id="line2d_1">
      <path clip-path="url(#p94f64fff56)" d="M 108 378 
L 108 51.84 
" style="fill:none;stroke:#fdf6e3;"/>
     </g>
     <g id="line2d_2">
      <defs>
       <path d="M 0 0 
L 0 3.5 
" id="maade6c4628" style="stroke:#657b83;stroke-width:0.8;"/>
      </defs>
      <g>
       <use style="fill:#657b83;stroke:#657b83;stroke-width:0.8;" x="108" xlink:href="#maade6c4628" y="378"/>
      </g>
     </g>
     <g id="text_1">
      <!-- 0 -->
      <g style="fill:#657b83;" transform="translate(104.81875 392.598437)scale(0.1 -0.1)">
       <defs>
        <path d="M 31.78125 66.40625 
Q 24.171875 66.40625 20.328125 58.90625 
Q 16.5 51.421875 16.5 36.375 
Q 16.5 21.390625 20.328125 13.890625 
Q 24.171875 6.390625 31.78125 6.390625 
Q 39.453125 6.390625 43.28125 13.890625 
Q 47.125 21.390625 47.125 36.375 
Q 47.125 51.421875 43.28125 58.90625 
Q 39.453125 66.40625 31.78125 66.40625 
z
M 31.78125 74.21875 
Q 44.046875 74.21875 50.515625 64.515625 
Q 56.984375 54.828125 56.984375 36.375 
Q 56.984375 17.96875 50.515625 8.265625 
Q 44.046875 -1.421875 31.78125 -1.421875 
Q 19.53125 -1.421875 13.0625 8.265625 
Q 6.59375 17.96875 6.59375 36.375 
Q 6.59375 54.828125 13.0625 64.515625 
Q 19.53125 74.21875 31.78125 74.21875 
z
" id="DejaVuSans-48"/>
       </defs>
       <use xlink:href="#DejaVuSans-48"/>
      </g>
     </g>
    </g>
    <g id="xtick_2">
     <g id="line2d_3">
      <path clip-path="url(#p94f64fff56)" d="M 191.7 378 
L 191.7 51.84 
" style="fill:none;stroke:#fdf6e3;"/>
     </g>
     <g id="line2d_4">
      <g>
       <use style="fill:#657b83;stroke:#657b83;stroke-width:0.8;" x="191.7" xlink:href="#maade6c4628" y="378"/>
      </g>
     </g>
     <g id="text_2">
      <!-- 25 -->
      <g style="fill:#657b83;" transform="translate(185.3375 392.598437)scale(0.1 -0.1)">
       <defs>
        <path d="M 19.1875 8.296875 
L 53.609375 8.296875 
L 53.609375 0 
L 7.328125 0 
L 7.328125 8.296875 
Q 12.9375 14.109375 22.625 23.890625 
Q 32.328125 33.6875 34.8125 36.53125 
Q 39.546875 41.84375 41.421875 45.53125 
Q 43.3125 49.21875 43.3125 52.78125 
Q 43.3125 58.59375 39.234375 62.25 
Q 35.15625 65.921875 28.609375 65.921875 
Q 23.96875 65.921875 18.8125 64.3125 
Q 13.671875 62.703125 7.8125 59.421875 
L 7.8125 69.390625 
Q 13.765625 71.78125 18.9375 73 
Q 24.125 74.21875 28.421875 74.21875 
Q 39.75 74.21875 46.484375 68.546875 
Q 53.21875 62.890625 53.21875 53.421875 
Q 53.21875 48.921875 51.53125 44.890625 
Q 49.859375 40.875 45.40625 35.40625 
Q 44.1875 33.984375 37.640625 27.21875 
Q 31.109375 20.453125 19.1875 8.296875 
z
" id="DejaVuSans-50"/>
        <path d="M 10.796875 72.90625 
L 49.515625 72.90625 
L 49.515625 64.59375 
L 19.828125 64.59375 
L 19.828125 46.734375 
Q 21.96875 47.46875 24.109375 47.828125 
Q 26.265625 48.1875 28.421875 48.1875 
Q 40.625 48.1875 47.75 41.5 
Q 54.890625 34.8125 54.890625 23.390625 
Q 54.890625 11.625 47.5625 5.09375 
Q 40.234375 -1.421875 26.90625 -1.421875 
Q 22.3125 -1.421875 17.546875 -0.640625 
Q 12.796875 0.140625 7.71875 1.703125 
L 7.71875 11.625 
Q 12.109375 9.234375 16.796875 8.0625 
Q 21.484375 6.890625 26.703125 6.890625 
Q 35.15625 6.890625 40.078125 11.328125 
Q 45.015625 15.765625 45.015625 23.390625 
Q 45.015625 31 40.078125 35.4375 
Q 35.15625 39.890625 26.703125 39.890625 
Q 22.75 39.890625 18.8125 39.015625 
Q 14.890625 38.140625 10.796875 36.28125 
z
" id="DejaVuSans-53"/>
       </defs>
       <use xlink:href="#DejaVuSans-50"/>
       <use x="63.623047" xlink:href="#DejaVuSans-53"/>
      </g>
     </g>
    </g>
    <g id="xtick_3">
     <g id="line2d_5">
      <path clip-path="url(#p94f64fff56)" d="M 275.4 378 
L 275.4 51.84 
" style="fill:none;stroke:#fdf6e3;"/>
     </g>
     <g id="line2d_6">
      <g>
       <use style="fill:#657b83;stroke:#657b83;stroke-width:0.8;" x="275.4" xlink:href="#maade6c4628" y="378"/>
      </g>
     </g>
     <g id="text_3">
      <!-- 50 -->
      <g style="fill:#657b83;" transform="translate(269.0375 392.598437)scale(0.1 -0.1)">
       <use xlink:href="#DejaVuSans-53"/>
       <use x="63.623047" xlink:href="#DejaVuSans-48"/>
      </g>
     </g>
    </g>
    <g id="xtick_4">
     <g id="line2d_7">
      <path clip-path="url(#p94f64fff56)" d="M 359.1 378 
L 359.1 51.84 
" style="fill:none;stroke:#fdf6e3;"/>
     </g>
     <g id="line2d_8">
      <g>
       <use style="fill:#657b83;stroke:#657b83;stroke-width:0.8;" x="359.1" xlink:href="#maade6c4628" y="378"/>
      </g>
     </g>
     <g id="text_4">
      <!-- 75 -->
      <g style="fill:#657b83;" transform="translate(352.7375 392.598437)scale(0.1 -0.1)">
       <defs>
        <path d="M 8.203125 72.90625 
L 55.078125 72.90625 
L 55.078125 68.703125 
L 28.609375 0 
L 18.3125 0 
L 43.21875 64.59375 
L 8.203125 64.59375 
z
" id="DejaVuSans-55"/>
       </defs>
       <use xlink:href="#DejaVuSans-55"/>
       <use x="63.623047" xlink:href="#DejaVuSans-53"/>
      </g>
     </g>
    </g>
    <g id="xtick_5">
     <g id="line2d_9">
      <path clip-path="url(#p94f64fff56)" d="M 442.8 378 
L 442.8 51.84 
" style="fill:none;stroke:#fdf6e3;"/>
     </g>
     <g id="line2d_10">
      <g>
       <use style="fill:#657b83;stroke:#657b83;stroke-width:0.8;" x="442.8" xlink:href="#maade6c4628" y="378"/>
      </g>
     </g>
     <g id="text_5">
      <!-- 100 -->
      <g style="fill:#657b83;" transform="translate(433.25625 392.598437)scale(0.1 -0.1)">
       <defs>
        <path d="M 12.40625 8.296875 
L 28.515625 8.296875 
L 28.515625 63.921875 
L 10.984375 60.40625 
L 10.984375 69.390625 
L 28.421875 72.90625 
L 38.28125 72.90625 
L 38.28125 8.296875 
L 54.390625 8.296875 
L 54.390625 0 
L 12.40625 0 
z
" id="DejaVuSans-49"/>
       </defs>
       <use xlink:href="#DejaVuSans-49"/>
       <use x="63.623047" xlink:href="#DejaVuSans-48"/>
       <use x="127.246094" xlink:href="#DejaVuSans-48"/>
      </g>
     </g>
    </g>
    <g id="xtick_6">
     <g id="line2d_11">
      <path clip-path="url(#p94f64fff56)" d="M 526.5 378 
L 526.5 51.84 
" style="fill:none;stroke:#fdf6e3;"/>
     </g>
     <g id="line2d_12">
      <g>
       <use style="fill:#657b83;stroke:#657b83;stroke-width:0.8;" x="526.5" xlink:href="#maade6c4628" y="378"/>
      </g>
     </g>
     <g id="text_6">
      <!-- 125 -->
      <g style="fill:#657b83;" transform="translate(516.95625 392.598437)scale(0.1 -0.1)">
       <use xlink:href="#DejaVuSans-49"/>
       <use x="63.623047" xlink:href="#DejaVuSans-50"/>
       <use x="127.246094" xlink:href="#DejaVuSans-53"/>
      </g>
     </g>
    </g>
    <g id="xtick_7">
     <g id="line2d_13">
      <path clip-path="url(#p94f64fff56)" d="M 610.2 378 
L 610.2 51.84 
" style="fill:none;stroke:#fdf6e3;"/>
     </g>
     <g id="line2d_14">
      <g>
       <use style="fill:#657b83;stroke:#657b83;stroke-width:0.8;" x="610.2" xlink:href="#maade6c4628" y="378"/>
      </g>
     </g>
     <g id="text_7">
      <!-- 150 -->
      <g style="fill:#657b83;" transform="translate(600.65625 392.598437)scale(0.1 -0.1)">
       <use xlink:href="#DejaVuSans-49"/>
       <use x="63.623047" xlink:href="#DejaVuSans-53"/>
       <use x="127.246094" xlink:href="#DejaVuSans-48"/>
      </g>
     </g>
    </g>
    <g id="xtick_8">
     <g id="line2d_15">
      <path clip-path="url(#p94f64fff56)" d="M 693.9 378 
L 693.9 51.84 
" style="fill:none;stroke:#fdf6e3;"/>
     </g>
     <g id="line2d_16">
      <g>
       <use style="fill:#657b83;stroke:#657b83;stroke-width:0.8;" x="693.9" xlink:href="#maade6c4628" y="378"/>
      </g>
     </g>
     <g id="text_8">
      <!-- 175 -->
      <g style="fill:#657b83;" transform="translate(684.35625 392.598437)scale(0.1 -0.1)">
       <use xlink:href="#DejaVuSans-49"/>
       <use x="63.623047" xlink:href="#DejaVuSans-55"/>
       <use x="127.246094" xlink:href="#DejaVuSans-53"/>
      </g>
     </g>
    </g>
    <g id="xtick_9">
     <g id="line2d_17">
      <path clip-path="url(#p94f64fff56)" d="M 777.6 378 
L 777.6 51.84 
" style="fill:none;stroke:#fdf6e3;"/>
     </g>
     <g id="line2d_18">
      <g>
       <use style="fill:#657b83;stroke:#657b83;stroke-width:0.8;" x="777.6" xlink:href="#maade6c4628" y="378"/>
      </g>
     </g>
     <g id="text_9">
      <!-- 200 -->
      <g style="fill:#657b83;" transform="translate(768.05625 392.598437)scale(0.1 -0.1)">
       <use xlink:href="#DejaVuSans-50"/>
       <use x="63.623047" xlink:href="#DejaVuSans-48"/>
       <use x="127.246094" xlink:href="#DejaVuSans-48"/>
      </g>
     </g>
    </g>
    <g id="text_10">
     <!-- Frequency (Hz) -->
     <g style="fill:#657b83;" transform="translate(397.554375 407.79625)scale(0.12 -0.12)">
      <defs>
       <path d="M 9.8125 72.90625 
L 51.703125 72.90625 
L 51.703125 64.59375 
L 19.671875 64.59375 
L 19.671875 43.109375 
L 48.578125 43.109375 
L 48.578125 34.8125 
L 19.671875 34.8125 
L 19.671875 0 
L 9.8125 0 
z
" id="DejaVuSans-70"/>
       <path d="M 41.109375 46.296875 
Q 39.59375 47.171875 37.8125 47.578125 
Q 36.03125 48 33.890625 48 
Q 26.265625 48 22.1875 43.046875 
Q 18.109375 38.09375 18.109375 28.8125 
L 18.109375 0 
L 9.078125 0 
L 9.078125 54.6875 
L 18.109375 54.6875 
L 18.109375 46.1875 
Q 20.953125 51.171875 25.484375 53.578125 
Q 30.03125 56 36.53125 56 
Q 37.453125 56 38.578125 55.875 
Q 39.703125 55.765625 41.0625 55.515625 
z
" id="DejaVuSans-114"/>
       <path d="M 56.203125 29.59375 
L 56.203125 25.203125 
L 14.890625 25.203125 
Q 15.484375 15.921875 20.484375 11.0625 
Q 25.484375 6.203125 34.421875 6.203125 
Q 39.59375 6.203125 44.453125 7.46875 
Q 49.3125 8.734375 54.109375 11.28125 
L 54.109375 2.78125 
Q 49.265625 0.734375 44.1875 -0.34375 
Q 39.109375 -1.421875 33.890625 -1.421875 
Q 20.796875 -1.421875 13.15625 6.1875 
Q 5.515625 13.8125 5.515625 26.8125 
Q 5.515625 40.234375 12.765625 48.109375 
Q 20.015625 56 32.328125 56 
Q 43.359375 56 49.78125 48.890625 
Q 56.203125 41.796875 56.203125 29.59375 
z
M 47.21875 32.234375 
Q 47.125 39.59375 43.09375 43.984375 
Q 39.0625 48.390625 32.421875 48.390625 
Q 24.90625 48.390625 20.390625 44.140625 
Q 15.875 39.890625 15.1875 32.171875 
z
" id="DejaVuSans-101"/>
       <path d="M 14.796875 27.296875 
Q 14.796875 17.390625 18.875 11.75 
Q 22.953125 6.109375 30.078125 6.109375 
Q 37.203125 6.109375 41.296875 11.75 
Q 45.40625 17.390625 45.40625 27.296875 
Q 45.40625 37.203125 41.296875 42.84375 
Q 37.203125 48.484375 30.078125 48.484375 
Q 22.953125 48.484375 18.875 42.84375 
Q 14.796875 37.203125 14.796875 27.296875 
z
M 45.40625 8.203125 
Q 42.578125 3.328125 38.25 0.953125 
Q 33.9375 -1.421875 27.875 -1.421875 
Q 17.96875 -1.421875 11.734375 6.484375 
Q 5.515625 14.40625 5.515625 27.296875 
Q 5.515625 40.1875 11.734375 48.09375 
Q 17.96875 56 27.875 56 
Q 33.9375 56 38.25 53.625 
Q 42.578125 51.265625 45.40625 46.390625 
L 45.40625 54.6875 
L 54.390625 54.6875 
L 54.390625 -20.796875 
L 45.40625 -20.796875 
z
" id="DejaVuSans-113"/>
       <path d="M 8.5 21.578125 
L 8.5 54.6875 
L 17.484375 54.6875 
L 17.484375 21.921875 
Q 17.484375 14.15625 20.5 10.265625 
Q 23.53125 6.390625 29.59375 6.390625 
Q 36.859375 6.390625 41.078125 11.03125 
Q 45.3125 15.671875 45.3125 23.6875 
L 45.3125 54.6875 
L 54.296875 54.6875 
L 54.296875 0 
L 45.3125 0 
L 45.3125 8.40625 
Q 42.046875 3.421875 37.71875 1 
Q 33.40625 -1.421875 27.6875 -1.421875 
Q 18.265625 -1.421875 13.375 4.4375 
Q 8.5 10.296875 8.5 21.578125 
z
M 31.109375 56 
z
" id="DejaVuSans-117"/>
       <path d="M 54.890625 33.015625 
L 54.890625 0 
L 45.90625 0 
L 45.90625 32.71875 
Q 45.90625 40.484375 42.875 44.328125 
Q 39.84375 48.1875 33.796875 48.1875 
Q 26.515625 48.1875 22.3125 43.546875 
Q 18.109375 38.921875 18.109375 30.90625 
L 18.109375 0 
L 9.078125 0 
L 9.078125 54.6875 
L 18.109375 54.6875 
L 18.109375 46.1875 
Q 21.34375 51.125 25.703125 53.5625 
Q 30.078125 56 35.796875 56 
Q 45.21875 56 50.046875 50.171875 
Q 54.890625 44.34375 54.890625 33.015625 
z
" id="DejaVuSans-110"/>
       <path d="M 48.78125 52.59375 
L 48.78125 44.1875 
Q 44.96875 46.296875 41.140625 47.34375 
Q 37.3125 48.390625 33.40625 48.390625 
Q 24.65625 48.390625 19.8125 42.84375 
Q 14.984375 37.3125 14.984375 27.296875 
Q 14.984375 17.28125 19.8125 11.734375 
Q 24.65625 6.203125 33.40625 6.203125 
Q 37.3125 6.203125 41.140625 7.25 
Q 44.96875 8.296875 48.78125 10.40625 
L 48.78125 2.09375 
Q 45.015625 0.34375 40.984375 -0.53125 
Q 36.96875 -1.421875 32.421875 -1.421875 
Q 20.0625 -1.421875 12.78125 6.34375 
Q 5.515625 14.109375 5.515625 27.296875 
Q 5.515625 40.671875 12.859375 48.328125 
Q 20.21875 56 33.015625 56 
Q 37.15625 56 41.109375 55.140625 
Q 45.0625 54.296875 48.78125 52.59375 
z
" id="DejaVuSans-99"/>
       <path d="M 32.171875 -5.078125 
Q 28.375 -14.84375 24.75 -17.8125 
Q 21.140625 -20.796875 15.09375 -20.796875 
L 7.90625 -20.796875 
L 7.90625 -13.28125 
L 13.1875 -13.28125 
Q 16.890625 -13.28125 18.9375 -11.515625 
Q 21 -9.765625 23.484375 -3.21875 
L 25.09375 0.875 
L 2.984375 54.6875 
L 12.5 54.6875 
L 29.59375 11.921875 
L 46.6875 54.6875 
L 56.203125 54.6875 
z
" id="DejaVuSans-121"/>
       <path id="DejaVuSans-32"/>
       <path d="M 31 75.875 
Q 24.46875 64.65625 21.28125 53.65625 
Q 18.109375 42.671875 18.109375 31.390625 
Q 18.109375 20.125 21.3125 9.0625 
Q 24.515625 -2 31 -13.1875 
L 23.1875 -13.1875 
Q 15.875 -1.703125 12.234375 9.375 
Q 8.59375 20.453125 8.59375 31.390625 
Q 8.59375 42.28125 12.203125 53.3125 
Q 15.828125 64.359375 23.1875 75.875 
z
" id="DejaVuSans-40"/>
       <path d="M 9.8125 72.90625 
L 19.671875 72.90625 
L 19.671875 43.015625 
L 55.515625 43.015625 
L 55.515625 72.90625 
L 65.375 72.90625 
L 65.375 0 
L 55.515625 0 
L 55.515625 34.71875 
L 19.671875 34.71875 
L 19.671875 0 
L 9.8125 0 
z
" id="DejaVuSans-72"/>
       <path d="M 5.515625 54.6875 
L 48.1875 54.6875 
L 48.1875 46.484375 
L 14.40625 7.171875 
L 48.1875 7.171875 
L 48.1875 0 
L 4.296875 0 
L 4.296875 8.203125 
L 38.09375 47.515625 
L 5.515625 47.515625 
z
" id="DejaVuSans-122"/>
       <path d="M 8.015625 75.875 
L 15.828125 75.875 
Q 23.140625 64.359375 26.78125 53.3125 
Q 30.421875 42.28125 30.421875 31.390625 
Q 30.421875 20.453125 26.78125 9.375 
Q 23.140625 -1.703125 15.828125 -13.1875 
L 8.015625 -13.1875 
Q 14.5 -2 17.703125 9.0625 
Q 20.90625 20.125 20.90625 31.390625 
Q 20.90625 42.671875 17.703125 53.65625 
Q 14.5 64.65625 8.015625 75.875 
z
" id="DejaVuSans-41"/>
      </defs>
      <use xlink:href="#DejaVuSans-70"/>
      <use x="50.269531" xlink:href="#DejaVuSans-114"/>
      <use x="89.132812" xlink:href="#DejaVuSans-101"/>
      <use x="150.65625" xlink:href="#DejaVuSans-113"/>
      <use x="214.132812" xlink:href="#DejaVuSans-117"/>
      <use x="277.511719" xlink:href="#DejaVuSans-101"/>
      <use x="339.035156" xlink:href="#DejaVuSans-110"/>
      <use x="402.414062" xlink:href="#DejaVuSans-99"/>
      <use x="457.394531" xlink:href="#DejaVuSans-121"/>
      <use x="516.574219" xlink:href="#DejaVuSans-32"/>
      <use x="548.361328" xlink:href="#DejaVuSans-40"/>
      <use x="587.375" xlink:href="#DejaVuSans-72"/>
      <use x="662.570312" xlink:href="#DejaVuSans-122"/>
      <use x="715.060547" xlink:href="#DejaVuSans-41"/>
     </g>
    </g>
   </g>
   <g id="matplotlib.axis_2">
    <g id="ytick_1">
     <g id="line2d_19">
      <path clip-path="url(#p94f64fff56)" d="M 108 363.174611 
L 777.6 363.174611 
" style="fill:none;stroke:#fdf6e3;"/>
     </g>
     <g id="line2d_20">
      <defs>
       <path d="M 0 0 
L -3.5 0 
" id="m94596189d8" style="stroke:#657b83;stroke-width:0.8;"/>
      </defs>
      <g>
       <use style="fill:#657b83;stroke:#657b83;stroke-width:0.8;" x="108" xlink:href="#m94596189d8" y="363.174611"/>
      </g>
     </g>
     <g id="text_11">
      <!-- 0 -->
      <g style="fill:#657b83;" transform="translate(94.6375 366.97383)scale(0.1 -0.1)">
       <use xlink:href="#DejaVuSans-48"/>
      </g>
     </g>
    </g>
    <g id="ytick_2">
     <g id="line2d_21">
      <path clip-path="url(#p94f64fff56)" d="M 108 308.344336 
L 777.6 308.344336 
" style="fill:none;stroke:#fdf6e3;"/>
     </g>
     <g id="line2d_22">
      <g>
       <use style="fill:#657b83;stroke:#657b83;stroke-width:0.8;" x="108" xlink:href="#m94596189d8" y="308.344336"/>
      </g>
     </g>
     <g id="text_12">
      <!-- 1 -->
      <g style="fill:#657b83;" transform="translate(94.6375 312.143555)scale(0.1 -0.1)">
       <use xlink:href="#DejaVuSans-49"/>
      </g>
     </g>
    </g>
    <g id="ytick_3">
     <g id="line2d_23">
      <path clip-path="url(#p94f64fff56)" d="M 108 253.514062 
L 777.6 253.514062 
" style="fill:none;stroke:#fdf6e3;"/>
     </g>
     <g id="line2d_24">
      <g>
       <use style="fill:#657b83;stroke:#657b83;stroke-width:0.8;" x="108" xlink:href="#m94596189d8" y="253.514062"/>
      </g>
     </g>
     <g id="text_13">
      <!-- 2 -->
      <g style="fill:#657b83;" transform="translate(94.6375 257.313281)scale(0.1 -0.1)">
       <use xlink:href="#DejaVuSans-50"/>
      </g>
     </g>
    </g>
    <g id="ytick_4">
     <g id="line2d_25">
      <path clip-path="url(#p94f64fff56)" d="M 108 198.683787 
L 777.6 198.683787 
" style="fill:none;stroke:#fdf6e3;"/>
     </g>
     <g id="line2d_26">
      <g>
       <use style="fill:#657b83;stroke:#657b83;stroke-width:0.8;" x="108" xlink:href="#m94596189d8" y="198.683787"/>
      </g>
     </g>
     <g id="text_14">
      <!-- 3 -->
      <g style="fill:#657b83;" transform="translate(94.6375 202.483006)scale(0.1 -0.1)">
       <defs>
        <path d="M 40.578125 39.3125 
Q 47.65625 37.796875 51.625 33 
Q 55.609375 28.21875 55.609375 21.1875 
Q 55.609375 10.40625 48.1875 4.484375 
Q 40.765625 -1.421875 27.09375 -1.421875 
Q 22.515625 -1.421875 17.65625 -0.515625 
Q 12.796875 0.390625 7.625 2.203125 
L 7.625 11.71875 
Q 11.71875 9.328125 16.59375 8.109375 
Q 21.484375 6.890625 26.8125 6.890625 
Q 36.078125 6.890625 40.9375 10.546875 
Q 45.796875 14.203125 45.796875 21.1875 
Q 45.796875 27.640625 41.28125 31.265625 
Q 36.765625 34.90625 28.71875 34.90625 
L 20.21875 34.90625 
L 20.21875 43.015625 
L 29.109375 43.015625 
Q 36.375 43.015625 40.234375 45.921875 
Q 44.09375 48.828125 44.09375 54.296875 
Q 44.09375 59.90625 40.109375 62.90625 
Q 36.140625 65.921875 28.71875 65.921875 
Q 24.65625 65.921875 20.015625 65.03125 
Q 15.375 64.15625 9.8125 62.3125 
L 9.8125 71.09375 
Q 15.4375 72.65625 20.34375 73.4375 
Q 25.25 74.21875 29.59375 74.21875 
Q 40.828125 74.21875 47.359375 69.109375 
Q 53.90625 64.015625 53.90625 55.328125 
Q 53.90625 49.265625 50.4375 45.09375 
Q 46.96875 40.921875 40.578125 39.3125 
z
" id="DejaVuSans-51"/>
       </defs>
       <use xlink:href="#DejaVuSans-51"/>
      </g>
     </g>
    </g>
    <g id="ytick_5">
     <g id="line2d_27">
      <path clip-path="url(#p94f64fff56)" d="M 108 143.853513 
L 777.6 143.853513 
" style="fill:none;stroke:#fdf6e3;"/>
     </g>
     <g id="line2d_28">
      <g>
       <use style="fill:#657b83;stroke:#657b83;stroke-width:0.8;" x="108" xlink:href="#m94596189d8" y="143.853513"/>
      </g>
     </g>
     <g id="text_15">
      <!-- 4 -->
      <g style="fill:#657b83;" transform="translate(94.6375 147.652731)scale(0.1 -0.1)">
       <defs>
        <path d="M 37.796875 64.3125 
L 12.890625 25.390625 
L 37.796875 25.390625 
z
M 35.203125 72.90625 
L 47.609375 72.90625 
L 47.609375 25.390625 
L 58.015625 25.390625 
L 58.015625 17.1875 
L 47.609375 17.1875 
L 47.609375 0 
L 37.796875 0 
L 37.796875 17.1875 
L 4.890625 17.1875 
L 4.890625 26.703125 
z
" id="DejaVuSans-52"/>
       </defs>
       <use xlink:href="#DejaVuSans-52"/>
      </g>
     </g>
    </g>
    <g id="ytick_6">
     <g id="line2d_29">
      <path clip-path="url(#p94f64fff56)" d="M 108 89.023238 
L 777.6 89.023238 
" style="fill:none;stroke:#fdf6e3;"/>
     </g>
     <g id="line2d_30">
      <g>
       <use style="fill:#657b83;stroke:#657b83;stroke-width:0.8;" x="108" xlink:href="#m94596189d8" y="89.023238"/>
      </g>
     </g>
     <g id="text_16">
      <!-- 5 -->
      <g style="fill:#657b83;" transform="translate(94.6375 92.822457)scale(0.1 -0.1)">
       <use xlink:href="#DejaVuSans-53"/>
      </g>
     </g>
    </g>
    <g id="text_17">
     <!-- Amplitude -->
     <g style="fill:#657b83;" transform="translate(88.141875 245.667187)rotate(-90)scale(0.12 -0.12)">
      <defs>
       <path d="M 34.1875 63.1875 
L 20.796875 26.90625 
L 47.609375 26.90625 
z
M 28.609375 72.90625 
L 39.796875 72.90625 
L 67.578125 0 
L 57.328125 0 
L 50.6875 18.703125 
L 17.828125 18.703125 
L 11.1875 0 
L 0.78125 0 
z
" id="DejaVuSans-65"/>
       <path d="M 52 44.1875 
Q 55.375 50.25 60.0625 53.125 
Q 64.75 56 71.09375 56 
Q 79.640625 56 84.28125 50.015625 
Q 88.921875 44.046875 88.921875 33.015625 
L 88.921875 0 
L 79.890625 0 
L 79.890625 32.71875 
Q 79.890625 40.578125 77.09375 44.375 
Q 74.3125 48.1875 68.609375 48.1875 
Q 61.625 48.1875 57.5625 43.546875 
Q 53.515625 38.921875 53.515625 30.90625 
L 53.515625 0 
L 44.484375 0 
L 44.484375 32.71875 
Q 44.484375 40.625 41.703125 44.40625 
Q 38.921875 48.1875 33.109375 48.1875 
Q 26.21875 48.1875 22.15625 43.53125 
Q 18.109375 38.875 18.109375 30.90625 
L 18.109375 0 
L 9.078125 0 
L 9.078125 54.6875 
L 18.109375 54.6875 
L 18.109375 46.1875 
Q 21.1875 51.21875 25.484375 53.609375 
Q 29.78125 56 35.6875 56 
Q 41.65625 56 45.828125 52.96875 
Q 50 49.953125 52 44.1875 
z
" id="DejaVuSans-109"/>
       <path d="M 18.109375 8.203125 
L 18.109375 -20.796875 
L 9.078125 -20.796875 
L 9.078125 54.6875 
L 18.109375 54.6875 
L 18.109375 46.390625 
Q 20.953125 51.265625 25.265625 53.625 
Q 29.59375 56 35.59375 56 
Q 45.5625 56 51.78125 48.09375 
Q 58.015625 40.1875 58.015625 27.296875 
Q 58.015625 14.40625 51.78125 6.484375 
Q 45.5625 -1.421875 35.59375 -1.421875 
Q 29.59375 -1.421875 25.265625 0.953125 
Q 20.953125 3.328125 18.109375 8.203125 
z
M 48.6875 27.296875 
Q 48.6875 37.203125 44.609375 42.84375 
Q 40.53125 48.484375 33.40625 48.484375 
Q 26.265625 48.484375 22.1875 42.84375 
Q 18.109375 37.203125 18.109375 27.296875 
Q 18.109375 17.390625 22.1875 11.75 
Q 26.265625 6.109375 33.40625 6.109375 
Q 40.53125 6.109375 44.609375 11.75 
Q 48.6875 17.390625 48.6875 27.296875 
z
" id="DejaVuSans-112"/>
       <path d="M 9.421875 75.984375 
L 18.40625 75.984375 
L 18.40625 0 
L 9.421875 0 
z
" id="DejaVuSans-108"/>
       <path d="M 9.421875 54.6875 
L 18.40625 54.6875 
L 18.40625 0 
L 9.421875 0 
z
M 9.421875 75.984375 
L 18.40625 75.984375 
L 18.40625 64.59375 
L 9.421875 64.59375 
z
" id="DejaVuSans-105"/>
       <path d="M 18.3125 70.21875 
L 18.3125 54.6875 
L 36.8125 54.6875 
L 36.8125 47.703125 
L 18.3125 47.703125 
L 18.3125 18.015625 
Q 18.3125 11.328125 20.140625 9.421875 
Q 21.96875 7.515625 27.59375 7.515625 
L 36.8125 7.515625 
L 36.8125 0 
L 27.59375 0 
Q 17.1875 0 13.234375 3.875 
Q 9.28125 7.765625 9.28125 18.015625 
L 9.28125 47.703125 
L 2.6875 47.703125 
L 2.6875 54.6875 
L 9.28125 54.6875 
L 9.28125 70.21875 
z
" id="DejaVuSans-116"/>
       <path d="M 45.40625 46.390625 
L 45.40625 75.984375 
L 54.390625 75.984375 
L 54.390625 0 
L 45.40625 0 
L 45.40625 8.203125 
Q 42.578125 3.328125 38.25 0.953125 
Q 33.9375 -1.421875 27.875 -1.421875 
Q 17.96875 -1.421875 11.734375 6.484375 
Q 5.515625 14.40625 5.515625 27.296875 
Q 5.515625 40.1875 11.734375 48.09375 
Q 17.96875 56 27.875 56 
Q 33.9375 56 38.25 53.625 
Q 42.578125 51.265625 45.40625 46.390625 
z
M 14.796875 27.296875 
Q 14.796875 17.390625 18.875 11.75 
Q 22.953125 6.109375 30.078125 6.109375 
Q 37.203125 6.109375 41.296875 11.75 
Q 45.40625 17.390625 45.40625 27.296875 
Q 45.40625 37.203125 41.296875 42.84375 
Q 37.203125 48.484375 30.078125 48.484375 
Q 22.953125 48.484375 18.875 42.84375 
Q 14.796875 37.203125 14.796875 27.296875 
z
" id="DejaVuSans-100"/>
      </defs>
      <use xlink:href="#DejaVuSans-65"/>
      <use x="68.408203" xlink:href="#DejaVuSans-109"/>
      <use x="165.820312" xlink:href="#DejaVuSans-112"/>
      <use x="229.296875" xlink:href="#DejaVuSans-108"/>
      <use x="257.080078" xlink:href="#DejaVuSans-105"/>
      <use x="284.863281" xlink:href="#DejaVuSans-116"/>
      <use x="324.072266" xlink:href="#DejaVuSans-117"/>
      <use x="387.451172" xlink:href="#DejaVuSans-100"/>
      <use x="450.927734" xlink:href="#DejaVuSans-101"/>
     </g>
    </g>
   </g>
   <g id="line2d_31">
    <path clip-path="url(#p94f64fff56)" d="M 108 321.820331 
L 111.348 324.264197 
L 114.696 330.855255 
L 118.044 352.591565 
L 121.392 354.339163 
L 124.74 360.402896 
L 128.088 341.975405 
L 131.436 277.659093 
L 134.784 313.461814 
L 138.132 274.262967 
L 141.48 277.797544 
L 144.828 355.520197 
L 148.176 346.530619 
L 151.524 360.66099 
L 154.872 339.131598 
L 158.22 356.557618 
L 161.568 330.171966 
L 164.916 316.313939 
L 168.264 341.800034 
L 171.612 353.157211 
L 174.96 361.911504 
L 178.308 346.532178 
L 181.656 340.327134 
L 185.004 345.600757 
L 188.352 346.590454 
L 191.7 344.842184 
L 195.048 344.31018 
L 198.396 335.536485 
L 201.744 346.686072 
L 205.092 361.844484 
L 208.44 346.775818 
L 211.788 330.953191 
L 215.136 337.229115 
L 218.484 346.429555 
L 221.832 337.073857 
L 225.18 339.090707 
L 228.528 351.477044 
L 231.876 338.168566 
L 235.224 343.687886 
L 238.572 358.333611 
L 241.92 363.15957 
L 245.268 351.835988 
L 248.616 362.338129 
L 251.964 344.471084 
L 255.312 352.467791 
L 258.66 356.08234 
L 262.008 353.931975 
L 265.356 355.272267 
L 268.704 355.200799 
L 272.052 363.056247 
L 275.4 358.644424 
L 278.748 360.575396 
L 282.096 356.667065 
L 285.444 349.858276 
L 288.792 353.476736 
L 292.14 354.604393 
L 295.488 345.377082 
L 298.836 353.77847 
L 302.184 359.549014 
L 305.532 360.586356 
L 308.88 357.596037 
L 312.228 358.954523 
L 315.576 352.257172 
L 318.924 352.059835 
L 322.272 362.990127 
L 325.62 356.044855 
L 328.968 356.265743 
L 332.316 354.73963 
L 335.664 358.44452 
L 339.012 352.06959 
L 342.36 342.219834 
L 345.708 343.855229 
L 352.404 357.814298 
L 355.752 358.451833 
L 359.1 362.883468 
L 362.448 357.78179 
L 365.796 363.028898 
L 369.144 361.0234 
L 372.492 360.815319 
L 375.84 361.315335 
L 379.188 356.231615 
L 382.536 362.818761 
L 385.884 362.850055 
L 389.232 357.53261 
L 392.58 362.479725 
L 395.928 362.353606 
L 399.276 357.894742 
L 402.624 362.991592 
L 405.972 359.298583 
L 409.32 361.308911 
L 412.668 361.029833 
L 416.016 357.664576 
L 419.364 355.684843 
L 422.712 362.005452 
L 426.06 359.237251 
L 429.408 357.303891 
L 432.756 359.378773 
L 436.104 362.83665 
L 439.452 360.727591 
L 442.8 358.961813 
L 446.148 361.313393 
L 449.496 359.868948 
L 452.844 360.072049 
L 456.192 356.357887 
L 459.54 353.16647 
L 462.888 351.734741 
L 466.236 357.155656 
L 469.584 361.79627 
L 472.932 359.732432 
L 476.28 359.6962 
L 479.628 356.201921 
L 482.976 355.131897 
L 486.324 357.245377 
L 489.672 358.687191 
L 493.02 361.75869 
L 496.368 360.388955 
L 499.716 356.450712 
L 503.064 357.782398 
L 506.412 361.880208 
L 509.76 359.700541 
L 513.108 358.924446 
L 516.456 363.013438 
L 519.804 362.709886 
L 523.152 360.682088 
L 526.5 359.901909 
L 529.848 362.264094 
L 533.196 359.82967 
L 536.544 359.471264 
L 539.892 358.069574 
L 543.24 361.479122 
L 546.588 359.9224 
L 549.936 358.916405 
L 553.284 359.481888 
L 556.632 359.398684 
L 559.98 361.823753 
L 563.328 362.27251 
L 566.676 359.836042 
L 570.024 355.992142 
L 573.372 357.404416 
L 576.72 361.979516 
L 580.068 360.186705 
L 583.416 356.699401 
L 586.764 357.135887 
L 590.112 362.945742 
L 593.46 358.384985 
L 596.808 358.385274 
L 600.156 359.732785 
L 603.504 358.294612 
L 606.852 360.040821 
L 610.2 361.459302 
L 613.548 361.837641 
L 616.896 353.664613 
L 620.244 353.295326 
L 623.592 361.101477 
L 626.94 358.272717 
L 630.288 355.695095 
L 633.636 360.519243 
L 636.984 350.054656 
L 640.332 357.938811 
L 643.68 357.768463 
L 647.028 360.222597 
L 650.376 357.275185 
L 653.724 356.821716 
L 657.072 361.377586 
L 660.42 361.966348 
L 663.768 361.887997 
L 667.116 360.091948 
L 670.464 362.305533 
L 673.812 362.977448 
L 677.16 362.292017 
L 680.508 362.925415 
L 683.856 357.931624 
L 687.204 356.939243 
L 690.552 362.272171 
L 693.9 361.383379 
L 697.248 361.681622 
L 700.596 362.641684 
L 703.944 360.230348 
L 707.292 362.614066 
L 710.64 359.17105 
L 713.988 357.047431 
L 717.336 357.998192 
L 720.684 360.648797 
L 724.032 362.114734 
L 727.38 362.303596 
L 730.728 362.813642 
L 734.076 362.673129 
L 737.424 359.868032 
L 740.772 356.651655 
L 744.12 362.987942 
L 747.468 356.778307 
L 750.816 360.277506 
L 754.164 362.749632 
L 757.512 360.62729 
L 760.86 358.715209 
L 764.208 359.95241 
L 767.556 361.596731 
L 770.904 360.85237 
L 774.252 362.640535 
L 777.6 362.778926 
L 780.948 362.043077 
L 780.948 362.043077 
" style="fill:none;stroke:#2aa198;stroke-opacity:0.6;stroke-width:2;"/>
   </g>
   <g id="line2d_32">
    <path clip-path="url(#p94f64fff56)" d="M 108 355.954953 
L 111.348 357.159119 
L 114.696 332.944318 
L 118.044 301.261639 
L 121.392 333.905945 
L 124.74 350.911291 
L 128.088 362.579353 
L 131.436 277.604208 
L 134.784 66.665455 
L 138.132 126.66433 
L 141.48 347.006395 
L 144.828 340.266473 
L 148.176 361.483217 
L 151.524 361.706326 
L 154.872 354.552852 
L 158.22 338.344452 
L 161.568 295.075352 
L 164.916 299.949278 
L 168.264 348.96937 
L 171.612 315.76326 
L 174.96 322.359019 
L 178.308 328.433982 
L 181.656 345.241878 
L 185.004 349.774863 
L 188.352 352.718189 
L 191.7 348.843704 
L 195.048 338.730884 
L 198.396 361.609026 
L 201.744 348.857337 
L 205.092 358.787251 
L 208.44 358.606586 
L 211.788 343.816848 
L 215.136 341.837555 
L 218.484 357.153931 
L 221.832 355.454395 
L 225.18 358.98939 
L 228.528 361.337201 
L 231.876 344.257522 
L 235.224 343.761269 
L 238.572 358.183753 
L 241.92 352.714916 
L 248.616 336.956789 
L 251.964 354.843763 
L 255.312 357.01381 
L 258.66 349.423671 
L 262.008 345.241397 
L 265.356 353.4917 
L 268.704 362.52377 
L 272.052 362.881834 
L 275.4 360.776032 
L 278.748 359.276304 
L 282.096 349.685722 
L 285.444 353.628517 
L 288.792 359.635244 
L 292.14 353.391616 
L 295.488 359.672298 
L 298.836 357.051745 
L 302.184 355.930711 
L 305.532 344.365794 
L 308.88 354.352759 
L 312.228 362.916137 
L 315.576 361.052167 
L 318.924 359.963443 
L 322.272 355.889538 
L 325.62 356.244645 
L 328.968 358.823639 
L 332.316 362.087874 
L 335.664 362.427358 
L 339.012 363.11694 
L 342.36 352.060633 
L 345.708 344.431036 
L 349.056 351.9337 
L 352.404 362.478992 
L 355.752 358.578151 
L 359.1 356.636334 
L 362.448 348.87833 
L 365.796 353.841506 
L 369.144 362.41874 
L 372.492 356.836485 
L 375.84 347.361119 
L 379.188 352.73868 
L 382.536 360.435552 
L 385.884 360.824048 
L 389.232 361.913276 
L 392.58 355.115261 
L 395.928 352.295701 
L 399.276 359.275744 
L 402.624 358.105655 
L 405.972 352.745242 
L 409.32 353.239422 
L 412.668 357.331435 
L 416.016 360.760413 
L 419.364 358.455397 
L 422.712 354.566484 
L 426.06 357.487395 
L 429.408 361.156274 
L 432.756 363.100089 
L 436.104 361.186457 
L 439.452 362.064674 
L 442.8 356.057826 
L 446.148 356.94485 
L 449.496 361.469661 
L 452.844 362.638472 
L 456.192 357.380849 
L 459.54 358.663675 
L 462.888 361.909617 
L 466.236 359.45668 
L 469.584 353.872223 
L 472.932 353.620069 
L 476.28 356.18151 
L 479.628 356.727022 
L 482.976 358.318174 
L 486.324 362.743988 
L 489.672 360.150099 
L 493.02 356.584338 
L 496.368 352.106302 
L 499.716 351.203093 
L 503.064 357.90168 
L 506.412 362.699441 
L 509.76 358.302664 
L 513.108 356.737689 
L 516.456 360.890305 
L 519.804 362.617582 
L 523.152 361.959913 
L 526.5 361.615634 
L 529.848 360.597259 
L 533.196 360.945129 
L 536.544 356.723429 
L 539.892 355.262564 
L 543.24 358.419362 
L 546.588 362.611721 
L 549.936 360.086602 
L 553.284 358.682775 
L 556.632 357.921117 
L 559.98 360.154177 
L 563.328 361.766622 
L 566.676 361.722 
L 570.024 360.967722 
L 573.372 359.231298 
L 576.72 361.188609 
L 580.068 362.222598 
L 583.416 362.098096 
L 586.764 358.899378 
L 590.112 361.875101 
L 593.46 360.119412 
L 596.808 361.673061 
L 600.156 361.253232 
L 606.852 362.289683 
L 610.2 362.738668 
L 613.548 361.077742 
L 616.896 360.253214 
L 620.244 362.372088 
L 623.592 361.708525 
L 626.94 358.105896 
L 630.288 358.791713 
L 633.636 362.074606 
L 640.332 359.576427 
L 643.68 360.430116 
L 647.028 361.109089 
L 650.376 361.543432 
L 653.724 360.130399 
L 657.072 361.33312 
L 660.42 362.899663 
L 663.768 362.82624 
L 667.116 360.620642 
L 670.464 360.492943 
L 673.812 360.074436 
L 677.16 358.405039 
L 680.508 361.15804 
L 683.856 360.842636 
L 687.204 358.643252 
L 690.552 361.950657 
L 693.9 363.115723 
L 697.248 361.88579 
L 700.596 362.213763 
L 703.944 361.375034 
L 707.292 361.324265 
L 710.64 360.406833 
L 713.988 355.878654 
L 717.336 358.248489 
L 724.032 361.869906 
L 727.38 361.207488 
L 730.728 359.333704 
L 734.076 359.13599 
L 737.424 359.435051 
L 740.772 362.881868 
L 744.12 359.901068 
L 747.468 360.14093 
L 750.816 362.232533 
L 754.164 362.613001 
L 757.512 361.243009 
L 760.86 361.457183 
L 764.208 363.128136 
L 767.556 362.746409 
L 770.904 361.654609 
L 774.252 359.177071 
L 777.6 358.400571 
L 780.948 360.315938 
L 780.948 360.315938 
" style="fill:none;stroke:#dc322f;stroke-opacity:0.6;stroke-width:2;"/>
   </g>
   <g id="patch_3">
    <path d="M 108 378 
L 108 51.84 
" style="fill:none;stroke:#eee8d5;stroke-linecap:square;stroke-linejoin:miter;stroke-width:0.8;"/>
   </g>
   <g id="patch_4">
    <path d="M 777.6 378 
L 777.6 51.84 
" style="fill:none;stroke:#eee8d5;stroke-linecap:square;stroke-linejoin:miter;stroke-width:0.8;"/>
   </g>
   <g id="patch_5">
    <path d="M 108 378 
L 777.6 378 
" style="fill:none;stroke:#eee8d5;stroke-linecap:square;stroke-linejoin:miter;stroke-width:0.8;"/>
   </g>
   <g id="patch_6">
    <path d="M 108 51.84 
L 777.6 51.84 
" style="fill:none;stroke:#eee8d5;stroke-linecap:square;stroke-linejoin:miter;stroke-width:0.8;"/>
   </g>
   <g id="text_18">
    <!-- Short Time Fourier Transform for the first 128ms Window -->
    <g transform="translate(215.1025 45.84)scale(0.16 -0.16)">
     <defs>
      <path d="M 53.515625 70.515625 
L 53.515625 60.890625 
Q 47.90625 63.578125 42.921875 64.890625 
Q 37.9375 66.21875 33.296875 66.21875 
Q 25.25 66.21875 20.875 63.09375 
Q 16.5 59.96875 16.5 54.203125 
Q 16.5 49.359375 19.40625 46.890625 
Q 22.3125 44.4375 30.421875 42.921875 
L 36.375 41.703125 
Q 47.40625 39.59375 52.65625 34.296875 
Q 57.90625 29 57.90625 20.125 
Q 57.90625 9.515625 50.796875 4.046875 
Q 43.703125 -1.421875 29.984375 -1.421875 
Q 24.8125 -1.421875 18.96875 -0.25 
Q 13.140625 0.921875 6.890625 3.21875 
L 6.890625 13.375 
Q 12.890625 10.015625 18.65625 8.296875 
Q 24.421875 6.59375 29.984375 6.59375 
Q 38.421875 6.59375 43.015625 9.90625 
Q 47.609375 13.234375 47.609375 19.390625 
Q 47.609375 24.75 44.3125 27.78125 
Q 41.015625 30.8125 33.5 32.328125 
L 27.484375 33.5 
Q 16.453125 35.6875 11.515625 40.375 
Q 6.59375 45.0625 6.59375 53.421875 
Q 6.59375 63.09375 13.40625 68.65625 
Q 20.21875 74.21875 32.171875 74.21875 
Q 37.3125 74.21875 42.625 73.28125 
Q 47.953125 72.359375 53.515625 70.515625 
z
" id="DejaVuSans-83"/>
      <path d="M 54.890625 33.015625 
L 54.890625 0 
L 45.90625 0 
L 45.90625 32.71875 
Q 45.90625 40.484375 42.875 44.328125 
Q 39.84375 48.1875 33.796875 48.1875 
Q 26.515625 48.1875 22.3125 43.546875 
Q 18.109375 38.921875 18.109375 30.90625 
L 18.109375 0 
L 9.078125 0 
L 9.078125 75.984375 
L 18.109375 75.984375 
L 18.109375 46.1875 
Q 21.34375 51.125 25.703125 53.5625 
Q 30.078125 56 35.796875 56 
Q 45.21875 56 50.046875 50.171875 
Q 54.890625 44.34375 54.890625 33.015625 
z
" id="DejaVuSans-104"/>
      <path d="M 30.609375 48.390625 
Q 23.390625 48.390625 19.1875 42.75 
Q 14.984375 37.109375 14.984375 27.296875 
Q 14.984375 17.484375 19.15625 11.84375 
Q 23.34375 6.203125 30.609375 6.203125 
Q 37.796875 6.203125 41.984375 11.859375 
Q 46.1875 17.53125 46.1875 27.296875 
Q 46.1875 37.015625 41.984375 42.703125 
Q 37.796875 48.390625 30.609375 48.390625 
z
M 30.609375 56 
Q 42.328125 56 49.015625 48.375 
Q 55.71875 40.765625 55.71875 27.296875 
Q 55.71875 13.875 49.015625 6.21875 
Q 42.328125 -1.421875 30.609375 -1.421875 
Q 18.84375 -1.421875 12.171875 6.21875 
Q 5.515625 13.875 5.515625 27.296875 
Q 5.515625 40.765625 12.171875 48.375 
Q 18.84375 56 30.609375 56 
z
" id="DejaVuSans-111"/>
      <path d="M -0.296875 72.90625 
L 61.375 72.90625 
L 61.375 64.59375 
L 35.5 64.59375 
L 35.5 0 
L 25.59375 0 
L 25.59375 64.59375 
L -0.296875 64.59375 
z
" id="DejaVuSans-84"/>
      <path d="M 34.28125 27.484375 
Q 23.390625 27.484375 19.1875 25 
Q 14.984375 22.515625 14.984375 16.5 
Q 14.984375 11.71875 18.140625 8.90625 
Q 21.296875 6.109375 26.703125 6.109375 
Q 34.1875 6.109375 38.703125 11.40625 
Q 43.21875 16.703125 43.21875 25.484375 
L 43.21875 27.484375 
z
M 52.203125 31.203125 
L 52.203125 0 
L 43.21875 0 
L 43.21875 8.296875 
Q 40.140625 3.328125 35.546875 0.953125 
Q 30.953125 -1.421875 24.3125 -1.421875 
Q 15.921875 -1.421875 10.953125 3.296875 
Q 6 8.015625 6 15.921875 
Q 6 25.140625 12.171875 29.828125 
Q 18.359375 34.515625 30.609375 34.515625 
L 43.21875 34.515625 
L 43.21875 35.40625 
Q 43.21875 41.609375 39.140625 45 
Q 35.0625 48.390625 27.6875 48.390625 
Q 23 48.390625 18.546875 47.265625 
Q 14.109375 46.140625 10.015625 43.890625 
L 10.015625 52.203125 
Q 14.9375 54.109375 19.578125 55.046875 
Q 24.21875 56 28.609375 56 
Q 40.484375 56 46.34375 49.84375 
Q 52.203125 43.703125 52.203125 31.203125 
z
" id="DejaVuSans-97"/>
      <path d="M 44.28125 53.078125 
L 44.28125 44.578125 
Q 40.484375 46.53125 36.375 47.5 
Q 32.28125 48.484375 27.875 48.484375 
Q 21.1875 48.484375 17.84375 46.4375 
Q 14.5 44.390625 14.5 40.28125 
Q 14.5 37.15625 16.890625 35.375 
Q 19.28125 33.59375 26.515625 31.984375 
L 29.59375 31.296875 
Q 39.15625 29.25 43.1875 25.515625 
Q 47.21875 21.78125 47.21875 15.09375 
Q 47.21875 7.46875 41.1875 3.015625 
Q 35.15625 -1.421875 24.609375 -1.421875 
Q 20.21875 -1.421875 15.453125 -0.5625 
Q 10.6875 0.296875 5.421875 2 
L 5.421875 11.28125 
Q 10.40625 8.6875 15.234375 7.390625 
Q 20.0625 6.109375 24.8125 6.109375 
Q 31.15625 6.109375 34.5625 8.28125 
Q 37.984375 10.453125 37.984375 14.40625 
Q 37.984375 18.0625 35.515625 20.015625 
Q 33.0625 21.96875 24.703125 23.78125 
L 21.578125 24.515625 
Q 13.234375 26.265625 9.515625 29.90625 
Q 5.8125 33.546875 5.8125 39.890625 
Q 5.8125 47.609375 11.28125 51.796875 
Q 16.75 56 26.8125 56 
Q 31.78125 56 36.171875 55.265625 
Q 40.578125 54.546875 44.28125 53.078125 
z
" id="DejaVuSans-115"/>
      <path d="M 37.109375 75.984375 
L 37.109375 68.5 
L 28.515625 68.5 
Q 23.6875 68.5 21.796875 66.546875 
Q 19.921875 64.59375 19.921875 59.515625 
L 19.921875 54.6875 
L 34.71875 54.6875 
L 34.71875 47.703125 
L 19.921875 47.703125 
L 19.921875 0 
L 10.890625 0 
L 10.890625 47.703125 
L 2.296875 47.703125 
L 2.296875 54.6875 
L 10.890625 54.6875 
L 10.890625 58.5 
Q 10.890625 67.625 15.140625 71.796875 
Q 19.390625 75.984375 28.609375 75.984375 
z
" id="DejaVuSans-102"/>
      <path d="M 31.78125 34.625 
Q 24.75 34.625 20.71875 30.859375 
Q 16.703125 27.09375 16.703125 20.515625 
Q 16.703125 13.921875 20.71875 10.15625 
Q 24.75 6.390625 31.78125 6.390625 
Q 38.8125 6.390625 42.859375 10.171875 
Q 46.921875 13.96875 46.921875 20.515625 
Q 46.921875 27.09375 42.890625 30.859375 
Q 38.875 34.625 31.78125 34.625 
z
M 21.921875 38.8125 
Q 15.578125 40.375 12.03125 44.71875 
Q 8.5 49.078125 8.5 55.328125 
Q 8.5 64.0625 14.71875 69.140625 
Q 20.953125 74.21875 31.78125 74.21875 
Q 42.671875 74.21875 48.875 69.140625 
Q 55.078125 64.0625 55.078125 55.328125 
Q 55.078125 49.078125 51.53125 44.71875 
Q 48 40.375 41.703125 38.8125 
Q 48.828125 37.15625 52.796875 32.3125 
Q 56.78125 27.484375 56.78125 20.515625 
Q 56.78125 9.90625 50.3125 4.234375 
Q 43.84375 -1.421875 31.78125 -1.421875 
Q 19.734375 -1.421875 13.25 4.234375 
Q 6.78125 9.90625 6.78125 20.515625 
Q 6.78125 27.484375 10.78125 32.3125 
Q 14.796875 37.15625 21.921875 38.8125 
z
M 18.3125 54.390625 
Q 18.3125 48.734375 21.84375 45.5625 
Q 25.390625 42.390625 31.78125 42.390625 
Q 38.140625 42.390625 41.71875 45.5625 
Q 45.3125 48.734375 45.3125 54.390625 
Q 45.3125 60.0625 41.71875 63.234375 
Q 38.140625 66.40625 31.78125 66.40625 
Q 25.390625 66.40625 21.84375 63.234375 
Q 18.3125 60.0625 18.3125 54.390625 
z
" id="DejaVuSans-56"/>
      <path d="M 3.328125 72.90625 
L 13.28125 72.90625 
L 28.609375 11.28125 
L 43.890625 72.90625 
L 54.984375 72.90625 
L 70.3125 11.28125 
L 85.59375 72.90625 
L 95.609375 72.90625 
L 77.296875 0 
L 64.890625 0 
L 49.515625 63.28125 
L 33.984375 0 
L 21.578125 0 
z
" id="DejaVuSans-87"/>
      <path d="M 4.203125 54.6875 
L 13.1875 54.6875 
L 24.421875 12.015625 
L 35.59375 54.6875 
L 46.1875 54.6875 
L 57.421875 12.015625 
L 68.609375 54.6875 
L 77.59375 54.6875 
L 63.28125 0 
L 52.6875 0 
L 40.921875 44.828125 
L 29.109375 0 
L 18.5 0 
z
" id="DejaVuSans-119"/>
     </defs>
     <use xlink:href="#DejaVuSans-83"/>
     <use x="63.476562" xlink:href="#DejaVuSans-104"/>
     <use x="126.855469" xlink:href="#DejaVuSans-111"/>
     <use x="188.037109" xlink:href="#DejaVuSans-114"/>
     <use x="229.150391" xlink:href="#DejaVuSans-116"/>
     <use x="268.359375" xlink:href="#DejaVuSans-32"/>
     <use x="300.146484" xlink:href="#DejaVuSans-84"/>
     <use x="358.105469" xlink:href="#DejaVuSans-105"/>
     <use x="385.888672" xlink:href="#DejaVuSans-109"/>
     <use x="483.300781" xlink:href="#DejaVuSans-101"/>
     <use x="544.824219" xlink:href="#DejaVuSans-32"/>
     <use x="576.611328" xlink:href="#DejaVuSans-70"/>
     <use x="630.505859" xlink:href="#DejaVuSans-111"/>
     <use x="691.6875" xlink:href="#DejaVuSans-117"/>
     <use x="755.066406" xlink:href="#DejaVuSans-114"/>
     <use x="796.179688" xlink:href="#DejaVuSans-105"/>
     <use x="823.962891" xlink:href="#DejaVuSans-101"/>
     <use x="885.486328" xlink:href="#DejaVuSans-114"/>
     <use x="926.599609" xlink:href="#DejaVuSans-32"/>
     <use x="958.386719" xlink:href="#DejaVuSans-84"/>
     <use x="1004.720703" xlink:href="#DejaVuSans-114"/>
     <use x="1045.833984" xlink:href="#DejaVuSans-97"/>
     <use x="1107.113281" xlink:href="#DejaVuSans-110"/>
     <use x="1170.492188" xlink:href="#DejaVuSans-115"/>
     <use x="1222.591797" xlink:href="#DejaVuSans-102"/>
     <use x="1257.796875" xlink:href="#DejaVuSans-111"/>
     <use x="1318.978516" xlink:href="#DejaVuSans-114"/>
     <use x="1358.341797" xlink:href="#DejaVuSans-109"/>
     <use x="1455.753906" xlink:href="#DejaVuSans-32"/>
     <use x="1487.541016" xlink:href="#DejaVuSans-102"/>
     <use x="1522.746094" xlink:href="#DejaVuSans-111"/>
     <use x="1583.927734" xlink:href="#DejaVuSans-114"/>
     <use x="1625.041016" xlink:href="#DejaVuSans-32"/>
     <use x="1656.828125" xlink:href="#DejaVuSans-116"/>
     <use x="1696.037109" xlink:href="#DejaVuSans-104"/>
     <use x="1759.416016" xlink:href="#DejaVuSans-101"/>
     <use x="1820.939453" xlink:href="#DejaVuSans-32"/>
     <use x="1852.726562" xlink:href="#DejaVuSans-102"/>
     <use x="1887.931641" xlink:href="#DejaVuSans-105"/>
     <use x="1915.714844" xlink:href="#DejaVuSans-114"/>
     <use x="1956.828125" xlink:href="#DejaVuSans-115"/>
     <use x="2008.927734" xlink:href="#DejaVuSans-116"/>
     <use x="2048.136719" xlink:href="#DejaVuSans-32"/>
     <use x="2079.923828" xlink:href="#DejaVuSans-49"/>
     <use x="2143.546875" xlink:href="#DejaVuSans-50"/>
     <use x="2207.169922" xlink:href="#DejaVuSans-56"/>
     <use x="2270.792969" xlink:href="#DejaVuSans-109"/>
     <use x="2368.205078" xlink:href="#DejaVuSans-115"/>
     <use x="2420.304688" xlink:href="#DejaVuSans-32"/>
     <use x="2452.091797" xlink:href="#DejaVuSans-87"/>
     <use x="2548.71875" xlink:href="#DejaVuSans-105"/>
     <use x="2576.501953" xlink:href="#DejaVuSans-110"/>
     <use x="2639.880859" xlink:href="#DejaVuSans-100"/>
     <use x="2703.357422" xlink:href="#DejaVuSans-111"/>
     <use x="2764.539062" xlink:href="#DejaVuSans-119"/>
    </g>
   </g>
   <g id="legend_1">
    <g id="patch_7">
     <path d="M 566.240625 89.7525 
L 770.6 89.7525 
Q 772.6 89.7525 772.6 87.7525 
L 772.6 58.84 
Q 772.6 56.84 770.6 56.84 
L 566.240625 56.84 
Q 564.240625 56.84 564.240625 58.84 
L 564.240625 87.7525 
Q 564.240625 89.7525 566.240625 89.7525 
z
" style="fill:#eee8d5;opacity:0.8;stroke:#cccccc;stroke-linejoin:miter;"/>
    </g>
    <g id="line2d_33">
     <path d="M 568.240625 64.938438 
L 588.240625 64.938438 
" style="fill:none;stroke:#2aa198;stroke-opacity:0.6;stroke-width:2;"/>
    </g>
    <g id="line2d_34"/>
    <g id="text_19">
     <!-- Machine #id_00 - Normal Signal -->
     <g transform="translate(596.240625 68.438438)scale(0.1 -0.1)">
      <defs>
       <path d="M 9.8125 72.90625 
L 24.515625 72.90625 
L 43.109375 23.296875 
L 61.8125 72.90625 
L 76.515625 72.90625 
L 76.515625 0 
L 66.890625 0 
L 66.890625 64.015625 
L 48.09375 14.015625 
L 38.1875 14.015625 
L 19.390625 64.015625 
L 19.390625 0 
L 9.8125 0 
z
" id="DejaVuSans-77"/>
       <path d="M 51.125 44 
L 36.921875 44 
L 32.8125 27.6875 
L 47.125 27.6875 
z
M 43.796875 71.78125 
L 38.71875 51.515625 
L 52.984375 51.515625 
L 58.109375 71.78125 
L 65.921875 71.78125 
L 60.890625 51.515625 
L 76.125 51.515625 
L 76.125 44 
L 58.984375 44 
L 54.984375 27.6875 
L 70.515625 27.6875 
L 70.515625 20.21875 
L 53.078125 20.21875 
L 48 0 
L 40.1875 0 
L 45.21875 20.21875 
L 30.90625 20.21875 
L 25.875 0 
L 18.015625 0 
L 23.09375 20.21875 
L 7.71875 20.21875 
L 7.71875 27.6875 
L 24.90625 27.6875 
L 29 44 
L 13.28125 44 
L 13.28125 51.515625 
L 30.90625 51.515625 
L 35.890625 71.78125 
z
" id="DejaVuSans-35"/>
       <path d="M 50.984375 -16.609375 
L 50.984375 -23.578125 
L -0.984375 -23.578125 
L -0.984375 -16.609375 
z
" id="DejaVuSans-95"/>
       <path d="M 4.890625 31.390625 
L 31.203125 31.390625 
L 31.203125 23.390625 
L 4.890625 23.390625 
z
" id="DejaVuSans-45"/>
       <path d="M 9.8125 72.90625 
L 23.09375 72.90625 
L 55.421875 11.921875 
L 55.421875 72.90625 
L 64.984375 72.90625 
L 64.984375 0 
L 51.703125 0 
L 19.390625 60.984375 
L 19.390625 0 
L 9.8125 0 
z
" id="DejaVuSans-78"/>
       <path d="M 45.40625 27.984375 
Q 45.40625 37.75 41.375 43.109375 
Q 37.359375 48.484375 30.078125 48.484375 
Q 22.859375 48.484375 18.828125 43.109375 
Q 14.796875 37.75 14.796875 27.984375 
Q 14.796875 18.265625 18.828125 12.890625 
Q 22.859375 7.515625 30.078125 7.515625 
Q 37.359375 7.515625 41.375 12.890625 
Q 45.40625 18.265625 45.40625 27.984375 
z
M 54.390625 6.78125 
Q 54.390625 -7.171875 48.1875 -13.984375 
Q 42 -20.796875 29.203125 -20.796875 
Q 24.46875 -20.796875 20.265625 -20.09375 
Q 16.0625 -19.390625 12.109375 -17.921875 
L 12.109375 -9.1875 
Q 16.0625 -11.328125 19.921875 -12.34375 
Q 23.78125 -13.375 27.78125 -13.375 
Q 36.625 -13.375 41.015625 -8.765625 
Q 45.40625 -4.15625 45.40625 5.171875 
L 45.40625 9.625 
Q 42.625 4.78125 38.28125 2.390625 
Q 33.9375 0 27.875 0 
Q 17.828125 0 11.671875 7.65625 
Q 5.515625 15.328125 5.515625 27.984375 
Q 5.515625 40.671875 11.671875 48.328125 
Q 17.828125 56 27.875 56 
Q 33.9375 56 38.28125 53.609375 
Q 42.625 51.21875 45.40625 46.390625 
L 45.40625 54.6875 
L 54.390625 54.6875 
z
" id="DejaVuSans-103"/>
      </defs>
      <use xlink:href="#DejaVuSans-77"/>
      <use x="86.279297" xlink:href="#DejaVuSans-97"/>
      <use x="147.558594" xlink:href="#DejaVuSans-99"/>
      <use x="202.539062" xlink:href="#DejaVuSans-104"/>
      <use x="265.917969" xlink:href="#DejaVuSans-105"/>
      <use x="293.701172" xlink:href="#DejaVuSans-110"/>
      <use x="357.080078" xlink:href="#DejaVuSans-101"/>
      <use x="418.603516" xlink:href="#DejaVuSans-32"/>
      <use x="450.390625" xlink:href="#DejaVuSans-35"/>
      <use x="534.179688" xlink:href="#DejaVuSans-105"/>
      <use x="561.962891" xlink:href="#DejaVuSans-100"/>
      <use x="625.439453" xlink:href="#DejaVuSans-95"/>
      <use x="675.439453" xlink:href="#DejaVuSans-48"/>
      <use x="739.0625" xlink:href="#DejaVuSans-48"/>
      <use x="802.685547" xlink:href="#DejaVuSans-32"/>
      <use x="834.472656" xlink:href="#DejaVuSans-45"/>
      <use x="870.556641" xlink:href="#DejaVuSans-32"/>
      <use x="902.34375" xlink:href="#DejaVuSans-78"/>
      <use x="977.148438" xlink:href="#DejaVuSans-111"/>
      <use x="1038.330078" xlink:href="#DejaVuSans-114"/>
      <use x="1077.693359" xlink:href="#DejaVuSans-109"/>
      <use x="1175.105469" xlink:href="#DejaVuSans-97"/>
      <use x="1236.384766" xlink:href="#DejaVuSans-108"/>
      <use x="1264.167969" xlink:href="#DejaVuSans-32"/>
      <use x="1295.955078" xlink:href="#DejaVuSans-83"/>
      <use x="1359.431641" xlink:href="#DejaVuSans-105"/>
      <use x="1387.214844" xlink:href="#DejaVuSans-103"/>
      <use x="1450.691406" xlink:href="#DejaVuSans-110"/>
      <use x="1514.070312" xlink:href="#DejaVuSans-97"/>
      <use x="1575.349609" xlink:href="#DejaVuSans-108"/>
     </g>
    </g>
    <g id="line2d_35">
     <path d="M 568.240625 79.894688 
L 588.240625 79.894688 
" style="fill:none;stroke:#dc322f;stroke-opacity:0.6;stroke-width:2;"/>
    </g>
    <g id="line2d_36"/>
    <g id="text_20">
     <!-- Machine #id_00 - Abnormal Signal -->
     <g transform="translate(596.240625 83.394688)scale(0.1 -0.1)">
      <defs>
       <path d="M 48.6875 27.296875 
Q 48.6875 37.203125 44.609375 42.84375 
Q 40.53125 48.484375 33.40625 48.484375 
Q 26.265625 48.484375 22.1875 42.84375 
Q 18.109375 37.203125 18.109375 27.296875 
Q 18.109375 17.390625 22.1875 11.75 
Q 26.265625 6.109375 33.40625 6.109375 
Q 40.53125 6.109375 44.609375 11.75 
Q 48.6875 17.390625 48.6875 27.296875 
z
M 18.109375 46.390625 
Q 20.953125 51.265625 25.265625 53.625 
Q 29.59375 56 35.59375 56 
Q 45.5625 56 51.78125 48.09375 
Q 58.015625 40.1875 58.015625 27.296875 
Q 58.015625 14.40625 51.78125 6.484375 
Q 45.5625 -1.421875 35.59375 -1.421875 
Q 29.59375 -1.421875 25.265625 0.953125 
Q 20.953125 3.328125 18.109375 8.203125 
L 18.109375 0 
L 9.078125 0 
L 9.078125 75.984375 
L 18.109375 75.984375 
z
" id="DejaVuSans-98"/>
      </defs>
      <use xlink:href="#DejaVuSans-77"/>
      <use x="86.279297" xlink:href="#DejaVuSans-97"/>
      <use x="147.558594" xlink:href="#DejaVuSans-99"/>
      <use x="202.539062" xlink:href="#DejaVuSans-104"/>
      <use x="265.917969" xlink:href="#DejaVuSans-105"/>
      <use x="293.701172" xlink:href="#DejaVuSans-110"/>
      <use x="357.080078" xlink:href="#DejaVuSans-101"/>
      <use x="418.603516" xlink:href="#DejaVuSans-32"/>
      <use x="450.390625" xlink:href="#DejaVuSans-35"/>
      <use x="534.179688" xlink:href="#DejaVuSans-105"/>
      <use x="561.962891" xlink:href="#DejaVuSans-100"/>
      <use x="625.439453" xlink:href="#DejaVuSans-95"/>
      <use x="675.439453" xlink:href="#DejaVuSans-48"/>
      <use x="739.0625" xlink:href="#DejaVuSans-48"/>
      <use x="802.685547" xlink:href="#DejaVuSans-32"/>
      <use x="834.472656" xlink:href="#DejaVuSans-45"/>
      <use x="870.556641" xlink:href="#DejaVuSans-32"/>
      <use x="902.34375" xlink:href="#DejaVuSans-65"/>
      <use x="970.751953" xlink:href="#DejaVuSans-98"/>
      <use x="1034.228516" xlink:href="#DejaVuSans-110"/>
      <use x="1097.607422" xlink:href="#DejaVuSans-111"/>
      <use x="1158.789062" xlink:href="#DejaVuSans-114"/>
      <use x="1198.152344" xlink:href="#DejaVuSans-109"/>
      <use x="1295.564453" xlink:href="#DejaVuSans-97"/>
      <use x="1356.84375" xlink:href="#DejaVuSans-108"/>
      <use x="1384.626953" xlink:href="#DejaVuSans-32"/>
      <use x="1416.414062" xlink:href="#DejaVuSans-83"/>
      <use x="1479.890625" xlink:href="#DejaVuSans-105"/>
      <use x="1507.673828" xlink:href="#DejaVuSans-103"/>
      <use x="1571.150391" xlink:href="#DejaVuSans-110"/>
      <use x="1634.529297" xlink:href="#DejaVuSans-97"/>
      <use x="1695.808594" xlink:href="#DejaVuSans-108"/>
     </g>
    </g>
   </g>
  </g>
 </g>
 <defs>
  <clipPath id="p94f64fff56">
   <rect height="326.16" width="669.6" x="108" y="51.84"/>
  </clipPath>
 </defs>
</svg>
